<svg width="960" height="462" viewBox="0 0 960 462" fill="none" xmlns="http://www.w3.org/2000/svg">
<path d="M99.2822 129.01C116.022 129.024 132.784 128.736 149.52 129.01C149.48 135.26 149.448 141.508 149.52 147.758H119.006V171.56H145.942V190.706C136.967 190.818 127.984 190.612 119.006 190.706V209.162V216.218C128.966 215.56 139.51 216.194 149.52 216.218C150.482 222.756 150.302 228.186 149.52 234.75C132.777 234.758 116.023 234.546 99.2822 234.75V129.01Z" fill="#1C344C"/>
<path d="M781.56 129.01C786.408 128.742 791.155 128.706 796.003 129.01V147.758H763.734C763.68 156.03 763.628 164.298 763.734 172.568H789.906V190.706C781.398 191.674 772.326 190.72 763.734 190.706V216.218H796.003L796.568 216.75C796.532 222.748 796.015 228.73 796.003 234.75C778.593 234.498 761.124 235.276 743.73 234.75V129.01H781.56Z" fill="#1C344C"/>
<path d="M836.338 127.704C862.744 122.728 871.994 143.364 872.236 165.686H853.698C853.324 152.602 848.45 141.744 833.86 147.758C823.968 156.856 827.104 206.75 830.722 211.946C834.6 217.516 843.604 218.256 848.744 214.158C853.114 210.672 853.274 202.774 853.698 197.604H872.236C875.576 245.624 816.07 246.326 809.258 210.608C807.794 202.934 807.84 161.276 809.234 153.608C811.908 138.908 821.656 130.294 836.338 127.704Z" fill="#1C344C"/>
<path d="M610.314 127.704C636.742 125.154 644.776 142.754 645 165.686C638.45 166.394 632.08 166.114 625.53 165.686C626.352 151.196 617.45 137.68 605.426 149.116C600.078 154.202 599.592 208.956 605.28 214.662C608.95 218.344 619.65 218.132 622.946 214.038C626.698 209.38 625.436 200.776 624.99 195.17L625.53 194.5H645C645.482 204.338 645.614 215.062 639.74 223.476C629.922 237.544 607.122 240.394 593.52 230.336C577.984 218.85 582.096 197.78 582.04 180.998C581.956 155.298 577.938 131.722 610.314 127.704Z" fill="#1C344C"/>
<path d="M529.01 127.704L529.728 127.656C553.364 126.152 565.244 138.666 566.456 161.516H546.658C545.78 148.762 541.868 145.088 529.01 145.546C517.964 152.03 521.594 169.03 521.596 179.886C521.596 190.646 519.86 203.1 523.552 213.402C540.164 226.576 548.042 211.272 546.658 194.5C543.048 194.918 539.618 194.726 536.002 194.5C535.978 191.37 534.898 181.502 536.814 179.172L538.376 179.038H566.456C566.51 192.072 568.824 211.6 561.62 222.766C548.036 243.828 507.384 239.34 502.682 213.236C500.898 203.33 502.138 191.892 502.104 181.81C502.016 155.788 496.54 132.394 529.01 127.704Z" fill="#1C344C"/>
<path d="M886.494 129.01C893.156 128.79 899.804 128.904 906.466 129.01C905.878 143.006 906.158 157.536 906.466 171.56C915.268 157.344 925.428 143.564 933.56 129.01C942.178 129.438 950.64 129.506 959.256 129.01C947.332 142.88 936.46 158.654 926.43 173.94C934.028 188.078 942.042 201.968 949.44 216.218C952.78 222.272 956.57 228.384 959.256 234.75C951.698 235.03 944.06 234.78 936.496 234.75C927.736 220.276 920.108 204.594 912.778 189.358L906.466 197.604V234.75C899.856 235.104 893.114 234.922 886.494 234.75L886.498 164.334C886.492 152.594 885.98 140.73 886.494 129.01Z" fill="#1C344C"/>
<path d="M661.494 129.01H681.768C681.936 143.522 681.772 158.054 681.768 172.568C689.604 172.824 697.36 173.038 705.192 172.568V129.01H724.754V233.89L724.47 234.612C721.28 235.784 709.232 234.802 705.192 234.75C704.984 220.376 705.186 205.974 705.192 191.596H681.768C681.544 205.972 681.912 220.37 681.768 234.75H661.494V129.01Z" fill="#1C344C"/>
<path d="M612.332 259.5C631.94 256.916 651.444 265.762 652.542 287.354C653.868 313.372 634.27 320.764 618.99 337.484C630.222 337.694 641.498 337.49 652.732 337.484C652.622 344.632 652.728 351.796 652.732 358.946H589.124C585.132 358.848 581.124 358.934 577.13 358.946C575.796 342.514 579.338 343.256 590.976 332.76C599.996 324.628 626.856 304.406 626.154 291.032C625.806 284.412 620.278 280.484 613.916 281.444C606.172 282.614 600.828 291.158 596.61 297.032C590.4 291.382 583.95 286.446 577.13 281.576C584.678 269.518 598 260.384 612.332 259.5Z" fill="#E66237"/>
<path d="M702.73 259.5H728.498V317.974H735.082C735.12 324.996 735.286 332.012 735.082 339.032H728.498C728.532 345.672 728.568 352.308 728.498 358.946H702.73C702.844 355.094 702.774 351.244 702.73 347.394C702.916 344.654 702.736 341.786 702.73 339.032H658.214C658.08 331.524 658.164 323.994 658.214 316.484C669.026 300.692 690.054 273.272 702.73 259.5ZM702.73 289.916C698.07 294.984 682.788 311.926 680.79 317.282C681.452 317.97 681.09 317.8 681.768 317.974H702.73C702.716 313.818 703.756 292.014 702.73 289.916Z" fill="#E66237"/>
<path d="M419.684 129.01H437.402C446.598 148.582 456.302 170.156 465.822 189.358V129.01H485.068L485.062 207.104C485.056 210.696 486.126 232.324 484.714 234.5L482.914 234.75C477.898 234.692 472.874 234.748 467.86 234.75L451.342 198.872C447.44 190.188 443.902 180.728 438.998 172.568C438.246 193.218 440.24 214.148 438.998 234.75C432.554 234.98 426.128 234.94 419.684 234.75C419.056 223.052 419.656 210.992 419.666 199.264L419.684 129.01Z" fill="#1C344C"/>
<path d="M165.017 129.01C183.286 128.946 214.714 123.042 224.308 143.632C231.032 158.068 228.882 183.83 211.778 191.596C216.92 206.194 224.188 220.492 230.3 234.75C224.036 234.886 210.798 237.8 206.494 232.386C203.836 219.508 197.462 206.714 192.56 194.5H185.236V234.75C178.502 234.812 171.746 234.984 165.017 234.75V129.01ZM187.67 147.758L185.954 148.134C183.948 151.844 185.24 170.608 185.236 176.258C190.506 176.412 196.284 177.072 201.494 176.258C209.07 170.176 209.642 149.14 198.192 147.778C194.792 147.374 191.096 147.656 187.67 147.758Z" fill="#1C344C"/>
<path d="M85.0495 96.4938H90.9683L67.2369 192.25C63.8605 206.214 59.5071 220.586 57.2579 234.75H35.9943C34.2285 227.1 31.7765 219.588 29.8651 211.968L10.2857 134.628C7.16412 121.876 3.71032 109.19 0.370117 96.4938H26.0989C27.5703 108.174 31.1697 119.678 33.4577 131.238L41.7591 171.628C43.1259 178.258 43.9167 185.122 45.8769 191.596C48.0195 184.448 49.3439 177.078 51.0217 169.81L62.5289 118.374C64.1885 111.104 65.5905 103.61 67.8287 96.4938C73.5705 96.4238 79.3077 96.4518 85.0495 96.4938Z" fill="#1C344C"/>
<path d="M311.054 129.01C315.276 129.19 319.524 129.052 323.748 129.01V234.75C317.09 234.586 310.468 234.596 303.808 234.75C303.824 213.242 303 191.024 303.808 169.612C298.482 185.038 294.824 204.88 288.576 219.292C284.238 219.434 279.87 219.312 275.528 219.292C271.044 203.346 266.104 187.55 261.76 171.56C261.17 176.78 261.348 181.634 261.76 186.876V234.75C255.336 235.134 248.922 235.206 242.502 234.75V129.01C249.748 129.3 256.87 129.294 264.114 129.01C269.406 148.504 276.444 167.438 281.876 186.876C288.732 172.764 296.492 144.418 301.428 129.01C304.636 129.09 307.844 129.042 311.054 129.01Z" fill="#1C344C"/>
<path d="M368.972 127.704C404.258 127.776 402.854 151.348 402.918 178.46C402.972 201.69 407.638 237.088 371.876 234.75C355.268 236.378 341 226.946 339.128 209.764C338.122 200.534 337.98 158.57 339.764 150.236C342.934 135.448 354.682 129.146 368.972 127.704ZM368.972 145.546C365.8 146.406 362.732 147.22 361.038 150.32C357.644 156.538 357.838 203.048 360.274 210.096C362.232 215.752 368.956 217.182 374.23 216.218C377.738 214.73 380.614 213.386 382.266 209.67C384.426 204.81 384.15 157.894 382.044 152.516C380.014 147.328 374.046 145.51 368.972 145.546Z" fill="#1C344C"/>
<path d="M525.856 389H753.557C753.576 394.644 755.379 408.977 751.574 409H524C524.409 402.337 525.222 395.633 525.856 389Z" fill="#E66237"/>
<path d="M119.006 255.012C126.15 254.918 133.307 255.01 140.453 255.012C175.2 343.37 265.152 391.918 357.802 366.736C369.61 363.526 380.426 358.406 391.954 354.524V376.378C382.974 383.022 345.816 391.7 335.132 393.034C247.562 403.982 162.046 355.37 126.024 275.27C123.077 268.716 119.893 262.204 119.006 255.012Z" fill="#1C344C"/>
<path d="M510.574 248.744C516.704 249.176 522.874 248.88 529.01 248.744C529.66 261.386 526.326 273.812 524.474 286.232L514.424 354.522C511.524 374.226 508.636 409.452 503.71 427.13C490.952 472.916 422.402 474.138 409.948 425.452C406.964 413.782 408.338 400.612 408.346 388.64L408.354 339.032H358.8C351.692 339.952 345.898 340.006 338.758 339.032C339.118 332.658 339.128 326.454 338.758 320.084H428.254L428.3 383.734C428.266 394.706 427.044 406.942 428.552 417.768C431.564 439.4 457.004 448.684 474.024 436.16C486.798 426.758 486.444 410.062 488.456 395.872L510.574 248.744Z" fill="#E66237"/>
<path d="M296.078 1.0065C368.224 0.140498 431.184 27.1345 473.806 87.1465C478.662 93.9825 483.582 101.31 486.63 109.136C478.312 109.302 469.948 109.212 461.626 109.136C434.926 69.3485 399.82 42.7825 353.778 29.5265C343.938 26.6925 333.56 26.3885 323.748 23.4585C268.422 20.4545 214.778 37.8725 176.032 78.8905C167.912 87.4845 161.577 97.2185 153.917 106.108L153.554 106.524H128.956C129.011 106.396 129.064 106.268 129.12 106.142L129.405 105.508C134.479 94.0025 143.419 82.6045 151.436 72.9225C190.328 25.9505 236.328 6.6565 296.078 1.0065Z" fill="#1C344C"/>
<circle cx="358.5" cy="112.5" r="8.5" fill="#1C344C"/>
<circle cx="383.5" cy="112.5" r="8.5" fill="#1C344C"/>
</svg>
