<?xml version="1.0" encoding="utf-8" ?>
<svg xmlns="http://www.w3.org/2000/svg" xmlns:xlink="http://www.w3.org/1999/xlink" width="1566" height="2193">
	<path fill="#00102B" transform="scale(1.52947 1.52947)" d="M0 0L0.439508 0L1024 0L1024 189.462L1024 1112.38L1024 1117.27L1024 1132.04L1024 1432.77C1023.24 1433.25 1022.41 1433.64 1021.52 1433.81C1014.47 1435.15 1001.43 1434.03 993.582 1434.04C976.535 1434.05 957.034 1435.21 940.282 1433.89C939.076 1433.79 938.101 1433.42 937.072 1432.81C936.415 1433.18 936.184 1433.36 935.51 1433.58C931.586 1434.9 813.014 1434.5 801.562 1433.94C800.14 1433.87 799.1 1433.62 797.807 1433.01C797.67 1433.07 797.535 1433.14 797.395 1433.2C792.42 1435.24 585.604 1434.03 563.939 1434.03L433.614 1434.02C411.067 1434.02 388.401 1434.49 365.867 1433.96C364.206 1433.92 362.948 1433.74 361.398 1433.08C360.081 1433.65 359.018 1433.88 357.59 1433.94C345.625 1434.45 333.47 1434.03 321.483 1434.03L251.409 1434.04L185.063 1434.03C173.556 1434.02 161.868 1434.45 150.384 1433.92C149.173 1433.87 148.097 1433.56 146.973 1433.11C146.472 1433.34 146.196 1433.5 145.687 1433.64C141.136 1434.93 95.3894 1434.41 92.4668 1432.92C87.3928 1435.41 12.1393 1434.15 0.585928 1433.85L0 1433.82L0 1117.42L0 1064.87L0 1061.3L0 0Z"/>
	<path fill="#52B0D5" transform="scale(1.52947 1.52947)" d="M264.465 625.044C261.822 618.936 259.02 612.85 256.666 606.626C254.424 600.696 252.677 594.515 250.06 588.746C242.548 572.186 222.08 544.971 226.99 526.695C229.103 518.832 234.432 512.462 241.489 508.508C245.81 506.087 251.338 504.042 256.272 505.666C263.5 508.044 267.591 518.897 270.886 525.066C276.748 534.942 280.222 545.665 283.465 556.612C286.638 565.597 294.269 592.73 298.512 598.839C301.527 606.295 302.56 615.148 304.822 622.933C306.56 629.703 308.309 636.464 310.213 643.19C309.485 647.116 308.49 650.909 307.407 654.751C303.705 654.722 300.087 654.486 296.419 653.956C285.194 652.334 279.35 647.474 272.746 638.602C270.674 634.055 267.432 629.072 264.465 625.044Z"/>
	<path fill="#2978A0" transform="scale(1.52947 1.52947)" d="M260.4 583.344C254.464 571.643 238.483 542.131 240.978 529.939C241.655 526.635 243.138 523.833 246.094 522.052C254.843 516.778 261.771 523.096 270.008 524.888C270.3 524.951 270.594 525.007 270.886 525.066C276.748 534.942 280.222 545.665 283.465 556.612C286.638 565.597 294.269 592.73 298.512 598.839C301.527 606.295 302.56 615.148 304.822 622.933C296.343 622.104 287.718 618.29 281.689 612.233C275.431 605.946 272.057 597.724 272.175 588.851C272.314 578.407 276.227 570.71 283.569 563.52C282.641 560.638 281.498 557.826 280.408 555.002C275.865 547.961 268.835 540.902 260.397 538.763C258.423 538.263 256.006 537.835 254.203 538.927C253.986 545.181 256.583 552.545 257.569 558.827C258.839 566.922 259.447 575.197 260.4 583.344Z"/>
	<path fill="#E8E8E8" transform="scale(1.52947 1.52947)" d="M725.159 529.295C728.011 518.453 731.615 503.264 740.083 495.424C745.921 490.019 752.118 489.761 759.696 490.11C765.918 491.486 770.86 493.373 774.471 498.917C780.964 508.883 778.788 524.142 776.313 535.084C774.24 544.25 771.006 553.111 767.462 561.8L765.694 565.605C759.035 579.406 752.832 593.438 746.226 607.272C742.663 614.735 738.606 622.026 735.134 629.5C730.09 636.589 724.555 642.16 715.642 643.751C708.963 644.944 703.223 643.293 697.706 639.549C702.812 616.311 707.097 592.444 708.402 568.669L716.26 554.571C719.62 546.31 722.316 537.747 725.159 529.295Z"/>
	<path fill="#2978A0" transform="scale(1.52947 1.52947)" d="M726.785 529.89C735.249 522.298 752.629 505.066 764.141 505.295C766.328 505.338 768.4 506.066 769.866 507.741C773.028 511.355 772.764 517.365 772.25 521.826C770.333 538.469 762.584 560.358 754.736 575.182C755.344 562.977 755.352 548.83 749.601 537.762C748.788 536.597 747.766 535.502 746.75 534.506C741.409 529.267 733.669 529.737 726.785 529.89Z"/>
	<path fill="#52B0D5" transform="scale(1.52947 1.52947)" d="M716.26 554.571C719.62 546.31 722.316 537.747 725.159 529.295L726.785 529.89C733.669 529.737 741.409 529.267 746.75 534.506C747.766 535.502 748.788 536.597 749.601 537.762C749.518 537.896 749.43 538.026 749.351 538.162C747.556 541.254 747.116 545.635 746.524 549.145C743.676 566.063 743.149 581.715 730.649 594.879C727.531 598.163 723.765 601.747 719.362 603.186C718.198 603.567 717.023 603.661 715.807 603.685C714.171 602.554 713.848 601.291 713.52 599.354C711.776 589.081 712.954 567.909 716.884 558.492L718.128 555.505L716.26 554.571Z"/>
	<path fill="#9FDDF0" transform="scale(1.52947 1.52947)" d="M716.26 554.571C719.62 546.31 722.316 537.747 725.159 529.295L726.785 529.89C733.669 529.737 741.409 529.267 746.75 534.506C747.766 535.502 748.788 536.597 749.601 537.762C749.518 537.896 749.43 538.026 749.351 538.162C747.556 541.254 747.116 545.635 746.524 549.145C743.676 566.063 743.149 581.715 730.649 594.879C727.531 598.163 723.765 601.747 719.362 603.186C718.198 603.567 717.023 603.661 715.807 603.685C714.171 602.554 713.848 601.291 713.52 599.354C711.776 589.081 712.954 567.909 716.884 558.492C718.117 570.602 717.037 583.641 717.291 595.879C725.07 590.656 733.429 585.73 737.997 577.22C741.895 569.958 744.103 559.331 741.584 551.291C739.68 545.216 736.355 542.459 730.859 539.64C725.288 544.107 721.854 549.535 718.128 555.505L716.26 554.571Z"/>
	<path fill="#002157" transform="scale(1.52947 1.52947)" d="M667.574 188.573C678.835 191.785 689.061 197.433 698.496 204.286C738.879 233.621 761.913 277.103 769.616 325.79C761.297 313.933 752.594 305.002 741.667 295.495C742.664 296.839 743.652 298.188 744.614 299.557C766.173 330.217 768.873 377.099 762.52 412.888C757.024 394.314 749.199 378.283 737.397 362.876C750.547 392.024 755.194 427.822 745.169 458.74C745.655 451.216 745.932 443.758 745.93 436.217C745.707 430.828 745.268 425.449 744.517 420.106C739.774 386.375 725.69 366.086 702.951 341.504C691.375 328.989 678.918 317.078 665.296 306.808C672.363 309.394 679.452 312.081 686.638 314.313C697.838 317.791 709.026 320.411 719.491 325.88C701.944 306.721 678.189 293.878 652.605 289.366C670.452 281.764 690.009 277.154 709.202 274.616C688.23 267.906 671.115 270.109 650.641 276.932C656.18 268.727 661.924 260.491 666.152 251.513C676.143 230.3 675.267 210.205 667.574 188.573Z"/>
	<path fill="#002157" transform="scale(1.52947 1.52947)" d="M474.667 100.431C493.739 99.4306 513.326 100.922 532.068 104.556C568.769 111.67 608.338 128.171 629.839 160.34C646.504 185.273 643.186 208.518 637.729 235.976C636.957 214.05 635.315 196.388 624.063 176.863C614.666 160.556 602.185 148.4 585.733 139.291C581.947 137.195 578.014 134.86 573.821 133.727L573.13 134.141C592.732 145.022 610.185 162.892 617.045 184.658C623.446 204.965 616.957 236.467 606.922 255.181L606.543 255.877C610.894 233.74 604.911 206.196 593.647 186.815C593.303 188.555 599.51 204.632 600.196 207.974C603.477 223.949 603.361 238.344 600.727 254.382C599.358 259.876 597.77 265.456 595.443 270.623C595.325 270.034 595.207 269.447 595.077 268.861C586.065 228.159 555.787 193.049 521.247 171.118C465.346 135.622 398.463 135.074 335.66 149.079C398.232 123.391 451.762 113.146 517.636 134.296C494.569 119.258 470.419 110.055 442.712 109.263C433.24 108.993 423.807 109.708 414.352 109.553C434.416 104.985 454.129 101.778 474.667 100.431Z"/>
	<path fill="#52B0D5" transform="scale(1.52947 1.52947)" d="M94.5858 1212.37C96.6132 1210.96 107.861 1189.69 110.495 1185.55C116.067 1176.81 122.339 1168.29 128.949 1160.3C137.106 1150.45 145.582 1140.83 154.18 1131.36C164.034 1120.5 175.348 1109.7 182.33 1096.69C195.406 1072.33 200.737 1029.17 197.251 1002.03C195.9 991.515 192.815 981.115 190.057 970.901C184.108 948.872 177.657 925.681 177.851 902.676C177.88 899.232 177.566 894.948 179.189 891.882C179.39 938.717 197.024 987.874 222.505 1026.81C226.04 1032.22 230.016 1039.8 234.596 1044.3C235.087 1044.79 235.518 1044.99 236.128 1045.29C227.562 1030.7 218.208 989.895 213.477 971.826C219.43 979.255 223.769 991.036 230.597 999.969C238.746 1010.63 248.74 1019.8 256.728 1030.54C275.835 1056.21 283.574 1090.96 280.126 1122.52C278.693 1135.64 275.627 1148.58 273.919 1161.68C270.031 1191.47 275.148 1222.43 287.601 1249.72C291.225 1257.67 295.131 1267.88 300.328 1274.83C300.95 1275.66 301.5 1276.17 302.527 1276.39C303.23 1278.82 303.775 1280.93 305.41 1282.95C302.259 1282.27 299.904 1279.87 297.618 1277.72C263.707 1245.72 255.717 1209.68 254.503 1164.77C252.228 1181.05 249.446 1196.86 248.837 1213.36C247.277 1255.56 257.502 1304.76 280.119 1340.82C283.541 1346.27 291.644 1359.43 297.785 1360.85C297.111 1360.84 296.442 1360.82 295.772 1360.74C284.989 1359.34 256.655 1326.22 250.025 1317.19C214.871 1269.31 209.579 1211.71 215.853 1154.26C217.543 1138.79 220.341 1123.37 222.695 1107.98C222.625 1108.16 222.558 1108.34 222.485 1108.52L222.116 1109.41C216.74 1122.57 203.288 1134.31 192.799 1143.61C154.559 1177.5 110.988 1213.52 97.4354 1264.93C93.951 1278.15 93.3219 1291.41 91.1928 1304.81C84.781 1274.63 86.2372 1241.94 94.5858 1212.37Z"/>
	<path fill="#002157" transform="scale(1.52947 1.52947)" d="M237.311 248.816C261.303 211.38 310.393 181.296 353.385 171.926C398.015 162.199 444.844 170.088 483.294 194.861C493.777 201.615 503.351 209.512 512.569 217.883C474.591 198.037 435.459 194 393.293 199.242C404.175 200.639 415.004 201.758 425.605 204.722C463.146 215.217 496.299 243.063 521.292 272.064C509.777 263.936 498.278 255.86 485.86 249.138C458.225 234.179 422.25 223.275 390.582 224.979C430.899 232.507 463.849 247.736 491.751 278.596C478.135 271.9 464.46 265.153 450.202 259.916C417.113 247.763 377.093 241.771 342.981 253.38C341.431 253.908 339.891 254.463 338.355 255.03C373.348 248.157 415.107 259.929 444.371 279.58L448.758 282.567C428.253 278.123 407.531 273.248 386.651 270.999C345.472 266.563 303.383 274.145 268.294 296.766C245.015 311.774 228.204 332.402 215.046 356.521C240.695 331.424 267.098 315.104 302.52 307.823C258.275 329.49 232.108 353.25 215.784 400.943C198.354 451.865 201.288 506.217 204.739 559.068C205.727 574.184 207.625 589.84 207.41 604.956C197.125 589.721 183.801 557.972 180.373 540.02C180.386 539.855 180.404 539.691 180.413 539.526C180.878 531.272 177.144 521.022 175.887 512.692C174.266 501.946 173.518 490.827 172.978 479.978C168.441 388.795 190.051 312.393 258.695 248.935C282.115 227.284 309.202 209.857 339.158 198.698C303.274 203.334 263.429 224.096 237.311 248.816Z"/>
	<path fill="#002157" transform="scale(1.52947 1.52947)" d="M11.1141 1050.45C15.3362 1048.14 19.8175 1042.39 23.4155 1039.05C30.9912 1032.01 39.4212 1024.68 48.199 1019.21C62.3822 1010.37 76.998 1001.93 92.0683 994.703C106.73 987.673 121.858 982.059 135.438 972.987C136.581 994.042 137.162 1012.41 131.342 1032.95C121.147 1068.93 102.845 1087.9 83.7563 1118.25C54.5173 1164.74 45.6621 1226.92 63.0082 1279.27C70.1856 1300.93 82.1675 1320.34 92.4238 1340.58C106.587 1368.54 120.879 1395.33 138.449 1421.37C140.596 1424.55 143.382 1430.09 146.189 1432.57C146.428 1432.78 146.712 1432.93 146.973 1433.11C146.472 1433.34 146.196 1433.5 145.687 1433.64C141.136 1434.93 95.3894 1434.41 92.4668 1432.92C87.3928 1435.41 12.1393 1434.15 0.585928 1433.85L0 1433.82L0 1117.42L0.638348 1117.46C0.718108 1099.95 1.10959 1082.38 0.660137 1064.88C3.47444 1059.65 8.64171 1055.83 11.1141 1050.45Z"/>
	<path fill="#00102B" transform="scale(1.52947 1.52947)" d="M0.891325 1140.46C2.87161 1143.88 2.93077 1148.89 3.51809 1152.79C7.03252 1176.11 12.9773 1199.72 19.8381 1222.29C34.8669 1271.73 52.8619 1320.18 70.1597 1368.85C77.7088 1390.09 86.4465 1411.2 92.4668 1432.92C87.3928 1435.41 12.1393 1434.15 0.585928 1433.85C-0.358909 1424.66 0.317371 1414.73 0.315252 1405.47L0.704581 1341.31L0.891325 1140.46Z"/>
	<path fill="#E8E8E8" transform="scale(1.52947 1.52947)" d="M550.604 301.649C577.681 299.739 606.72 297.513 632.392 288.152C654.372 304.978 671.098 330.061 674.703 357.844C676.695 373.19 676.179 389.28 680.88 404.16C684.449 415.456 692.409 423.885 697.482 434.337C710.184 460.503 712.417 504.385 707.395 532.639C707.667 544.073 705.911 557.573 708.402 568.669C707.097 592.444 702.812 616.311 697.706 639.549C687.194 682.194 675.465 709.663 648.137 744.259C641.131 751.44 626.475 767.303 617.854 771.24C602.993 784.406 574.564 804.077 556.819 812.76C537.136 824.189 511.584 827.524 489.255 825.077C434.243 819.048 384.506 767.188 351.531 726.139C332.632 700.581 319.316 673.652 310.213 643.19C308.309 636.464 306.56 629.703 304.822 622.933C302.56 615.148 301.527 606.295 298.512 598.839C290.837 561.897 288.29 523.49 287.714 485.793C287.592 477.781 286.776 468.675 288.292 460.822C290.154 451.174 298.168 442.895 302.186 433.905C312.147 411.622 306.618 395.07 307.571 372.643C307.967 363.331 311.555 356.652 318.415 350.456C346.226 325.334 386.826 315.868 423.311 314.519C444.232 313.745 464.658 315.025 485.56 312.504C495.886 311.258 506.338 309.687 516.517 307.559C527.855 305.187 538.922 300.999 550.604 301.649Z"/>
	<path fill="#52B0D5" transform="scale(1.52947 1.52947)" d="M523.584 526.35L524.179 522.809L524.988 525.476C525.775 525.124 526.262 524.883 527.149 524.928C527.342 524.937 527.532 524.973 527.724 524.995C528.218 524.093 528.536 523.351 528.709 522.341L528.861 521.399L530.512 520.46C527.723 529.561 527.357 536.587 528.378 545.951C526.039 539.523 524.563 533.114 523.584 526.35Z"/>
	<path fill="#52B0D5" transform="scale(1.52947 1.52947)" d="M614.926 517.323C620.596 518.084 627.606 515.826 633.173 514.666L634.921 515.511C624.833 520.183 614.857 522.471 603.677 521.693C607.61 520.672 611.272 519.075 614.926 517.323Z"/>
	<path fill="#9FDDF0" transform="scale(1.52947 1.52947)" d="M444.537 609.578C444.685 605.904 445.338 603.21 446.708 599.802C446.57 605.788 445.956 611.122 450.354 615.842C450.991 616.526 452.049 616.638 452.938 616.903L460.782 616.861C459.751 619.253 458.945 621.939 456.876 623.617L455.381 623.855C449.942 620.064 447.64 615.263 444.537 609.578Z"/>
	<path fill="#52B0D5" transform="scale(1.52947 1.52947)" d="M651.985 522.489L652.337 522.784C650.478 524.669 648.43 526.278 646.248 527.772C629.295 539.377 611.903 539.212 592.405 535.695L588.933 534.708C591.767 533.552 601.798 535.279 605.521 535.278C622.531 535.273 637.115 530.344 651.985 522.489Z"/>
	<path fill="#2978A0" transform="scale(1.52947 1.52947)" d="M351.851 514.144C361.355 524.878 373.862 531.793 388.32 532.747C399.786 533.504 410.961 530.336 421.976 527.59C411.842 532.079 399.654 538.116 388.407 538.405C377.241 536.937 365.954 534.009 357.908 525.54C355.282 522.778 351.789 518.057 351.851 514.144Z"/>
	<path fill="#2978A0" transform="scale(1.52947 1.52947)" d="M375.835 492.438L376.575 492.898L376.09 494.642C378.379 495.43 380.883 494.579 382.674 496.121C383.502 501.288 382.283 507.942 387.223 511.333C390.152 513.343 395.096 513.837 398.551 513.115C401.228 512.554 403.563 510.994 404.981 508.641C407.959 503.7 407.404 498.102 407.255 492.602C409.737 493.873 412.103 495.405 414.953 495.437C415.862 494.931 416.313 494.646 416.845 493.742C416.405 498.315 417.057 502.832 415.795 507.346C414.238 512.916 410.502 518.21 405.371 521.001C400.329 523.744 394.041 524.143 388.574 522.529C383.315 520.977 378.755 517.416 376.146 512.57C372.404 505.62 373.662 499.653 375.835 492.438Z"/>
	<path fill="#00102B" transform="scale(1.52947 1.52947)" d="M401.956 481.422C413.96 482.67 424.068 490.48 431.465 499.594C435.922 505.085 439.352 510.845 441.792 517.481C435.537 508.927 427.545 496.808 416.845 493.742C416.313 494.646 415.862 494.931 414.953 495.437C412.103 495.405 409.737 493.873 407.255 492.602C407.404 498.102 407.959 503.7 404.981 508.641C403.563 510.994 401.228 512.554 398.551 513.115C395.096 513.837 390.152 513.343 387.223 511.333C382.283 507.942 383.502 501.288 382.674 496.121C380.883 494.579 378.379 495.43 376.09 494.642L376.575 492.898L375.835 492.438C368.42 496.341 362.799 501.067 357.218 507.281C352.855 510.134 349.104 512.037 344.151 513.604C348.576 503.979 357.606 493.519 366.817 488.274C367.523 488.193 367.222 488.278 367.917 487.975C375.225 484.794 381.829 482.097 389.895 481.897C393.84 481.799 398.093 482.183 401.956 481.422Z"/>
	<path fill="#E8E8E8" transform="scale(1.52947 1.52947)" d="M396.253 491.463C398.489 491.443 401.26 491.172 403.097 492.685C404.394 493.753 405.283 494.912 405.249 496.666C405.206 498.927 403.73 500.554 402.288 502.121C400.315 502.191 398.169 502.353 396.459 501.169C395.023 500.174 394.16 498.954 393.957 497.19C393.702 494.968 395.026 493.161 396.253 491.463Z"/>
	<path fill="#9FDDF0" transform="scale(1.52947 1.52947)" d="M528.464 599.356C544.854 602.633 541.7 612.282 548.741 616.516C549.728 617.109 550.21 616.824 551.271 616.48C553.107 615.884 554.359 614.504 555.147 612.775C558.113 606.271 554.941 597.761 552.477 591.62C555.255 595.656 559.407 600.616 559.793 605.61C559.513 614.087 557.147 620.808 551.281 627.032C550.145 626.995 549.003 626.951 547.875 626.801C543.64 626.236 541.031 623.231 538.589 620.067L542.084 619.47C539.789 615.919 537.401 611.99 532.891 611.092C529.667 610.45 526.402 612.207 523.905 614.078C516.388 619.708 510.683 626.098 500.379 624.642C496.942 624.156 493.566 622.692 490.447 621.222C484.787 616.733 477.761 610.11 470.022 610.917C465.938 611.343 463.31 613.93 460.782 616.861L452.938 616.903L452.595 615.887C454.128 615.725 454.651 615.866 455.82 614.811C456.294 612.554 456.933 610.575 457.93 608.502C468.998 585.49 485.583 605.96 502.224 606.441C511.865 606.719 519.632 602.526 528.464 599.356Z"/>
	<path fill="#2978A0" transform="scale(1.52947 1.52947)" d="M559.793 605.61C559.513 614.087 557.147 620.808 551.281 627.032C550.145 626.995 549.003 626.951 547.875 626.801C543.64 626.236 541.031 623.231 538.589 620.067L542.084 619.47C543.029 620.477 543.953 621.839 545.248 622.345C546.765 622.937 548.555 622.495 549.958 621.785C555.438 619.011 558.008 611 559.793 605.61Z"/>
	<path fill="#52B0D5" transform="scale(1.52947 1.52947)" d="M468.242 486.551C478.613 498.47 479.92 524.636 478.865 539.953C476.732 570.945 466.511 572.122 450.547 593.732C457.609 571.585 474.468 544.886 462.471 521.73C455.748 508.754 440.643 500.092 429.906 490.496L430.532 488.916C433.956 487.027 463.165 485.776 466.459 486.728C467.31 486.974 467.388 486.817 468.242 486.551Z"/>
	<path fill="#9FDDF0" transform="scale(1.52947 1.52947)" d="M547.384 714.031C543.408 724.655 538.209 740.723 527.135 745.7C515.551 750.906 491.761 750.12 479.991 745.548C472.287 742.556 467.373 736.575 464.154 729.094C462.103 724.327 460.468 719.324 458.055 714.725C488.495 725.964 513.9 726.966 544.404 715.191L547.384 714.031Z"/>
	<defs>
		<linearGradient id="gradient_0" gradientUnits="userSpaceOnUse" x1="564.3631" y1="455.75607" x2="577.89215" y2="512.43555">
			<stop offset="0" stop-color="#2074BB"/>
			<stop offset="1" stop-color="#75C1E7"/>
		</linearGradient>
	</defs>
	<path fill="url(#gradient_0)" transform="scale(1.52947 1.52947)" d="M540.866 460.186C568.213 457.921 595.312 452.819 622.742 450.629C622.679 450.758 622.624 450.892 622.554 451.018C621.154 453.546 607.087 460.091 603.24 462.995L601.865 462.809L602.316 463.776L599.937 465.076C605.37 465.144 611.291 464.549 616.528 466.261C598.173 466.144 582.186 468.083 568.465 481.679C565.566 484.553 558.401 492.058 558.3 496.15C553.605 501.016 545.977 502.121 540.644 506.673C536.064 510.583 534.213 516.036 530.512 520.46L528.861 521.399L528.709 522.341C528.536 523.351 528.218 524.093 527.724 524.995C527.532 524.973 527.342 524.937 527.149 524.928C526.262 524.883 525.775 525.124 524.988 525.476L524.179 522.809L523.584 526.35C521.019 499.985 530.007 483.15 540.866 460.186Z"/>
	<path fill="#2978A0" transform="scale(1.52947 1.52947)" d="M400.874 460.094C416.849 460.751 432.892 462.86 448.853 463.103C455.267 470.635 462.883 478.283 468.242 486.551C467.388 486.817 467.31 486.974 466.459 486.728C463.165 485.776 433.956 487.027 430.532 488.916L429.906 490.496C428.531 489.644 427.402 488.8 426.227 487.688C425.929 487.523 425.633 487.355 425.333 487.194C420.645 484.67 406.91 478.758 401.652 480.382L401.956 481.422C398.093 482.183 393.84 481.799 389.895 481.897C381.829 482.097 375.225 484.794 367.917 487.975C367.222 488.278 367.523 488.193 366.817 488.274C357.606 493.519 348.576 503.979 344.151 513.604C343.578 513.716 343.654 513.718 342.852 513.738C338.146 513.86 333.205 508.564 330.171 505.518C343.1 486.421 359.352 472.08 382.234 466.353C388.022 464.905 396.376 464 401.463 461.066L400.874 460.094Z"/>
	<path fill="#002157" transform="scale(1.52947 1.52947)" d="M357.283 491.254C362.179 487.363 367.12 483.932 372.797 481.259C384.969 475.527 399.629 473.117 412.505 477.891C417.273 479.659 423.996 482.831 426.227 487.688C425.929 487.523 425.633 487.355 425.333 487.194C420.645 484.67 406.91 478.758 401.652 480.382L401.956 481.422C398.093 482.183 393.84 481.799 389.895 481.897C381.829 482.097 375.225 484.794 367.917 487.975C367.222 488.278 367.523 488.193 366.817 488.274L365.923 487.886C363.454 487.902 359.617 490.195 357.283 491.254Z"/>
	<path fill="#00102B" transform="scale(1.52947 1.52947)" d="M587.644 478.979C602.03 474.268 618.717 472.864 632.679 479.829C645.362 486.155 652.582 498.183 661.272 508.747C652.488 510.547 643.233 512.08 634.921 515.511L633.173 514.666C627.606 515.826 620.596 518.084 614.926 517.323C611.272 519.075 607.61 520.672 603.677 521.693C600.672 521.643 597.645 521.004 594.678 520.541C589.945 517.109 585.392 513.368 583.056 507.847C580.414 501.604 581.745 496.368 584.248 490.348C576.676 491.567 568.135 502.449 562.537 507.539C566.224 509.433 569.73 511.588 573.26 513.753C568.255 512.462 563.41 510.408 558.58 508.582C569.073 496.625 571.727 486.355 587.644 478.979Z"/>
	<path fill="#E8E8E8" transform="scale(1.52947 1.52947)" d="M603.598 489.317C605.234 489.706 606.874 490.075 608.192 491.185C609.746 492.494 609.911 493.736 609.978 495.641C609.122 497.836 607.99 498.737 606.105 500.09C604.154 499.763 601.917 499.499 600.587 497.849C599.457 496.447 599.184 495.125 599.593 493.377C600.04 491.466 602.092 490.323 603.598 489.317Z"/>
	<path fill="#E8E8E8" transform="scale(1.52947 1.52947)" d="M621.888 489.772C627.766 492.119 637.753 496.324 640.472 502.532C641.198 504.188 641.283 506.021 640.614 507.709C639.342 510.915 635.972 512.91 633.173 514.666C627.606 515.826 620.596 518.084 614.926 517.323C617.665 515.308 619.908 512.967 621.482 509.937C624.655 503.827 623.952 496.09 621.888 489.772Z"/>
	<path fill="#2978A0" transform="scale(1.52947 1.52947)" d="M611.47 488.856C614.58 488.968 618.961 488.655 621.888 489.772C623.952 496.09 624.655 503.827 621.482 509.937C619.908 512.967 617.665 515.308 614.926 517.323C611.272 519.075 607.61 520.672 603.677 521.693C600.672 521.643 597.645 521.004 594.678 520.541C589.945 517.109 585.392 513.368 583.056 507.847C580.414 501.604 581.745 496.368 584.248 490.348L587.774 489.443C588.739 490.222 588.846 490.379 588.992 491.686C589.76 498.531 587.666 503.94 594.043 509.224C596.12 510.946 598.74 511.846 601.438 511.431C604.487 510.962 607.028 509.01 608.716 506.484C612.312 501.102 611.728 494.986 611.47 488.856Z"/>
	<path fill="#52B0D5" transform="scale(1.52947 1.52947)" d="M622.742 450.629C641.042 449.042 655.934 450.876 672.073 460.243C674.874 461.868 677.98 465.023 681.154 465.526C683.49 474.924 680.659 486.903 675.754 495.08C672.906 499.829 666.851 507.29 661.272 508.747C652.582 498.183 645.362 486.155 632.679 479.829C618.717 472.864 602.03 474.268 587.644 478.979L586.38 477.494C576.281 482.715 567.021 488.847 558.3 496.15C558.401 492.058 565.566 484.553 568.465 481.679C582.186 468.083 598.173 466.144 616.528 466.261C611.291 464.549 605.37 465.144 599.937 465.076L602.316 463.776L601.865 462.809L603.24 462.995C607.087 460.091 621.154 453.546 622.554 451.018C622.624 450.892 622.679 450.758 622.742 450.629Z"/>
	<path fill="#002157" transform="scale(1.52947 1.52947)" d="M616.528 466.261C629.34 467.74 640.656 470.909 651.162 478.606C652.612 479.668 654.889 481.007 655.908 482.487C656.093 482.755 656.269 483.221 656.386 483.495C653.476 483.507 647.633 478.935 644.674 477.638C628.061 470.354 602.652 468.951 586.38 477.494C576.281 482.715 567.021 488.847 558.3 496.15C558.401 492.058 565.566 484.553 568.465 481.679C582.186 468.083 598.173 466.144 616.528 466.261Z"/>
	<path fill="#00102B" transform="scale(1.52947 1.52947)" d="M303.656 493.049C309.487 474.118 320.125 454.468 335.896 442.054C340.095 438.749 344.725 436.354 350.018 435.432C367.754 432.343 421.316 439.864 440.873 442.034C442.156 449.516 444.756 456.713 448.853 463.103C432.892 462.86 416.849 460.751 400.874 460.094C364.441 458.11 348.29 451.893 317.769 478.7C312.976 482.91 308.871 489.739 303.656 493.049Z"/>
	<path fill="#52B0D5" transform="scale(1.52947 1.52947)" d="M444.537 609.578C447.64 615.263 449.942 620.064 455.381 623.855L456.876 623.617C458.945 621.939 459.751 619.253 460.782 616.861C463.31 613.93 465.938 611.343 470.022 610.917C477.761 610.11 484.787 616.733 490.447 621.222C493.566 622.692 496.942 624.156 500.379 624.642C510.683 626.098 516.388 619.708 523.905 614.078C526.402 612.207 529.667 610.45 532.891 611.092C537.401 611.99 539.789 615.919 542.084 619.47L538.589 620.067C541.031 623.231 543.64 626.236 547.875 626.801C549.003 626.951 550.145 626.995 551.281 627.032C542.686 636.516 530.929 640.754 520.191 647.255C514.346 650.794 509.005 655.014 503.314 658.783C500.512 658.951 497.646 659.064 494.864 658.606C480.779 656.288 457.153 643.679 448.759 632.011C443.52 624.727 443.216 618.17 444.537 609.578Z"/>
	<path fill="#00102B" transform="scale(1.52947 1.52947)" d="M460.782 616.861C463.31 613.93 465.938 611.343 470.022 610.917C477.761 610.11 484.787 616.733 490.447 621.222C493.566 622.692 496.942 624.156 500.379 624.642C510.683 626.098 516.388 619.708 523.905 614.078C526.402 612.207 529.667 610.45 532.891 611.092C537.401 611.99 539.789 615.919 542.084 619.47L538.589 620.067C536.747 617.94 534.947 615.596 531.911 615.348C519.427 614.327 514.58 637.647 488.021 622.872C483.158 619.739 476.2 613.849 470.064 615.317C464.318 616.691 459.031 627.058 456.343 627.237C455.798 627.273 454.403 626.643 453.813 626.463L453.054 625.302C453.91 624.225 454.042 624.235 455.381 623.855L456.876 623.617C458.945 621.939 459.751 619.253 460.782 616.861Z"/>
	<path fill="#00102B" transform="scale(1.52947 1.52947)" d="M548.782 434.331C562.075 431.607 624.098 420.59 634.616 421.804C641.281 422.572 647.702 425.822 653.242 429.445C666.323 438 676.823 450.308 681.154 465.526C677.98 465.023 674.874 461.868 672.073 460.243C655.934 450.876 641.042 449.042 622.742 450.629C595.312 452.819 568.213 457.921 540.866 460.186C543.274 451.51 545.762 442.815 548.782 434.331Z"/>
	<path fill="#9FDDF0" transform="scale(1.52947 1.52947)" d="M581.562 677.96C586.454 675.504 596.811 666.382 601.962 667.922C602.947 668.217 603.704 668.691 604.504 669.332L604.39 669.814C600.998 669.751 600.088 669.372 597.535 671.831C593.074 676.127 589.828 680.2 584.09 682.92C576.831 690.459 569.551 697.736 561.242 704.128C556.823 707.528 551.519 710.4 547.384 714.031L544.404 715.191C513.9 726.966 488.495 725.964 458.055 714.725C452.942 711.809 448.598 708.538 444.199 704.662C438.283 701.105 426.769 689.425 422.449 683.6C419.443 680.893 415.302 678.836 411.853 676.693L424.318 678.525C432.669 677.232 441.699 677.435 450.168 676.673C458.335 675.939 467.53 673.612 475.674 674.172C484.267 674.763 492.67 678.538 501.343 678.469C508.351 678.412 515.501 677.093 522.533 676.692C542.383 675.559 561.804 675.468 581.562 677.96Z"/>
	<path fill="#2978A0" transform="scale(1.52947 1.52947)" d="M444.199 704.662C449.228 704.862 458.573 710.441 463.896 712.378C470.644 714.834 477.513 716.562 484.657 717.337C497.39 718.719 510.091 718.719 522.838 717.466C529.521 716.809 537.918 714.568 544.404 715.191C513.9 726.966 488.495 725.964 458.055 714.725C452.942 711.809 448.598 708.538 444.199 704.662Z"/>
	<path fill="#00102B" transform="scale(1.52947 1.52947)" d="M581.562 677.96C586.454 675.504 596.811 666.382 601.962 667.922C602.947 668.217 603.704 668.691 604.504 669.332L604.39 669.814C600.998 669.751 600.088 669.372 597.535 671.831C593.074 676.127 589.828 680.2 584.09 682.92C541.717 693.27 503.665 699.724 460.013 692.896C447.106 690.877 434.673 688.265 422.449 683.6C419.443 680.893 415.302 678.836 411.853 676.693L424.318 678.525C433.372 680.97 443.372 681.862 452.661 683.302C495.061 689.879 509.698 691.667 552.782 684.101C562.24 682.44 572.518 681.165 581.562 677.96Z"/>
	<path fill="#52B0D5" transform="scale(1.52947 1.52947)" d="M424.318 678.525C432.669 677.232 441.699 677.435 450.168 676.673C458.335 675.939 467.53 673.612 475.674 674.172C484.267 674.763 492.67 678.538 501.343 678.469C508.351 678.412 515.501 677.093 522.533 676.692C542.383 675.559 561.804 675.468 581.562 677.96C572.518 681.165 562.24 682.44 552.782 684.101C509.698 691.667 495.061 689.879 452.661 683.302C443.372 681.862 433.372 680.97 424.318 678.525Z"/>
	<defs>
		<linearGradient id="gradient_1" gradientUnits="userSpaceOnUse" x1="336.74243" y1="338.1459" x2="616.005" y2="772.83014">
			<stop offset="0" stop-color="#4EBBDE"/>
			<stop offset="1" stop-color="#86DEF5"/>
		</linearGradient>
	</defs>
	<path fill="url(#gradient_1)" transform="scale(1.52947 1.52947)" d="M298.512 598.839C290.837 561.897 288.29 523.49 287.714 485.793C287.592 477.781 286.776 468.675 288.292 460.822C290.154 451.174 298.168 442.895 302.186 433.905C312.147 411.622 306.618 395.07 307.571 372.643C307.967 363.331 311.555 356.652 318.415 350.456C346.226 325.334 386.826 315.868 423.311 314.519C444.232 313.745 464.658 315.025 485.56 312.504C495.886 311.258 506.338 309.687 516.517 307.559C527.855 305.187 538.922 300.999 550.604 301.649C531.269 312.694 510.611 323.383 489.308 330.11C473.2 335.196 456.566 337.746 440.237 341.898C390.9 354.441 365.624 379.471 333.995 417.426C320.626 433.47 304.268 452.211 298.798 472.724C296.799 480.221 297.347 486.971 301.055 493.815L302.106 494.313L303.656 493.049C308.871 489.739 312.976 482.91 317.769 478.7C348.29 451.893 364.441 458.11 400.874 460.094L401.463 461.066C396.376 464 388.022 464.905 382.234 466.353C359.352 472.08 343.1 486.421 330.171 505.518C333.205 508.564 338.146 513.86 342.852 513.738C343.654 513.718 343.578 513.716 344.151 513.604C349.104 512.037 352.855 510.134 357.218 507.281C355.838 509.455 352.677 511.934 351.851 514.144C351.789 518.057 355.282 522.778 357.908 525.54C365.954 534.009 377.241 536.937 388.407 538.405C369.8 543.922 349.179 536.813 331.64 547.627C324.938 551.759 320.951 558.111 319.206 565.708C317.473 573.249 318.242 581.189 320.7 588.472C326.335 605.167 339.372 622.167 347.299 638.314C352.486 648.878 356.108 660.371 360.536 671.282C366.537 686.069 373.842 699.958 382.278 713.501C396.417 736.202 431.633 778.551 453.908 793.669C461.904 799.096 470.983 802.953 480.396 805.094C509.743 811.772 539.387 806.317 564.679 790.264C583.854 778.093 600.498 761.468 616.406 745.38C629.794 731.84 643.271 718.408 653.998 702.584C684.871 657.04 695.487 586.353 707.395 532.639C707.667 544.073 705.911 557.573 708.402 568.669C707.097 592.444 702.812 616.311 697.706 639.549C687.194 682.194 675.465 709.663 648.137 744.259C641.131 751.44 626.475 767.303 617.854 771.24C602.993 784.406 574.564 804.077 556.819 812.76C537.136 824.189 511.584 827.524 489.255 825.077C434.243 819.048 384.506 767.188 351.531 726.139C332.632 700.581 319.316 673.652 310.213 643.19C308.309 636.464 306.56 629.703 304.822 622.933C302.56 615.148 301.527 606.295 298.512 598.839Z"/>
	<path fill="#9FDDF0" transform="scale(1.52947 1.52947)" d="M556.819 812.76C556.851 812.141 556.838 811.847 557.017 811.206C559.349 802.855 603.065 775.797 612.433 769.501C613.464 769.756 614.427 769.983 615.489 770.057C616.687 770.141 616.912 770.541 617.854 771.24C602.993 784.406 574.564 804.077 556.819 812.76Z"/>
	<path fill="#2978A0" transform="scale(1.52947 1.52947)" d="M0 0L0.439508 0L1024 0L1024 189.462L1023.8 190.282C1021.19 201.171 1020.34 212.568 1018.24 223.585C1014.72 242.028 1009.43 260.315 1003.55 278.133C967.514 387.371 885.782 489.805 788.078 550.744C781.423 554.895 774.341 558.077 767.462 561.8C771.006 553.111 774.24 544.25 776.313 535.084C778.788 524.142 780.964 508.883 774.471 498.917C770.86 493.373 765.918 491.486 759.696 490.11C791.829 430.077 800.482 353.805 780.594 288.364C768.168 247.478 743.377 207.306 704.793 186.69C692.502 180.123 677.678 174.599 663.661 174.084C643.818 133.304 617.324 109.594 574.035 94.6609C502.818 70.0938 415.209 85.3587 348.924 117.738C272.858 154.895 205.419 218.21 177.654 299.649C155.085 365.846 162.003 472.726 180.373 540.02C183.801 557.972 197.125 589.721 207.41 604.956C208.004 612.294 206.817 620.258 205.604 627.497C200.986 655.065 190.054 678.654 171.891 699.965C141.316 735.839 89.8755 764.146 94.1722 818.573C94.7397 825.763 96.1762 832.834 97.5926 839.894C98.2195 831.73 98.6566 823.284 100.832 815.362C106.555 794.522 123.991 773.627 140.207 759.702C154.204 747.682 169.077 736.197 183.84 725.127C140.191 780.346 108.365 833.108 116.803 906.049C119.025 925.264 124.156 943.917 131.803 961.672C133.201 965.325 134.926 969.094 135.438 972.987C121.858 982.059 106.73 987.673 92.0683 994.703C76.998 1001.93 62.3822 1010.37 48.199 1019.21C39.4212 1024.68 30.9912 1032.01 23.4155 1039.05C19.8175 1042.39 15.3362 1048.14 11.1141 1050.45C8.64171 1055.83 3.47444 1059.65 0.660137 1064.88C1.10959 1082.38 0.718108 1099.95 0.638348 1117.46L0 1117.42L0 1064.87L0 1061.3L0 0Z"/>
	<path fill="#E8E8E8" transform="scale(1.52947 1.52947)" d="M11.1141 1050.45L11.0386 1050.3C11.168 1049.76 11.1849 1049.57 11.4888 1049.02C14.9677 1042.7 21.5506 1036.27 26.412 1030.93C55.9689 998.455 91.2871 977.906 131.803 961.672C133.201 965.325 134.926 969.094 135.438 972.987C121.858 982.059 106.73 987.673 92.0683 994.703C76.998 1001.93 62.3822 1010.37 48.199 1019.21C39.4212 1024.68 30.9912 1032.01 23.4155 1039.05C19.8175 1042.39 15.3362 1048.14 11.1141 1050.45Z"/>
	<path fill="#002157" transform="scale(1.52947 1.52947)" d="M767.462 561.8C774.341 558.077 781.423 554.895 788.078 550.744C885.782 489.805 967.514 387.371 1003.55 278.133C1009.43 260.315 1014.72 242.028 1018.24 223.585C1020.34 212.568 1021.19 201.171 1023.8 190.282L1024 189.462L1024 1112.38L1024 1117.27L1024 1132.04L1024 1432.77C1023.24 1433.25 1022.41 1433.64 1021.52 1433.81C1014.47 1435.15 1001.43 1434.03 993.582 1434.04C976.535 1434.05 957.034 1435.21 940.282 1433.89C939.076 1433.79 938.101 1433.42 937.072 1432.81C936.415 1433.18 936.184 1433.36 935.51 1433.58C931.586 1434.9 813.014 1434.5 801.562 1433.94C800.14 1433.87 799.1 1433.62 797.807 1433.01C797.67 1433.07 797.535 1433.14 797.395 1433.2C792.42 1435.24 585.604 1434.03 563.939 1434.03L433.614 1434.02C411.067 1434.02 388.401 1434.49 365.867 1433.96C364.206 1433.92 362.948 1433.74 361.398 1433.08C363.997 1429.08 365.317 1422.3 366.813 1417.63C377.315 1384.81 377.899 1353.78 371.993 1320.02C376.161 1325.04 388.475 1331.53 394.507 1336.33C414.229 1352.03 434.886 1371.63 441.765 1396.74C444.174 1405.53 444.509 1414.67 446.708 1423.42C446.743 1423.56 446.779 1423.69 446.815 1423.83C457.486 1363.24 434.939 1317.96 386.32 1282.4C365.701 1267.32 343.843 1255.04 327.434 1235.07C323.479 1230.25 318.135 1223.72 316.31 1217.78C311.779 1215.54 302.518 1194.79 300.703 1189.52C300.092 1187.75 299.555 1185.96 299.176 1184.12C292.266 1208.65 292.773 1230.51 297.856 1255.43C299.281 1262.42 301.273 1269.39 302.527 1276.39C301.5 1276.17 300.95 1275.66 300.328 1274.83C295.131 1267.88 291.225 1257.67 287.601 1249.72C275.148 1222.43 270.031 1191.47 273.919 1161.68C275.627 1148.58 278.693 1135.64 280.126 1122.52C283.574 1090.96 275.835 1056.21 256.728 1030.54C248.74 1019.8 238.746 1010.63 230.597 999.969C223.769 991.036 219.43 979.255 213.477 971.826C218.208 989.895 227.562 1030.7 236.128 1045.29C235.518 1044.99 235.087 1044.79 234.596 1044.3C230.016 1039.8 226.04 1032.22 222.505 1026.81C197.024 987.874 179.39 938.717 179.189 891.882C177.566 894.948 177.88 899.232 177.851 902.676C177.657 925.681 184.108 948.872 190.057 970.901C192.815 981.115 195.9 991.515 197.251 1002.03C200.737 1029.17 195.406 1072.33 182.33 1096.69C175.348 1109.7 164.034 1120.5 154.18 1131.36C145.582 1140.83 137.106 1150.45 128.949 1160.3C122.339 1168.29 116.067 1176.81 110.495 1185.55C107.861 1189.69 96.6132 1210.96 94.5858 1212.37C94.8358 1208.86 96.5408 1204.66 97.5661 1201.28C107.445 1168.67 123.406 1138.2 136.643 1106.9C146.969 1082.49 155.715 1056.95 160.206 1030.77C166.674 993.077 158.469 960.057 153.739 922.925C149.498 889.633 150.9 857.015 160.956 824.852C176.597 774.826 211.803 735.406 233.82 688.725C244.753 665.545 250.759 639.83 255.58 614.748C257.733 618.158 260.497 624.009 264.465 625.044C267.432 629.072 270.674 634.055 272.746 638.602C279.35 647.474 285.194 652.334 296.419 653.956C300.087 654.486 303.705 654.722 307.407 654.751C308.49 650.909 309.485 647.116 310.213 643.19C319.316 673.652 332.632 700.581 351.531 726.139C384.506 767.188 434.243 819.048 489.255 825.077C511.584 827.524 537.136 824.189 556.819 812.76C574.564 804.077 602.993 784.406 617.854 771.24C626.475 767.303 641.131 751.44 648.137 744.259C675.465 709.663 687.194 682.194 697.706 639.549C703.223 643.293 708.963 644.944 715.642 643.751C724.555 642.16 730.09 636.589 735.134 629.5C738.606 622.026 742.663 614.735 746.226 607.272C752.832 593.438 759.035 579.406 765.694 565.605L767.462 561.8Z"/>
	<path fill="#00102B" transform="scale(1.52947 1.52947)" d="M221.747 775.014C218.383 786.186 213.595 796.789 210.52 808.114C199.023 850.459 199.565 895.271 206.701 938.268C208.049 946.394 209.997 964.132 212.969 970.962C213.103 971.268 213.308 971.538 213.477 971.826C218.208 989.895 227.562 1030.7 236.128 1045.29C235.518 1044.99 235.087 1044.79 234.596 1044.3C230.016 1039.8 226.04 1032.22 222.505 1026.81C197.024 987.874 179.39 938.717 179.189 891.882C179.83 883.704 179.759 875.039 181.166 866.966C186.815 834.55 203.515 802.054 221.747 775.014Z"/>
	<path fill="#00102B" transform="scale(1.52947 1.52947)" d="M767.574 596.314C779.325 638.513 796.681 676.576 824.587 710.69C859.645 753.546 919.383 781.196 918.383 844.63C918.099 862.669 912.505 882.424 903.724 898.176C902.975 899.52 902.177 900.728 901.169 901.896C899.873 905.319 898.819 908.782 897.788 912.293C894.612 909.299 894.636 904.814 891.814 902.372C893.377 892.634 895.178 883.412 895.087 873.479C894.802 842.226 881.634 810.5 859.963 787.99C851.118 778.803 840.806 770.909 831.683 761.928C824.263 754.41 816.857 746.327 810.234 738.1C787.453 709.796 771.275 675.053 767.439 638.764C766.787 632.596 765.894 625.845 766.562 619.66L767.433 619.221C767.097 611.457 766.099 604.052 767.574 596.314Z"/>
	<defs>
		<linearGradient id="gradient_2" gradientUnits="userSpaceOnUse" x1="795.00122" y1="805.91443" x2="869.15393" y2="733.83441">
			<stop offset="0" stop-color="#287BBE"/>
			<stop offset="1" stop-color="#72C6E6"/>
		</linearGradient>
	</defs>
	<path fill="url(#gradient_2)" transform="scale(1.52947 1.52947)" d="M831.683 761.928C824.263 754.41 816.857 746.327 810.234 738.1C787.453 709.796 771.275 675.053 767.439 638.764C766.787 632.596 765.894 625.845 766.562 619.66L767.433 619.221C768.594 630.122 771.545 640.431 774.919 650.822C785.732 684.117 802.674 712.717 826.319 738.554C838.356 751.706 851.947 763.196 864.235 776.074C899.211 812.729 915.457 851.663 901.169 901.896C899.873 905.319 898.819 908.782 897.788 912.293C894.612 909.299 894.636 904.814 891.814 902.372C893.377 892.634 895.178 883.412 895.087 873.479C894.802 842.226 881.634 810.5 859.963 787.99C851.118 778.803 840.806 770.909 831.683 761.928Z"/>
	<path fill="#00102B" transform="scale(1.52947 1.52947)" d="M1024 1112.38L1024 1117.27L1024 1132.04L1024 1432.77C1023.24 1433.25 1022.41 1433.64 1021.52 1433.81C1014.47 1435.15 1001.43 1434.03 993.582 1434.04C976.535 1434.05 957.034 1435.21 940.282 1433.89C939.076 1433.79 938.101 1433.42 937.072 1432.81C938.923 1421.63 942.297 1410.56 945.259 1399.62L958.769 1349.81L1007.38 1169.05C1010.6 1156.81 1021.73 1127.65 1022.01 1117.32C1022.99 1115.87 1023.43 1114.03 1024 1112.38Z"/>
	<path fill="#002157" transform="scale(1.52947 1.52947)" d="M1024 1132.04L1023.55 1131.42C1022.87 1126.84 1023.12 1121.81 1024 1117.27L1024 1132.04Z"/>
	<path fill="#00102B" transform="scale(1.52947 1.52947)" d="M735.134 629.5C738.355 663.965 751.149 695.812 769.326 725.091C774.88 734.036 781.398 742.375 786.787 751.429C820.969 808.86 826.216 869.957 811.753 934.251C842.911 889.981 847.789 843.513 838.549 790.849C837.285 783.644 831.614 767.782 831.683 761.928C840.806 770.909 851.118 778.803 859.963 787.99C881.634 810.5 894.802 842.226 895.087 873.479C895.178 883.412 893.377 892.634 891.814 902.372C894.636 904.814 894.612 909.299 897.788 912.293C892.925 925.898 885.894 937.555 877.552 949.319C873.717 954.727 868.716 960.431 865.953 966.425L865.36 965.844C863.424 964.955 861.53 964.431 859.462 963.936L857.852 962.97C851.448 960.605 845.002 958.391 838.533 956.211C805.234 943.838 770.959 933.938 738.817 918.599C735.681 908.738 731.342 899.328 725.714 890.631C709.16 865.047 682.276 848.311 652.741 841.979L653.342 753.412C653.468 750.049 654.266 745.105 653.203 741.974L652.359 742.129C651.27 743.28 650.191 744.393 648.998 745.436L648.137 744.259C675.465 709.663 687.194 682.194 697.706 639.549C703.223 643.293 708.963 644.944 715.642 643.751C724.555 642.16 730.09 636.589 735.134 629.5Z"/>
	<path fill="#002157" transform="scale(1.52947 1.52947)" d="M885.122 922.305C882.527 935.422 871.561 953.338 865.36 965.844C863.424 964.955 861.53 964.431 859.462 963.936C865.906 956.573 868.602 946.945 873.127 938.444C876.322 932.439 880.673 927.389 885.122 922.305Z"/>
	<path fill="#2978A0" transform="scale(1.52947 1.52947)" d="M891.814 902.372C894.636 904.814 894.612 909.299 897.788 912.293C892.925 925.898 885.894 937.555 877.552 949.319C873.717 954.727 868.716 960.431 865.953 966.425L865.36 965.844C871.561 953.338 882.527 935.422 885.122 922.305C888.09 915.933 889.846 909.1 891.814 902.372Z"/>
	<path fill="#2978A0" transform="scale(1.52947 1.52947)" d="M838.533 956.211C856.775 917.845 869.084 895.038 871.673 851.775C883.89 885.856 879.031 919.523 863.738 951.798C861.933 955.608 859.965 959.321 857.852 962.97C851.448 960.605 845.002 958.391 838.533 956.211Z"/>
	<path fill="#00102B" transform="scale(1.52947 1.52947)" d="M272.746 638.602C279.35 647.474 285.194 652.334 296.419 653.956C300.087 654.486 303.705 654.722 307.407 654.751C308.49 650.909 309.485 647.116 310.213 643.19C319.316 673.652 332.632 700.581 351.531 726.139C352.269 733.897 352.304 742.145 353.671 749.77C353.777 778.228 354.265 806.767 355.161 835.212C355.619 849.123 358.231 876.56 351.381 888.016C347.367 894.73 341.213 900.419 335.993 906.229C330.043 912.853 325.466 920.126 322.859 928.683C327.823 947.379 337.573 965.939 346.263 983.216C359.898 1012.49 374.608 1039.6 372.69 1072.9C372.94 1073.05 373.184 1073.21 373.439 1073.35C374.749 1074.07 390.049 1073.63 393.12 1074.1C401.583 1075.39 409.66 1078.54 417.049 1082.8C449.293 1101.4 473.143 1134.51 491.828 1165.87C495.055 1171.28 503.98 1188.99 507.876 1192.6C508.058 1192.43 508.245 1192.25 508.422 1192.07C511.661 1188.72 520.843 1167.41 524.324 1161.24C545.079 1124.45 583.851 1075.27 630.056 1072.81C644.644 1072.03 657.766 1076.52 668.604 1086.36C689.511 1105.34 700.429 1139.24 702.638 1166.71C702.822 1168.96 702.978 1170.91 702.54 1173.16C698.334 1171.88 657.893 1139.91 655.484 1135.99C651.429 1141.74 625.954 1162.27 619.125 1168.22L544.915 1232.14C533.309 1242.04 521.973 1252.75 509.85 1261.99C508.913 1262.7 508.395 1262.9 507.261 1263.1C504.646 1262.62 373.263 1148.47 357.811 1134.08C352.697 1146.99 341.167 1158.5 333.764 1170.3C329.514 1177.08 327.305 1184.51 323.553 1191.44C318.106 1179.41 318.219 1161.87 315.966 1148.64C313.837 1099.62 308.559 1062.76 285.324 1018.59C275.604 1000.12 264.761 983.558 251.13 967.721C267.851 978.329 323.232 1032.61 333.649 1035.17C333.531 1035.07 333.404 1034.97 333.294 1034.86C326.699 1028.17 311.024 991.005 306.488 980.518C272.732 902.49 273.967 838.63 289.276 756.609C293.121 736.011 300.611 705.574 300.49 685.748L300.477 684.725C295.689 699.479 291.811 714.529 287.011 729.292C277.826 757.54 267.491 785.235 259.612 813.916C250.905 845.616 245.606 878.128 241.64 910.715C237.701 873.111 234.484 835.698 239.813 798.046C243.737 770.322 252.775 743.415 259.527 716.291C266.228 689.374 269.649 666.091 272.746 638.602Z"/>
	<path fill="#002157" transform="scale(1.52947 1.52947)" d="M322.859 928.683C320.288 921.58 318.315 913.915 317.157 906.447C310.719 864.933 335.45 861.948 355.161 835.212C355.619 849.123 358.231 876.56 351.381 888.016C347.367 894.73 341.213 900.419 335.993 906.229C330.043 912.853 325.466 920.126 322.859 928.683Z"/>
	<path fill="#E8E8E8" transform="scale(1.52947 1.52947)" d="M351.531 726.139C384.506 767.188 434.243 819.048 489.255 825.077C511.584 827.524 537.136 824.189 556.819 812.76C574.564 804.077 602.993 784.406 617.854 771.24C626.475 767.303 641.131 751.44 648.137 744.259L648.998 745.436C650.191 744.393 651.27 743.28 652.359 742.129L653.203 741.974C654.266 745.105 653.468 750.049 653.342 753.412L652.741 841.979C682.276 848.311 709.16 865.047 725.714 890.631C731.342 899.328 735.681 908.738 738.817 918.599C770.959 933.938 805.234 943.838 838.533 956.211C845.002 958.391 851.448 960.605 857.852 962.97L859.462 963.936C861.53 964.431 863.424 964.955 865.36 965.844L865.953 966.425C910.707 980.722 981.889 1019.08 1004.18 1062.66C1006.15 1066.51 1012.48 1078.63 1011.43 1082.46C1006.66 1076.89 1004.03 1069.35 999.213 1063.56C991.36 1054.11 981.068 1047.38 972.488 1038.76L972.069 1038.33C971.791 1038.2 971.512 1038.08 971.235 1037.95C964.451 1034.74 957.78 1029.23 951.322 1025.25C938.316 1017.22 924.791 1009.78 911.006 1003.17C861.625 979.515 808.544 964.334 756.475 947.935C758.435 1011.46 742.12 1072.97 719.384 1131.77C715.776 1141.09 709.358 1159.53 703.52 1167.25L702.638 1166.71C700.429 1139.24 689.511 1105.34 668.604 1086.36C657.766 1076.52 644.644 1072.03 630.056 1072.81C583.851 1075.27 545.079 1124.45 524.324 1161.24C520.843 1167.41 511.661 1188.72 508.422 1192.07C508.245 1192.25 508.058 1192.43 507.876 1192.6C503.98 1188.99 495.055 1171.28 491.828 1165.87C473.143 1134.51 449.293 1101.4 417.049 1082.8C409.66 1078.54 401.583 1075.39 393.12 1074.1C390.049 1073.63 374.749 1074.07 373.439 1073.35C373.184 1073.21 372.94 1073.05 372.69 1072.9C374.608 1039.6 359.898 1012.49 346.263 983.216C337.573 965.939 327.823 947.379 322.859 928.683C325.466 920.126 330.043 912.853 335.993 906.229C341.213 900.419 347.367 894.73 351.381 888.016C358.231 876.56 355.619 849.123 355.161 835.212C354.265 806.767 353.777 778.228 353.671 749.77C352.304 742.145 352.269 733.897 351.531 726.139Z"/>
	<path fill="#002157" transform="scale(1.52947 1.52947)" d="M652.877 852.422C668.388 858.36 682.588 866.674 689.982 882.185C701.946 907.283 694.164 943.907 685.114 968.966C678.254 987.964 668.667 1003.68 655.867 1019.24C653.43 1022.21 649.983 1027.15 646.517 1028.78C645.949 1029.82 645.184 1030.74 644.419 1031.64C643.02 1033.3 640.781 1035.83 638.553 1036.03C638.977 1035.68 639.409 1035.35 639.806 1034.97C659.229 1016.6 689.114 946.754 681.084 920.372C679.375 914.755 675.8 910.284 672.333 905.662C658.889 887.735 651.597 875.646 652.877 852.422Z"/>
	<path fill="#52B0D5" transform="scale(1.52947 1.52947)" d="M351.531 726.139C384.506 767.188 434.243 819.048 489.255 825.077C511.584 827.524 537.136 824.189 556.819 812.76C574.564 804.077 602.993 784.406 617.854 771.24C626.475 767.303 641.131 751.44 648.137 744.259L648.998 745.436C650.191 744.393 651.27 743.28 652.359 742.129L653.203 741.974C654.266 745.105 653.468 750.049 653.342 753.412C653.238 753.546 653.131 753.677 653.03 753.813C648.955 759.313 646.564 768.049 643.6 774.387C637.138 788.202 630.24 802.153 622.589 815.344C593.437 865.609 557.446 912.934 520.907 958.024C507.944 974.02 489.374 997.543 473.297 1009.67C467.739 1013.86 461.171 1016.58 454.316 1017.73C428.086 1022.11 397.839 1011.78 374.877 999.713C365.118 994.587 355.926 988.468 346.263 983.216C337.573 965.939 327.823 947.379 322.859 928.683C325.466 920.126 330.043 912.853 335.993 906.229C341.213 900.419 347.367 894.73 351.381 888.016C358.231 876.56 355.619 849.123 355.161 835.212C354.265 806.767 353.777 778.228 353.671 749.77C352.304 742.145 352.269 733.897 351.531 726.139Z"/>
	<path fill="#002157" transform="scale(1.52947 1.52947)" d="M351.531 726.139C384.506 767.188 434.243 819.048 489.255 825.077C511.584 827.524 537.136 824.189 556.819 812.76C574.564 804.077 602.993 784.406 617.854 771.24C626.475 767.303 641.131 751.44 648.137 744.259L648.998 745.436C650.191 744.393 651.27 743.28 652.359 742.129C626.703 786.986 569.769 841.942 518.865 855.912C494.081 862.713 469.461 855.375 447.82 842.999C419.081 826.564 391.065 800.946 370.87 774.812C364.667 766.784 359.768 757.81 353.671 749.77C352.304 742.145 352.269 733.897 351.531 726.139Z"/>
</svg>
