<?xml version="1.0" encoding="utf-8" ?>
<svg xmlns="http://www.w3.org/2000/svg" xmlns:xlink="http://www.w3.org/1999/xlink" width="1566" height="2193">
	<path fill="#002157" transform="scale(1.52947 1.52947)" d="M0 0L855.685 0L1024 0L1024 1038.81L1024 1049.45L1024 1073.58L1024 1432.77C1023.2 1433.27 1022.41 1433.61 1021.48 1433.82C1016.87 1434.82 1010.48 1434 1005.65 1434L965.602 1434.02L871.012 1434.02C854.766 1434.02 838.419 1434.39 822.183 1433.96C820.338 1433.91 818.952 1433.77 817.335 1432.8C816.672 1433.17 816.438 1433.34 815.759 1433.57C811.259 1435.07 727.813 1434 715.985 1434L371.232 1434.02C355.186 1434.02 213.834 1435.39 208.751 1433.01C208.003 1433.37 207.445 1433.63 206.623 1433.79C201.214 1434.81 194.293 1434.01 188.693 1434.01L145.914 1434.03L53.1668 1434.02C37.0418 1434.02 20.7982 1434.42 4.68482 1433.95C2.88642 1433.9 1.55701 1433.76 0 1432.77L0 1097.13L0 0Z"/>
	<path fill="#2978A0" transform="scale(1.52947 1.52947)" d="M673.663 842.29C690.073 865.889 708.176 876.043 707.447 907.961C700.398 895.754 690.333 884.217 678.742 876.187C676.773 864.964 675.444 853.557 673.663 842.29Z"/>
	<path fill="#E8E8E8" transform="scale(1.52947 1.52947)" d="M759.784 929.141C783.525 936.55 807.048 945.527 830.36 954.198C883.149 973.833 934.848 995.016 984.711 1021.34C992.907 1025.67 1002.06 1030.35 1009.32 1036.15C1012.91 1039.03 1020.23 1047.56 1023.42 1049.18C1023.61 1049.27 1023.81 1049.36 1024 1049.45L1024 1073.58L1021.55 1073.78C1018.01 1073.2 1001.83 1061.67 997.169 1058.85C980.727 1048.91 963.732 1039.93 946.489 1031.46C887.797 1002.63 826.846 980.91 764.807 960.713C765.001 950.052 762.334 939.415 759.784 929.141Z"/>
	<path fill="#E8E8E8" transform="scale(1.52947 1.52947)" d="M732.924 489.957C740.844 488.42 750.055 487.414 757.124 492.216C762.773 496.053 765.301 503.023 766.465 509.472C770.704 532.966 756.472 560.953 752.159 584.126C749.688 597.408 749.882 611.439 746.517 624.46C745.109 629.908 742.836 635.296 739.528 639.873C733.807 647.791 724.204 652.501 714.688 653.86C710.872 654.405 698.65 655.193 695.75 652.466C695.643 652.365 695.577 652.229 695.491 652.111C700.316 626.978 697.73 599.496 700.727 574.15C702.907 555.709 710.16 537.11 716.073 519.548C719.209 510.234 723.777 494.512 732.924 489.957Z"/>
	<path fill="#A7CEE6" transform="scale(1.52947 1.52947)" d="M733.917 616.154C734.178 617.436 734.044 618.312 733.742 619.57C732.006 626.816 727.727 632.693 721.354 636.586C717.081 639.196 714.059 639.458 709.35 638.268L708.155 636.108C707.751 633.049 709 629.958 709.865 627.056C718.363 623.978 726.288 621.125 733.917 616.154Z"/>
	<path fill="#2978A0" transform="scale(1.52947 1.52947)" d="M752.587 499.441C753.798 500.551 755.083 501.699 756.02 503.056C765.053 516.141 753.815 550.372 751.301 565.388C750.254 552.75 749.215 540.536 747.029 528.009C744.905 531.636 741.739 580.178 736.707 593.198L735.76 595.715C733.983 601.56 730.2 604.941 724.956 607.732C720.295 610.213 714.689 612.389 709.614 613.895C708.98 614.512 708.711 614.657 707.925 614.987C707.662 610.445 713.544 595.03 714.201 588.388C715.521 575.05 708.87 571.197 713.544 554.266C719.574 532.426 732.481 510.766 752.587 499.441Z"/>
	<defs>
		<linearGradient id="gradient_0" gradientUnits="userSpaceOnUse" x1="726.34851" y1="580.46606" x2="720.51001" y2="612.87177">
			<stop offset="0" stop-color="#4697C6"/>
			<stop offset="1" stop-color="#81BAE0"/>
		</linearGradient>
	</defs>
	<path fill="url(#gradient_0)" transform="scale(1.52947 1.52947)" d="M723.413 578.803L731.605 580.957C733.498 585.799 733.82 591.064 735.76 595.715C733.983 601.56 730.2 604.941 724.956 607.732C720.295 610.213 714.689 612.389 709.614 613.895C714.858 600.624 720.982 594.072 723.413 578.803Z"/>
	<path fill="#549ACA" transform="scale(1.52947 1.52947)" d="M744.38 514.032L747.029 528.009C744.905 531.636 741.739 580.178 736.707 593.198C736.626 590.111 737.07 587.052 736.801 583.947C735.764 571.965 729.517 561.554 725.291 550.54C727.39 535.253 733.477 524.781 744.38 514.032Z"/>
	<path fill="#549ACA" transform="scale(1.52947 1.52947)" d="M658.533 740.213C658.564 743.238 658.52 746.273 658.894 749.28C656.928 750.406 650.778 766.11 649.283 769.195C641.811 784.623 632.813 799.134 623.445 813.468C600.245 848.964 574.155 883.069 546.661 915.335C532.84 931.556 518.139 947.029 504.321 963.255L503.644 1067.96C498.476 1066.53 432.717 997.8 422.876 988.109C425.823 1016.43 429.639 1044.64 432.478 1072.98L436.331 1110.68C436.981 1116.89 437.168 1123.55 438.533 1129.62C434.657 1129.73 424.829 1123.6 421.871 1120.84C421.422 1120.42 421.437 1120.38 421.003 1119.81C420.358 1117.51 408.844 1110.22 406.471 1108.31C396.836 1100.59 387.455 1092.4 378.581 1083.81C339.75 1046.19 313.904 994.53 313.038 939.917C321.37 933.907 330.002 928.096 337.493 921.039C341.367 931.362 344.599 942.031 348.064 952.504C351.288 962.244 354.989 972.174 357.209 982.19C357.443 963.087 355.94 943.596 355.189 924.479C353.314 876.775 350.618 829.01 350.192 781.264C375.31 812.747 404.429 850.211 439.895 870.27C445.679 873.541 451.398 876.407 457.965 877.73C466.965 879.545 505.308 878.042 514.096 875.511C541.095 867.733 616.661 792.762 636.622 769.979C644.642 760.825 652.517 750.804 658.533 740.213Z"/>
	<path fill="#00102B" transform="scale(1.52947 1.52947)" d="M1021.55 1073.78L1024 1073.58L1024 1432.77C1023.2 1433.27 1022.41 1433.61 1021.48 1433.82C1016.87 1434.82 1010.48 1434 1005.65 1434L965.602 1434.02L871.012 1434.02C854.766 1434.02 838.419 1434.39 822.183 1433.96C820.338 1433.91 818.952 1433.77 817.335 1432.8C843.912 1325.37 891.308 1222.25 960.878 1135.9C973.331 1120.44 986.687 1105.57 1000.98 1091.78C1005.74 1087.19 1019.03 1078.75 1021.55 1073.78Z"/>
	<path fill="#E8E8E8" transform="scale(1.52947 1.52947)" d="M504.321 963.255C518.139 947.029 532.84 931.556 546.661 915.335C574.155 883.069 600.245 848.964 623.445 813.468C632.813 799.134 641.811 784.623 649.283 769.195C650.778 766.11 656.928 750.406 658.894 749.28C661.442 784.391 663.983 819.588 667.566 854.61C669.057 869.178 669.692 885.58 673.725 899.621C677.012 911.07 683.085 921.521 690.557 930.717C679.132 978.976 636.759 1041.09 603.266 1076.62C597.549 1082.69 591.644 1088.71 585.346 1094.18C580.817 1098.12 574.332 1101.82 570.69 1106.45C626.499 1072.86 687.558 1001.11 703.474 937.373C705.832 927.932 707.529 917.708 707.447 907.961C708.176 876.043 690.073 865.889 673.663 842.29L673.856 840.723C677.389 839.886 688.115 847.206 691.386 849.22C723.071 868.736 747.48 899.714 756.142 936.279C768.109 986.797 753.979 1046.97 733.679 1093.54C729.808 1102.42 725.953 1111.82 720.764 1120.02C720.131 1121.02 720.456 1120.67 719.625 1121.28C717.519 1119.85 716.473 1118.03 715.172 1115.92C702.868 1100.52 687.849 1080.74 666.749 1078.44C657.132 1077.39 649.211 1080.81 641.902 1086.8C634.789 1092.64 629.064 1099.99 622 1105.86C608.365 1117.19 594.324 1128.11 580.128 1138.72C568.296 1147.57 500.64 1196.6 492.019 1196.92C484.634 1196.9 387.576 1128.53 378.947 1119.89C378.372 1119.31 378.024 1118.76 377.597 1118.08C388.03 1116.03 406.455 1120.24 415.401 1116.63C417.265 1118.11 418.664 1119.18 421.003 1119.81C421.437 1120.38 421.422 1120.42 421.871 1120.84C424.829 1123.6 434.657 1129.73 438.533 1129.62C437.168 1123.55 436.981 1116.89 436.331 1110.68L432.478 1072.98C429.639 1044.64 425.823 1016.43 422.876 988.109C432.717 997.8 498.476 1066.53 503.644 1067.96L504.321 963.255Z"/>
	<path fill="#00102B" transform="scale(1.52947 1.52947)" d="M335.433 840.41C335.902 842.21 336.381 843.772 335.476 845.531C335.33 845.814 335.119 846.06 334.941 846.324L335.647 846.498C337.642 852 335.88 867.284 336.138 874.107C336.528 883.571 335.636 914.572 337.493 921.039C330.002 928.096 321.37 933.907 313.038 939.917C313.904 994.53 339.75 1046.19 378.581 1083.81C387.455 1092.4 396.836 1100.59 406.471 1108.31C408.844 1110.22 420.358 1117.51 421.003 1119.81C418.664 1119.18 417.265 1118.11 415.401 1116.63C406.455 1120.24 388.03 1116.03 377.597 1118.08C378.024 1118.76 378.372 1119.31 378.947 1119.89C387.576 1128.53 484.634 1196.9 492.019 1196.92C500.64 1196.6 568.296 1147.57 580.128 1138.72C594.324 1128.11 608.365 1117.19 622 1105.86C629.064 1099.99 634.789 1092.64 641.902 1086.8C649.211 1080.81 657.132 1077.39 666.749 1078.44C687.849 1080.74 702.868 1100.52 715.172 1115.92C710.071 1127.18 694.682 1137.91 685.244 1145.6C631.486 1189.4 572.146 1227.66 510.754 1259.86C505.364 1262.69 499.609 1267.1 493.788 1268.86C493.025 1269.09 492.46 1269.06 491.675 1269.02C485.528 1269.07 476.094 1262.63 470.508 1259.84C425.278 1237.21 379.452 1210.37 343.26 1174.74C334.374 1165.99 323.151 1154.85 317.624 1143.59C313.239 1151 307.143 1158.06 301.586 1164.63C271.525 1200.21 232.459 1230.14 189.469 1248.26C183.843 1250.63 178.088 1253.26 172.174 1254.79C170.855 1255.13 169.624 1255.27 168.271 1255.19C170.323 1266.68 173.289 1278.13 175.761 1289.55L195.883 1378.59C199.666 1394.85 202.832 1418.03 208.751 1433.01C208.003 1433.37 207.445 1433.63 206.623 1433.79C201.214 1434.81 194.293 1434.01 188.693 1434.01L145.914 1434.03L53.1668 1434.02C37.0418 1434.02 20.7982 1434.42 4.68482 1433.95C2.88642 1433.9 1.55701 1433.76 0 1432.77L0 1097.13C1.60888 1096.3 9.85535 1080.6 12.2409 1077.37C20.8097 1065.75 33.6598 1055.61 45.7604 1047.9C81.286 1025.27 122.929 1012.53 161.465 995.958C186.762 985.079 210.833 971.622 235.978 960.367C255.916 906.765 290.136 873.707 335.433 840.41Z"/>
	<path fill="#A7CEE6" transform="scale(1.52947 1.52947)" d="M335.647 846.498C337.642 852 335.88 867.284 336.138 874.107C336.528 883.571 335.636 914.572 337.493 921.039C330.002 928.096 321.37 933.907 313.038 939.917C313.904 994.53 339.75 1046.19 378.581 1083.81C387.455 1092.4 396.836 1100.59 406.471 1108.31C408.844 1110.22 420.358 1117.51 421.003 1119.81C418.664 1119.18 417.265 1118.11 415.401 1116.63C406.455 1120.24 388.03 1116.03 377.597 1118.08C366.748 1116.49 346.509 1082.81 321.919 1080.87C303.742 1079.44 286.502 1094.48 276.277 1107.95C273.429 1111.7 270.263 1117.97 266.729 1120.81C266.543 1120.96 266.35 1121.1 266.16 1121.25C265.715 1120.94 265.537 1120.86 265.163 1120.38C260.834 1114.81 257.626 1105.6 254.874 1099.06C238.488 1060.15 231.049 1015.71 239.446 973.924C247.67 932.999 271.984 901.072 302.036 873.177C312.45 863.51 323.104 854.225 334.941 846.324L335.647 846.498Z"/>
	<path fill="#2978A0" transform="scale(1.52947 1.52947)" d="M335.647 846.498C337.642 852 335.88 867.284 336.138 874.107C313.314 894.602 297.169 919.177 295.539 950.527C295.493 951.401 295.486 952.277 295.492 953.152C293.469 944.688 293.62 933.981 294.441 925.325C297.407 894.041 312.165 873.767 335.772 854.143L335.647 846.498Z"/>
	<path fill="#00102B" transform="scale(1.52947 1.52947)" d="M295.492 953.152C295.486 952.277 295.493 951.401 295.539 950.527C297.169 919.177 313.314 894.602 336.138 874.107C336.528 883.571 335.636 914.572 337.493 921.039C330.002 928.096 321.37 933.907 313.038 939.917C313.904 994.53 339.75 1046.19 378.581 1083.81C387.455 1092.4 396.836 1100.59 406.471 1108.31C408.844 1110.22 420.358 1117.51 421.003 1119.81C418.664 1119.18 417.265 1118.11 415.401 1116.63C409.705 1115.57 380.879 1092.29 375.468 1087.74C337.53 1055.82 299.861 1003.98 295.492 953.152Z"/>
	<path fill="#2978A0" transform="scale(1.52947 1.52947)" d="M0 0L855.685 0C846.08 89.0861 825.976 176.034 796.204 260.586C786.151 289.136 774.671 317.167 763.262 345.191L762.348 345.704C761.966 379.057 748.999 427.176 740.78 460.318C738.433 469.783 736.772 481.093 732.924 489.957C723.777 494.512 719.209 510.234 716.073 519.548C710.16 537.11 702.907 555.709 700.727 574.15C697.73 599.496 700.316 626.978 695.491 652.111C694.464 651.978 693.788 651.929 692.909 651.323C692.025 650.713 691.993 647.991 691.842 646.857C688.351 677.905 681.676 706.224 662.333 731.401C661.156 732.748 659.581 734.194 658.729 735.752L641.636 753.74C639.422 757.097 636.116 760.297 633.327 763.207C616.756 780.501 577.518 815.287 556.05 824.774C538.312 832.613 517.494 835.588 498.232 835.972C479.26 836.35 459.19 833.533 441.907 825.402C415.06 812.771 341.092 744.427 326.877 717.721C322.81 710.082 319.467 702.022 316.536 693.887C313.072 684.274 309.616 663.084 302.617 656.595C302.48 656.468 302.337 656.348 302.198 656.224C301.721 661.509 304.672 668.609 305.933 673.929C311.855 698.915 316.832 726.066 332.698 747.021C332.818 770.24 334.317 793.444 334.915 816.655C335.109 824.174 336.201 832.987 335.433 840.41C290.136 873.707 255.916 906.765 235.978 960.367C210.833 971.622 186.762 985.079 161.465 995.958C122.929 1012.53 81.286 1025.27 45.7604 1047.9C33.6598 1055.61 20.8097 1065.75 12.2409 1077.37C9.85535 1080.6 1.60888 1096.3 0 1097.13L0 0Z"/>
	<path fill="#002157" transform="scale(1.52947 1.52947)" d="M255.806 630.116L255.365 630.366C252.511 624.456 249.67 608.203 246.776 600.069C241.404 584.965 233.777 570.635 228.421 555.545C224.226 543.725 223.117 531.443 228.766 519.853C231.481 514.282 236.753 507.382 242.923 505.507C245.145 504.832 246.568 504.949 248.597 506.021C241.684 508.568 236.466 512.576 233.28 519.377C228.241 530.135 229.362 542.237 233.383 553.062C237.048 562.93 241.979 572.287 245.782 582.092C248.343 588.698 249.655 596.374 252.619 602.714C254.613 611.745 255.175 620.91 255.806 630.116Z"/>
	<path fill="#00102B" transform="scale(1.52947 1.52947)" d="M462.355 71.1527C483.626 96.1014 522.662 96.7394 552.284 104.31C568.892 108.555 584.832 114.897 599.178 124.374C604.867 128.132 610.11 132.706 615.966 136.182C622.068 139.804 628.8 142.428 635.018 145.873C652.204 155.395 669.554 170.113 679.517 187.19C687.532 200.928 689.126 214.796 685.203 230.079C692.48 232.367 699.381 234.926 705.972 238.867C722.357 248.665 732.671 264.329 737.565 282.598C739.961 291.546 741.554 300.321 745.198 308.924C750.515 321.477 758.964 332.305 762.348 345.704C761.966 379.057 748.999 427.176 740.78 460.318C738.433 469.783 736.772 481.093 732.924 489.957C723.777 494.512 719.209 510.234 716.073 519.548C710.16 537.11 702.907 555.709 700.727 574.15C697.73 599.496 700.316 626.978 695.491 652.111C694.464 651.978 693.788 651.929 692.909 651.323C692.025 650.713 691.993 647.991 691.842 646.857C693.192 620.44 694.862 594.055 695.14 567.596C695.313 551.102 694.001 534.569 694.452 518.087C694.902 501.589 700.115 484.478 696.554 468.107C692.144 447.831 670.692 438.339 668.241 417.791C665.298 393.118 679.572 372.245 667.938 347.66C660.21 331.33 643.064 307 629.025 295.834C623.724 291.618 618.554 289.03 612.199 286.771C602.12 291.82 592.842 297.266 581.906 300.461C571.014 303.644 560.085 304.28 548.903 305.58C536.854 306.98 524.677 308.873 512.93 311.932C495.813 316.388 477.499 329.348 460.692 330.547C445.769 331.612 429.863 325.044 415.096 322.693C381.615 318.316 350.373 320.638 322.601 341.742C312.629 349.32 303.762 359.705 302.114 372.547C299.926 389.6 308.623 408.566 315.923 423.604C306.281 434.188 299.777 447.067 291.22 458.45C291.515 487.172 292.516 515.867 292.982 544.584C293.146 554.635 294.488 565.765 293.694 575.694C293.526 577.793 293.101 578.464 291.701 579.967L290.266 579.992C285.668 575.082 282.056 551.451 278.919 543.073C273.983 529.896 266.808 518.776 257.18 508.546C249.208 497.971 246.456 484.655 242.82 472.125C230.802 430.72 221.663 388.849 220.88 345.561C212.4 353.479 205.906 361.428 200.119 371.471C200.069 333.565 207.487 313.697 227.479 281.858C212.465 287.912 202.153 294.501 192.333 307.545C192.831 305.15 193.347 302.758 193.916 300.379C201.242 269.772 215.284 249.776 242.533 233.138C223.449 228.434 207.959 218.696 196.22 202.787C199.904 204.122 203.589 205.255 207.438 206.018C233.461 211.171 253.325 195.553 273.707 182.059C261.293 181.673 249.559 180.561 237.48 177.589C266.356 175.118 292.027 161.491 314.714 144.068C325.946 135.441 336.679 126.131 348.455 118.233C364.993 107.141 381.596 99.479 400.74 94.066C388.571 93.5366 377.481 94.1685 365.653 97.274L366.15 96.9555C366.428 96.781 366.709 96.6121 366.986 96.436C376.69 90.2662 389.219 86.2622 400.548 84.4374C426.985 80.1792 453.715 87.4929 475.196 103.087C468.408 92.7705 464.184 83.4839 462.355 71.1527Z"/>
	<path fill="#3E526A" transform="scale(1.52947 1.52947)" d="M626.347 149.549C626.511 149.643 626.681 149.726 626.838 149.831C639.08 158.001 651.051 188.361 653.406 202.579C657.147 225.162 649.786 245.701 636.795 263.927C634.789 266.612 632.52 269.098 630.316 271.622C634.899 263.157 638.784 254.737 641.313 245.412C648.056 220.536 645.807 191.47 635.919 167.702C633.293 161.39 629.733 155.473 626.347 149.549Z"/>
	<path fill="#3E526A" transform="scale(1.52947 1.52947)" d="M626.4 144.088C626.672 144.188 626.948 144.274 627.214 144.387C643.151 151.165 662.602 178.41 668.709 194.223C676.61 214.683 673.182 231.674 664.694 251.128C663.7 253.179 662.499 255.144 661.367 257.123C663.461 248.464 665.166 239.879 665.169 230.917C665.177 197.674 649.357 167.28 626.4 144.088Z"/>
	<path fill="#3E526A" transform="scale(1.52947 1.52947)" d="M286.245 224.992C295.33 223.965 305.445 225.497 314.34 227.561C340.747 233.689 362.826 247.633 377.375 270.867C357.974 252.709 332.206 242.315 306.239 238.023C305.093 237.882 303.948 237.794 302.798 237.7C304.716 240.294 311.863 242.277 314.893 244.116C327.908 252.012 338.117 262.669 346.222 275.479C322.319 255.929 293.314 240.149 262.64 235.011C269.757 229.263 277.246 226.208 286.245 224.992Z"/>
	<path fill="#3E526A" transform="scale(1.52947 1.52947)" d="M687.414 252.596C695.22 257.851 702.833 265.344 708.878 272.569C718.125 283.623 721.064 297.054 728.308 309.17C733.586 317.997 742.28 325.047 745.929 334.833C748.228 341.001 747.553 347.205 746.988 353.598C736.829 345.556 727.743 336.185 717.482 328.164C727.589 341.648 736.538 360.308 741.66 376.352C711.889 361.303 685.528 343.847 669.771 313.239C665.131 304.3 662.879 294.045 662.36 284.061C667.811 297.363 676.047 310.445 687.612 319.285C679.314 307.964 673.734 295.356 669.73 281.96C678.754 297.238 689.816 308.398 702.339 320.76C699.633 312.701 696.171 304.858 693.278 296.856C690.004 287.802 687.305 278.521 684.512 269.31L715.02 311.197C711.473 302.753 706.727 294.673 702.538 286.525C696.865 275.49 691.731 264.231 687.414 252.596Z"/>
	<path fill="#3E526A" transform="scale(1.52947 1.52947)" d="M383.551 174.644C399.738 172.291 419.994 176.652 434.624 183.385C461.104 195.574 483.119 218.535 493.252 245.946C502.007 269.632 498.769 290.288 488.431 312.648C486.627 288.53 481.176 267.527 467.543 247.232C448.102 218.292 417.842 202.185 384.16 195.582L383.697 195.859C402.436 204.679 412.268 207.19 427.87 222.553C443.548 237.989 454.605 258.214 454.739 280.597C447.276 256.188 432.161 237.808 410.925 223.902C381.483 204.621 342.883 196.975 308.378 204.074C330.518 186.23 355.213 176.732 383.551 174.644Z"/>
	<path fill="#3E526A" transform="scale(1.52947 1.52947)" d="M514.355 115.638C522.203 116.619 529.923 117.922 537.617 119.772C568.021 127.083 597.597 141.656 614.268 169.319C627.251 190.863 629.014 216.427 622.974 240.451C619.738 215.463 611.659 195.063 596.739 174.667C609.207 206.625 606.394 228.155 595.41 259.49C595.676 250.537 595.904 241.51 595.213 232.57C592.972 203.567 579.566 182.972 558.026 164.465C565.173 175.335 575.497 192.469 575.379 205.621C574.226 203.201 573.037 200.759 571.683 198.445C556.892 173.171 530.907 156.003 502.933 148.644C521.184 158.342 535.285 168.666 546.844 186.271C559.115 206.357 562.423 228.57 561.326 251.72C552.15 218.432 536.738 192.421 510.069 169.986C529.5 198.337 534.232 217.558 532.605 251.884C527.767 229.146 521.099 208.466 507.276 189.485C481.951 154.712 445.583 136.91 403.945 130.326C446.816 122.47 490.306 126.886 531.216 141.664C541.198 145.27 550.856 149.005 560.134 154.198C547.432 136.738 532.847 126.3 514.355 115.638Z"/>
	<path fill="#E8E8E8" transform="scale(1.52947 1.52947)" d="M612.199 286.771C618.554 289.03 623.724 291.618 629.025 295.834C643.064 307 660.21 331.33 667.938 347.66C679.572 372.245 665.298 393.118 668.241 417.791C670.692 438.339 692.144 447.831 696.554 468.107C700.115 484.478 694.902 501.589 694.452 518.087C694.001 534.569 695.313 551.102 695.14 567.596C694.862 594.055 693.192 620.44 691.842 646.857C688.351 677.905 681.676 706.224 662.333 731.401C661.156 732.748 659.581 734.194 658.729 735.752L641.636 753.74C639.422 757.097 636.116 760.297 633.327 763.207C616.756 780.501 577.518 815.287 556.05 824.774C538.312 832.613 517.494 835.588 498.232 835.972C479.26 836.35 459.19 833.533 441.907 825.402C415.06 812.771 341.092 744.427 326.877 717.721C322.81 710.082 319.467 702.022 316.536 693.887C313.072 684.274 309.616 663.084 302.617 656.595C302.48 656.468 302.337 656.348 302.198 656.224L301.188 656.068C300.857 656.802 300.504 657.528 300.142 658.248C298.639 661.238 296.705 663.756 293.322 664.712C288.076 666.194 282.023 665.006 277.316 662.439C265.039 655.744 259.44 642.835 255.806 630.116C255.175 620.91 254.613 611.745 252.619 602.714C249.655 596.374 248.343 588.698 245.782 582.092C241.979 572.287 237.048 562.93 233.383 553.062C229.362 542.237 228.241 530.135 233.28 519.377C236.466 512.576 241.684 508.568 248.597 506.021C251.462 506.807 254.4 507.493 257.18 508.546C266.808 518.776 273.983 529.896 278.919 543.073C282.056 551.451 285.668 575.082 290.266 579.992L291.701 579.967C293.101 578.464 293.526 577.793 293.694 575.694C294.488 565.765 293.146 554.635 292.982 544.584C292.516 515.867 291.515 487.172 291.22 458.45C299.777 447.067 306.281 434.188 315.923 423.604C308.623 408.566 299.926 389.6 302.114 372.547C303.762 359.705 312.629 349.32 322.601 341.742C350.373 320.638 381.615 318.316 415.096 322.693C429.863 325.044 445.769 331.612 460.692 330.547C477.499 329.348 495.813 316.388 512.93 311.932C524.677 308.873 536.854 306.98 548.903 305.58C560.085 304.28 571.014 303.644 581.906 300.461C592.842 297.266 602.12 291.82 612.199 286.771Z"/>
	<path fill="#002157" transform="scale(1.52947 1.52947)" d="M569.171 487.636C569.17 489.857 569.32 491.866 568.372 493.93C562.164 495.169 547.086 512.786 542.071 517.809C547.007 509.174 551.804 500.209 559.493 493.685C562.5 492.685 566.328 489.354 569.171 487.636Z"/>
	<path fill="#549ACA" transform="scale(1.52947 1.52947)" d="M555.667 526.449C560.773 526.977 566.451 529.421 571.393 530.926C586.213 535.438 599.295 536.503 614.625 534.545L613.99 535.122C610.481 536.156 606.954 537.025 603.361 537.718C585.307 541.201 570.667 536.597 555.667 526.449Z"/>
	<path fill="#002157" transform="scale(1.52947 1.52947)" d="M603.287 481.802C617.829 485.645 627.92 494.337 635.51 507.25C636.082 508.224 636.566 509.179 636.993 510.224C637.299 511.575 637.53 512.936 637.773 514.299L636.922 515.345L637.402 515.584L637.33 515.595C635.267 513.985 634.276 511.473 633.093 509.192C628.379 512.894 623.344 515.647 617.966 518.223C621.862 514.84 625.303 511.914 627.773 507.307C622.133 500.698 617.222 496.706 609.31 492.992L609.771 491.437C608.339 488.432 603.028 485.266 600.353 483.194L603.287 481.802Z"/>
	<path fill="#2978A0" transform="scale(1.52947 1.52947)" d="M578.129 503.919C580.25 506.363 582.695 509.8 586.203 510.08C595.386 510.813 594.351 499.072 606.819 507.83L607.291 508.167L607.102 508.648C606.718 509.608 606.347 510.574 605.951 511.529C603.946 516.359 600.442 519.847 595.552 521.768C590.226 523.861 583.706 523.567 578.532 521.171C572.933 518.579 569.663 513.915 567.598 508.265C571.141 506.887 574.636 505.421 578.129 503.919Z"/>
	<path fill="#549ACA" transform="scale(1.52947 1.52947)" d="M570.774 611.193C572.776 612.055 574.774 613.882 576.594 615.158C581.44 618.554 586.334 622.235 591.534 625.075C600.177 629.796 609.813 633.479 617.743 639.356C621.189 641.91 624.247 644.987 626.179 648.857C631.682 659.881 626.623 673.523 622.912 684.311C622.281 685.678 621.603 687.027 620.947 688.382C621.334 684.183 621.748 679.977 622.004 675.768C622.356 669.972 622.132 662.529 619.411 657.259C613.972 646.727 597.42 636.96 588.317 628.943C582.021 623.397 576.319 617.483 570.774 611.193Z"/>
	<path fill="#00102B" transform="scale(1.52947 1.52947)" d="M569.171 487.636C569.732 487.353 570.293 487.072 570.861 486.804C579.566 482.698 590.99 479.84 600.353 483.194C603.028 485.266 608.339 488.432 609.771 491.437L609.31 492.992L607.599 493.501C607.923 498.612 608.487 503.108 607.291 508.167L606.819 507.83C594.351 499.072 595.386 510.813 586.203 510.08C582.695 509.8 580.25 506.363 578.129 503.919C574.636 505.421 571.141 506.887 567.598 508.265C566.271 502.918 566.466 499.098 568.372 493.93C569.32 491.866 569.17 489.857 569.171 487.636Z"/>
	<path fill="#E8E8E8" transform="scale(1.52947 1.52947)" d="M594.44 490.775C596.648 490.735 599.089 490.65 600.983 491.992C602.694 493.205 602.801 494.066 603.127 495.979C602.506 498.269 601.514 499.311 599.785 500.889C597.551 500.893 595.015 501.077 593.22 499.495C591.932 498.36 591.244 497.211 591.319 495.451C591.406 493.394 593.034 492.058 594.44 490.775Z"/>
	<path fill="#549ACA" transform="scale(1.52947 1.52947)" d="M435.22 696.195C438.452 696.793 443.874 697.056 446.635 698.625C451.314 702.185 457.421 704.452 462.723 706.959C483.52 716.798 496.612 721.297 519.885 718.189C531.714 716.61 544.962 713.424 554.314 705.778C547.859 715.215 537.523 731.21 526.51 735.322C516.478 738.632 506.501 740.687 495.876 739.915C468.055 737.895 451.921 715.677 435.22 696.195Z"/>
	<path fill="#002157" transform="scale(1.52947 1.52947)" d="M563.882 685.338C572.887 685.094 580.854 681.545 587.661 675.895C589.316 674.522 591.459 672.231 593.547 671.708C596.332 671.01 598.671 672.818 600.561 674.633C602.534 676.528 604.038 678.809 605.531 681.083L596.735 677.413C590.978 681.432 585.283 684.881 578.734 687.533C559.209 695.44 521.619 702.685 500.231 702.958C482.479 703.184 464.207 700.79 446.635 698.625C443.874 697.056 438.452 696.793 435.22 696.195C431.69 695.246 428.338 694.79 424.706 694.405C422.279 694.147 420.521 694.142 418.936 692.175C419.22 690.305 419.575 689.361 421.126 688.198C425.783 684.704 434.199 687.838 439.736 688.688L443.413 686.109C456.501 685.067 470.358 680.778 483.346 681.308C491.151 681.627 498.312 685.898 506.294 685.731C513.52 685.58 520.246 682.281 527.366 681.529C538.604 680.342 552.62 683.807 563.882 685.338Z"/>
	<path fill="#2978A0" transform="scale(1.52947 1.52947)" d="M443.413 686.109C456.501 685.067 470.358 680.778 483.346 681.308C491.151 681.627 498.312 685.898 506.294 685.731C513.52 685.58 520.246 682.281 527.366 681.529C538.604 680.342 552.62 683.807 563.882 685.338C546.302 688.415 516.866 695.35 499.982 694.561C490.932 694.138 482.223 690.928 473.181 690.393C462.501 689.76 450.15 690.993 439.736 688.688L443.413 686.109Z"/>
	<path fill="#002157" transform="scale(1.52947 1.52947)" d="M532.052 453.666C550.439 447.759 604.28 435.445 622.755 437.05C626.171 437.346 629.6 438.719 632.623 440.276C647.907 448.147 662.525 465.844 668.509 482.13C666.9 481.669 665.303 480.337 663.867 479.449C655.563 474.316 645.939 468.729 636.413 466.378C609.171 459.652 560.757 469.473 533.369 476.004C531.224 470.878 530.045 466.544 530.133 460.962C530.717 458.52 531.226 456.038 532.052 453.666Z"/>
	<defs>
		<linearGradient id="gradient_1" gradientUnits="userSpaceOnUse" x1="516.63788" y1="499.24847" x2="665.71069" y2="476.1644">
			<stop offset="0" stop-color="#4488B7"/>
			<stop offset="1" stop-color="#82B7D9"/>
		</linearGradient>
	</defs>
	<path fill="url(#gradient_1)" transform="scale(1.52947 1.52947)" d="M530.133 460.962C530.045 466.544 531.224 470.878 533.369 476.004C560.757 469.473 609.171 459.652 636.413 466.378C645.939 468.729 655.563 474.316 663.867 479.449C665.303 480.337 666.9 481.669 668.509 482.13C669.556 487.66 661.353 497.636 658.189 502.279C656.3 505.052 652.514 511.339 649.029 511.889C645.459 512.453 639.98 508.032 637.302 509.675L636.993 510.224C636.566 509.179 636.082 508.224 635.51 507.25C627.92 494.337 617.829 485.645 603.287 481.802L600.353 483.194C590.99 479.84 579.566 482.698 570.861 486.804C570.293 487.072 569.732 487.353 569.171 487.636C566.328 489.354 562.5 492.685 559.493 493.685L558.069 492.776C553.015 495.29 549.036 500.133 545.222 504.209C542.778 509.539 534.532 516.967 530.709 522.529C526.114 519.607 522.644 516.325 519.937 511.557C513.773 500.695 513.229 483.907 520.842 473.521C523.691 469.634 528.796 466.277 530.025 461.456C530.066 461.292 530.097 461.126 530.133 460.962Z"/>
	<path fill="#2978A0" transform="scale(1.52947 1.52947)" d="M545.222 504.209C544.362 503.833 544.049 503.627 543.379 503.026C544.891 496.815 553.681 489.296 558.759 485.81C570.325 477.868 587.861 474.302 601.719 476.963C615.521 479.612 627.201 487.051 635.11 498.67L634.618 498.67L634.824 498.2L635.212 499.011C632.809 497.602 630.444 494.472 628.294 492.577C619.779 485.075 611.053 480.685 599.752 479.519C598.493 479.389 597.078 479.094 596.068 479.898L603.287 481.802L600.353 483.194C590.99 479.84 579.566 482.698 570.861 486.804C570.293 487.072 569.732 487.353 569.171 487.636C566.328 489.354 562.5 492.685 559.493 493.685L558.069 492.776C553.015 495.29 549.036 500.133 545.222 504.209Z"/>
	<defs>
		<linearGradient id="gradient_2" gradientUnits="userSpaceOnUse" x1="554.94611" y1="398.14847" x2="355.4054" y2="778.52216">
			<stop offset="0" stop-color="#5291BF"/>
			<stop offset="1" stop-color="#99CAE6"/>
		</linearGradient>
	</defs>
	<path fill="url(#gradient_2)" transform="scale(1.52947 1.52947)" d="M315.923 423.604C308.623 408.566 299.926 389.6 302.114 372.547C303.762 359.705 312.629 349.32 322.601 341.742C350.373 320.638 381.615 318.316 415.096 322.693C410.107 337.383 404.23 351.771 398.339 366.118C392.483 380.382 387.02 394.608 378.728 407.689C374.524 414.32 369.522 420.635 364.465 426.638C359.661 432.34 341.703 449.982 340.057 454.837C344.593 451.635 349.07 448.206 354.482 446.641C371.59 441.694 411.518 446.827 429.814 449.962C433.796 450.644 437.762 451.389 441.641 452.532C442.669 455.466 444.022 458.553 444.671 461.579C450.068 471.61 460.857 478.216 467.581 489.837C485.395 520.626 481.689 541.679 478.592 575.621C477.903 583.168 476.649 591.088 477.06 598.648C477.47 606.17 482.381 609.852 489.207 611.873C495.582 613.76 502.989 614.378 509.611 613.999C525.552 613.088 542.128 607.492 551.687 624.494C555.662 618.702 558.057 613.711 556.808 606.524C556.139 602.679 554.291 599.502 552.041 596.358C553.486 596.435 555.374 598.106 556.334 599.188C559.174 602.386 560.398 607.599 560.019 611.805C559.3 619.781 553.701 626.754 547.742 631.672C547.031 632.259 546.301 632.787 545.525 633.282C538.107 639.076 531.121 643.127 522.132 646.071C518.505 653.435 512.672 669.709 504.578 672.461C502.053 673.32 498.964 672.989 496.64 671.689C494.076 670.255 492.924 667.697 492.261 664.959C491.269 660.86 491.768 655.751 491.92 651.542C479.534 657.414 442.393 673.507 436.387 684.691L436.367 686.02C438.723 686.111 441.057 686.137 443.413 686.109L439.736 688.688C434.199 687.838 425.783 684.704 421.126 688.198C419.575 689.361 419.22 690.305 418.936 692.175C420.521 694.142 422.279 694.147 424.706 694.405C428.338 694.79 431.69 695.246 435.22 696.195C451.921 715.677 468.055 737.895 495.876 739.915C506.501 740.687 516.478 738.632 526.51 735.322C529.41 740.736 532.207 746.172 534.87 751.706C524.817 752.278 499.689 752.178 491.674 755.368C485.053 758.004 477.984 765.02 473.208 770.324C468.845 775.17 464.152 781.81 464.369 788.643C464.528 793.671 467.341 797.823 471.032 801.006C486.355 814.22 514.453 818.189 534.233 816.489C557.723 814.469 575.073 802.415 593.644 789.073C602.352 782.817 611.074 776.56 619.493 769.915C626.146 764.665 633.815 757.105 641.636 753.74C639.422 757.097 636.116 760.297 633.327 763.207C616.756 780.501 577.518 815.287 556.05 824.774C538.312 832.613 517.494 835.588 498.232 835.972C479.26 836.35 459.19 833.533 441.907 825.402C415.06 812.771 341.092 744.427 326.877 717.721C322.81 710.082 319.467 702.022 316.536 693.887C313.072 684.274 309.616 663.084 302.617 656.595C302.48 656.468 302.337 656.348 302.198 656.224L301.188 656.068C300.857 656.802 300.504 657.528 300.142 658.248C298.639 661.238 296.705 663.756 293.322 664.712C288.076 666.194 282.023 665.006 277.316 662.439C265.039 655.744 259.44 642.835 255.806 630.116C255.175 620.91 254.613 611.745 252.619 602.714C249.655 596.374 248.343 588.698 245.782 582.092C241.979 572.287 237.048 562.93 233.383 553.062C229.362 542.237 228.241 530.135 233.28 519.377C236.466 512.576 241.684 508.568 248.597 506.021C251.462 506.807 254.4 507.493 257.18 508.546C266.808 518.776 273.983 529.896 278.919 543.073C282.056 551.451 285.668 575.082 290.266 579.992L291.701 579.967C293.101 578.464 293.526 577.793 293.694 575.694C294.488 565.765 293.146 554.635 292.982 544.584C292.516 515.867 291.515 487.172 291.22 458.45C299.777 447.067 306.281 434.188 315.923 423.604Z"/>
	<path fill="#2978A0" transform="scale(1.52947 1.52947)" d="M458.565 637.473C454.487 636.257 450.386 634.37 447.031 631.73C443.262 628.763 440.445 624.709 439.888 619.848C439.264 614.406 440.396 608.431 443.867 604.119L444.412 604.278C443.689 607.961 442.237 612.711 442.807 616.481C443.893 623.655 448.157 627.348 453.735 631.454C455.575 633.408 457.884 634.878 458.565 637.473Z"/>
	<path fill="#002157" transform="scale(1.52947 1.52947)" d="M417.333 492.266C419.787 493.463 422.294 494.92 424.926 495.659C432.488 502.749 438.496 510.546 444.226 519.173C440.521 517.29 437.652 514.829 434.531 512.114C429.76 507.726 422.982 499.931 416.843 498.02C416.961 497.844 417.102 497.682 417.197 497.493C418.104 495.686 417.718 494.154 417.333 492.266Z"/>
	<path fill="#002157" transform="scale(1.52947 1.52947)" d="M512.352 633.268C513.244 632.057 514.143 630.851 515.099 629.69C519.463 624.39 524.887 621.904 531.652 621.334C535.432 621.015 539.757 620.747 542.814 623.331C543.346 625.194 543.065 625.203 542.183 626.832C533.717 632.114 522.295 634.89 512.352 633.268Z"/>
	<path fill="#002157" transform="scale(1.52947 1.52947)" d="M458.306 623.097C465.955 620.23 473.613 619.828 481.201 623.377C485.314 625.3 489.068 628.608 490.519 633.013C490.573 633.178 490.609 633.349 490.654 633.517C485.207 633.954 479.672 633.16 474.34 632.05C467.829 630.696 462.102 628.803 458.306 623.097Z"/>
	<path fill="#E8E8E8" transform="scale(1.52947 1.52947)" d="M252.619 602.714C257.819 606.871 259.354 612.44 260.043 618.801C260.459 622.642 260.428 626.815 261.564 630.515C264.055 638.632 274.153 650.698 280.793 656.052C283.236 658.023 285.302 658.957 288.501 658.683C292.952 658.302 296.52 655.527 301.188 656.068C300.857 656.802 300.504 657.528 300.142 658.248C298.639 661.238 296.705 663.756 293.322 664.712C288.076 666.194 282.023 665.006 277.316 662.439C265.039 655.744 259.44 642.835 255.806 630.116C255.175 620.91 254.613 611.745 252.619 602.714Z"/>
	<path fill="#2978A0" transform="scale(1.52947 1.52947)" d="M337.346 515.057C345.777 498.83 359.056 486.579 376.649 481.091C391.888 476.337 406.145 477.072 420.304 484.526C435.106 492.319 445.504 502.857 451.989 518.243L451.449 517.747C439.689 506.806 434.653 497.061 419.152 489.157C421.041 491.222 423.333 493.369 424.926 495.659C422.294 494.92 419.787 493.463 417.333 492.266L401.697 486.654L401.443 485.076C391.965 481.959 378.365 485.484 369.784 489.745C357.57 495.811 347.239 505.838 337.346 515.057Z"/>
	<path fill="#549ACA" transform="scale(1.52947 1.52947)" d="M551.687 624.494C555.662 618.702 558.057 613.711 556.808 606.524C556.139 602.679 554.291 599.502 552.041 596.358C553.486 596.435 555.374 598.106 556.334 599.188C559.174 602.386 560.398 607.599 560.019 611.805C559.3 619.781 553.701 626.754 547.742 631.672C547.031 632.259 546.301 632.787 545.525 633.282C545.354 633.325 545.182 633.365 545.012 633.41C540.881 634.496 536.967 636.482 532.956 637.965C510.599 646.232 500.517 649.654 476.485 642.9C470.745 641.287 463.801 640.304 458.565 637.473C457.884 634.878 455.575 633.408 453.735 631.454C454.006 630.787 454.295 630.121 454.549 629.448C455.568 626.744 456.209 625.221 458.306 623.097C462.102 628.803 467.829 630.696 474.34 632.05C479.672 633.16 485.207 633.954 490.654 633.517C491.594 635.28 492.408 635.661 494.346 636.29C500.167 638.18 507.131 635.767 512.352 633.268C522.295 634.89 533.717 632.114 542.183 626.832L542.289 628.538C543.038 629.188 542.906 629.316 544.012 629.298C546.901 629.25 549.741 626.423 551.687 624.494Z"/>
	<path fill="#002157" transform="scale(1.52947 1.52947)" d="M241.547 523.54C245.759 523.567 249.519 525.607 252.975 527.852C265.334 535.881 280.55 553.654 283.488 568.175C284.849 574.9 283.927 582.027 284.948 588.876C286.658 600.339 289.395 611.747 291.78 623.088C286.737 620.647 281.656 617.484 277.667 613.52C271.404 607.298 269.672 600.696 269.561 592.091C270.665 583.352 272.842 575.379 275.605 567.031C271.869 561.859 267.436 558.183 262.425 554.335C261.836 562.029 259.438 569.787 257.995 577.371C256.787 583.715 256.506 590.043 256.337 596.483C253.989 588.646 251.645 580.772 248.96 573.044C244.727 560.866 237.075 546.292 237.258 533.354C237.318 529.102 238.555 526.48 241.547 523.54Z"/>
	<path fill="#E8E8E8" transform="scale(1.52947 1.52947)" d="M379.068 488.925C386.695 486.328 393.73 486.105 401.697 486.654L417.333 492.266C417.718 494.154 418.104 495.686 417.197 497.493C417.102 497.682 416.961 497.844 416.843 498.02C422.982 499.931 429.76 507.726 434.531 512.114C434.303 517.481 433.646 522.321 431.693 527.35C404.114 536.006 376.6 529.816 350.212 520.558L348.818 520.559C348.39 519.076 348.673 518.851 349.351 517.443C355.61 504.452 365.279 493.674 379.068 488.925Z"/>
	<path fill="#2978A0" transform="scale(1.52947 1.52947)" d="M387.419 507.961C388.915 509.771 390.508 511.678 392.495 512.971C394.468 514.255 396.894 514.941 399.222 514.378C403.038 513.455 404.862 510.364 406.805 507.288C410.611 508.201 414.595 508.57 418.475 509.088C416.221 516.47 413.48 522.047 406.421 525.866C401.473 528.544 395.353 529.315 389.951 527.663C385.108 526.183 381.02 522.596 378.707 518.115C377.469 515.717 376.716 512.73 376.082 510.11L387.419 507.961Z"/>
	<path fill="#00102B" transform="scale(1.52947 1.52947)" d="M379.068 488.925C386.695 486.328 393.73 486.105 401.697 486.654L417.333 492.266C417.718 494.154 418.104 495.686 417.197 497.493C417.102 497.682 416.961 497.844 416.843 498.02C417.519 501.661 418.391 505.38 418.475 509.088C414.595 508.57 410.611 508.201 406.805 507.288C404.862 510.364 403.038 513.455 399.222 514.378C396.894 514.941 394.468 514.255 392.495 512.971C390.508 511.678 388.915 509.771 387.419 507.961L376.082 510.11C376.103 506.189 376.329 502.656 377.187 498.825C368.029 500.979 357.224 514.106 350.212 520.558L348.818 520.559C348.39 519.076 348.673 518.851 349.351 517.443C355.61 504.452 365.279 493.674 379.068 488.925Z"/>
	<path fill="#E8E8E8" transform="scale(1.52947 1.52947)" d="M402.814 495.623C404.794 495.508 407.014 495.299 408.645 496.675C409.713 497.576 410.188 498.568 410.307 499.948C410.519 502.393 409.049 504.005 407.556 505.75C405.582 505.827 403.372 506.002 401.76 504.623C400.527 503.569 399.957 502.304 399.97 500.689C399.987 498.52 401.419 497.103 402.814 495.623Z"/>
	<path fill="#002157" transform="scale(1.52947 1.52947)" d="M340.057 454.837C344.593 451.635 349.07 448.206 354.482 446.641C371.59 441.694 411.518 446.827 429.814 449.962C433.796 450.644 437.762 451.389 441.641 452.532C442.669 455.466 444.022 458.553 444.671 461.579C443.788 465.485 442.398 469.404 439.464 472.272C437.077 474.607 433.904 475.529 430.668 475.914C423.009 476.824 414.641 475.316 406.991 474.556C394.055 473.271 380.824 471.726 367.822 471.479C342.991 471.006 324.43 489.916 307.776 505.943C313.081 491.987 320.375 477.812 329.773 466.14C332.96 462.182 336.692 458.647 340.057 454.837Z"/>
	<path fill="#E8E8E8" transform="scale(1.52947 1.52947)" d="M436.438 531.293C437.94 531.633 438.626 532.435 439.539 533.623C447.617 544.134 450.706 570.712 448.609 583.561C447.499 590.364 444.507 596.582 440.789 602.33C425.928 625.3 407.793 628.52 388.317 643.071L387.683 643.552C381.23 681.09 409.494 731.797 429.879 761.853C421.248 753.62 413.515 744.193 405.998 734.949C403.657 731.687 401.362 728.395 399.193 725.014C391.716 713.363 385.056 701.279 379.601 688.548C371.632 669.949 368.737 650.931 361.848 632.364C356.534 618.039 324.787 562.551 328.167 550.951C328.455 549.96 328.743 549.831 329.511 549.18C339.91 540.353 363.652 545.378 376.486 546.064C383.929 546.461 392.032 546.517 399.396 545.37C412.979 543.254 424.401 537.595 436.438 531.293Z"/>
</svg>
