<?xml version="1.0" encoding="utf-8"?>
<!-- Generator: Adobe Illustrator 26.0.3, SVG Export Plug-In . SVG Version: 6.00 Build 0)  -->
<svg version="1.1" id="Layer_1" xmlns="http://www.w3.org/2000/svg" xmlns:xlink="http://www.w3.org/1999/xlink" x="0px" y="0px"
	 viewBox="0 0 1069.4 460.7" style="enable-background:new 0 0 1069.4 460.7;" xml:space="preserve">
<style type="text/css">
	.st0{fill:#1C344C;}
	.st1{fill:#E66237;}
</style>
<path class="st0" d="M98.9,128c16.7,0,33.5-0.3,50.2,0c0,6.2-0.1,12.5,0,18.7h-30.5v23.8h26.9v19.1c-9,0.1-18-0.1-26.9,0v18.5v7.1
	c10-0.7,20.5,0,30.5,0c1,6.5,0.8,12,0,18.5c-16.7,0-33.5-0.2-50.2,0V128z"/>
<path class="st0" d="M486.3,128c16.7,0,33.5-0.3,50.2,0c0,6.2-0.1,12.5,0,18.7H506v23.8h26.9v19.1c-9,0.1-18-0.1-26.9,0v18.5v7.1
	c10-0.7,20.5,0,30.5,0c1,6.5,0.8,12,0,18.5c-16.7,0-33.5-0.2-50.2,0V128z"/>
<path class="st0" d="M891.7,125.4c4.8-0.3,9.6-0.3,14.4,0v18.7h-32.3c-0.1,8.3-0.1,16.5,0,24.8h26.2v18.1c-8.5,1-17.6,0-26.2,0v25.5
	h32.3l0.6,0.5c0,6-0.6,12-0.6,18c-17.4-0.3-34.9,0.5-52.3,0V125.4H891.7z"/>
<path class="st0" d="M946.5,124.1c26.4-5,35.7,15.7,35.9,38h-18.5c-0.4-13.1-5.2-23.9-19.8-17.9c-9.9,9.1-6.8,59-3.1,64.2
	c3.9,5.6,12.9,6.3,18,2.2c4.4-3.5,4.5-11.4,5-16.6h18.5c3.3,48-56.2,48.7-63,13c-1.5-7.7-1.4-49.3,0-57
	C922.1,135.3,931.8,126.7,946.5,124.1z"/>
<path class="st0" d="M720.5,124.1c26.4-2.6,34.5,15,34.7,38c-6.5,0.7-12.9,0.4-19.5,0c0.8-14.5-8.1-28-20.1-16.6
	c-5.3,5.1-5.8,59.8-0.1,65.5c3.7,3.7,14.4,3.5,17.7-0.6c3.8-4.7,2.5-13.3,2-18.9l0.5-0.7h19.5c0.5,9.8,0.6,20.6-5.3,29
	c-9.8,14.1-32.6,16.9-46.2,6.9c-15.5-11.5-11.4-32.6-11.5-49.3C692.1,151.7,688.1,128.1,720.5,124.1z"/>
<path class="st0" d="M440.3,123.9l0.7,0c23.6-1.5,35.5,11,36.7,33.9h-19.8c-0.9-12.8-4.8-16.4-17.6-16c-11,6.5-7.4,23.5-7.4,34.3
	c0,10.8-1.7,23.2,2,33.5c16.6,13.2,24.5-2.1,23.1-18.9c-3.6,0.4-7,0.2-10.7,0c0-3.1-1.1-13,0.8-15.3l1.6-0.1h28.1
	c0.1,13,2.4,32.6-4.8,43.7c-13.6,21.1-54.2,16.6-58.9-9.5c-1.8-9.9-0.5-21.3-0.6-31.4C413.3,152,407.8,128.6,440.3,123.9z"/>
<path class="st0" d="M996.7,125.4c6.7-0.2,13.3-0.1,20,0c-0.6,14-0.3,28.5,0,42.5c8.8-14.2,19-28,27.1-42.5c8.6,0.4,17.1,0.5,25.7,0
	c-11.9,13.9-22.8,29.6-32.8,44.9c7.6,14.1,15.6,28,23,42.3c3.3,6.1,7.1,12.2,9.8,18.5c-7.6,0.3-15.2,0-22.8,0
	c-8.8-14.5-16.4-30.2-23.7-45.4l-6.3,8.2v37.1c-6.6,0.4-13.4,0.2-20,0l0-70.4C996.7,149,996.1,137.1,996.7,125.4z"/>
<path class="st0" d="M771.7,125.4h20.3c0.2,14.5,0,29,0,43.6c7.8,0.3,15.6,0.5,23.4,0v-43.6h19.6v104.9l-0.3,0.7
	c-3.2,1.2-15.2,0.2-19.3,0.1c-0.2-14.4,0-28.8,0-43.2h-23.4c-0.2,14.4,0.1,28.8,0,43.2h-20.3V125.4z"/>
<path class="st1" d="M612,258.5c19.6-2.6,39.1,6.3,40.2,27.9c1.3,26-18.3,33.4-33.6,50.1c11.2,0.2,22.5,0,33.7,0
	c-0.1,7.1,0,14.3,0,21.5h-63.6c-4-0.1-8,0-12,0c-1.3-16.4,2.2-15.7,13.8-26.2c9-8.1,35.9-28.4,35.2-41.7c-0.3-6.6-5.9-10.5-12.2-9.6
	c-7.7,1.2-13.1,9.7-17.3,15.6c-6.2-5.7-12.7-10.6-19.5-15.5C584.3,268.5,597.6,259.4,612,258.5z"/>
<path class="st1" d="M702.4,258.5h25.8V317h6.6c0,7,0.2,14,0,21.1h-6.6c0,6.6,0.1,13.3,0,19.9h-25.8c0.1-3.9,0-7.7,0-11.6
	c0.2-2.7,0-5.6,0-8.4h-44.5c-0.1-7.5,0-15,0-22.5C668.7,299.7,689.7,272.3,702.4,258.5z M702.4,288.9c-4.7,5.1-19.9,22-21.9,27.4
	c0.7,0.7,0.3,0.5,1,0.7h21C702.3,312.8,703.4,291,702.4,288.9z"/>
<path class="st0" d="M543.8,127.1h17.7c9.2,19.6,18.9,41.1,28.4,60.3v-60.3h19.2l0,78.1c0,3.6,1.1,25.2-0.3,27.4l-1.8,0.2
	c-5-0.1-10,0-15.1,0l-16.5-35.9c-3.9-8.7-7.4-18.1-12.3-26.3c-0.8,20.7,1.2,41.6,0,62.2c-6.4,0.2-12.9,0.2-19.3,0
	c-0.6-11.7,0-23.8,0-35.5L543.8,127.1z"/>
<path class="st0" d="M164.6,128c18.3-0.1,49.7-6,59.3,14.6c6.7,14.4,4.6,40.2-12.5,48c5.1,14.6,12.4,28.9,18.5,43.2
	c-6.3,0.1-19.5,3.1-23.8-2.4c-2.7-12.9-9-25.7-13.9-37.9h-7.3v40.2c-6.7,0.1-13.5,0.2-20.2,0V128z M187.3,146.8l-1.7,0.4
	c-2,3.7-0.7,22.5-0.7,28.1c5.3,0.2,11,0.8,16.3,0c7.6-6.1,8.1-27.1-3.3-28.5C194.4,146.4,190.7,146.7,187.3,146.8z"/>
<path class="st0" d="M84.7,95.5h5.9l-23.7,95.8c-3.4,14-7.7,28.3-10,42.5H35.6c-1.8-7.6-4.2-15.2-6.1-22.8L9.9,133.6
	C6.8,120.9,3.3,108.2,0,95.5h25.7c1.5,11.7,5.1,23.2,7.4,34.7l8.3,40.4c1.4,6.6,2.2,13.5,4.1,20c2.1-7.1,3.5-14.5,5.1-21.8
	l11.5-51.4c1.7-7.3,3.1-14.8,5.3-21.9C73.2,95.4,78.9,95.5,84.7,95.5z"/>
<path class="st0" d="M310.7,128c4.2,0.2,8.5,0,12.7,0v105.7c-6.7-0.2-13.3-0.2-19.9,0c0-21.5-0.8-43.7,0-65.1
	c-5.3,15.4-9,35.3-15.2,49.7c-4.3,0.1-8.7,0-13,0c-4.5-15.9-9.4-31.7-13.8-47.7c-0.6,5.2-0.4,10.1,0,15.3v47.9
	c-6.4,0.4-12.8,0.5-19.3,0V128c7.2,0.3,14.4,0.3,21.6,0c5.3,19.5,12.3,38.4,17.8,57.9c6.9-14.1,14.6-42.5,19.6-57.9
	C304.3,128.1,307.5,128.1,310.7,128z"/>
<path class="st0" d="M368.6,126.7c35.3,0.1,33.9,23.6,33.9,50.8c0.1,23.2,4.7,58.6-31,56.3c-16.6,1.6-30.9-7.8-32.7-25
	c-1-9.2-1.1-51.2,0.6-59.5C342.6,134.5,354.3,128.2,368.6,126.7z M368.6,144.6c-3.2,0.9-6.2,1.7-7.9,4.8c-3.4,6.2-3.2,52.7-0.8,59.8
	c2,5.7,8.7,7.1,14,6.1c3.5-1.5,6.4-2.8,8-6.5c2.2-4.9,1.9-51.8-0.2-57.2C379.6,146.3,373.7,144.5,368.6,144.6z"/>
<path class="st1" d="M525.5,388h227.7c0,5.6,1.8,20-2,20H523.6C524,401.4,524.9,394.6,525.5,388z"/>
<path class="st0" d="M118.6,254c7.1-0.1,14.3,0,21.4,0c34.7,88.4,124.7,136.9,217.3,111.7c11.8-3.2,22.6-8.3,34.2-12.2v21.9
	c-9,6.6-46.1,15.3-56.8,16.7c-87.6,10.9-173.1-37.7-209.1-117.8C122.7,267.7,119.5,261.2,118.6,254z"/>
<path class="st1" d="M510.2,247.8c6.1,0.4,12.3,0.1,18.4,0c0.6,12.6-2.7,25.1-4.5,37.5l-10,68.3c-2.9,19.7-5.8,54.9-10.7,72.6
	c-12.8,45.8-81.3,47-93.8-1.7c-3-11.7-1.6-24.8-1.6-36.8l0-49.6h-49.6c-7.1,0.9-12.9,1-20,0c0.4-6.4,0.4-12.6,0-18.9h89.5l0,63.6
	c0,11-1.3,23.2,0.3,34c3,21.6,28.5,30.9,45.5,18.4c12.8-9.4,12.4-26.1,14.4-40.3L510.2,247.8z"/>
<path class="st0" d="M295.7,0c72.1-0.9,135.1,26.1,177.7,86.1c4.9,6.8,9.8,14.2,12.8,22c-8.3,0.2-16.7,0.1-25,0
	c-26.7-39.8-61.8-66.4-107.8-79.6c-9.8-2.8-20.2-3.1-30-6.1c-55.3-3-109,14.4-147.7,55.4c-8.1,8.6-14.5,18.3-22.1,27.2l-0.4,0.4
	h-24.6c0.1-0.1,0.1-0.3,0.2-0.4l0.3-0.6c5.1-11.5,14-22.9,22-32.6C190,25,236,5.7,295.7,0z"/>
<circle class="st0" cx="358.1" cy="111.5" r="8.5"/>
<circle class="st0" cx="383.1" cy="111.5" r="8.5"/>
<g>
	<path class="st0" d="M618.1,206.2c-0.2-2.3,2.3-3.9,4.3-2.7c4.5,2.5,8.4,4.4,11.8,5.6c4.5,1.6,8.9,2.4,13.2,2.4
		c4.3,0,7.8-1,10.5-2.9c2.6-1.9,3.9-4.4,3.9-7.4c0-4.3-4.7-9.1-14.1-14.5c-1.5-0.9-2.7-1.5-3.5-2l-7.1-4c-6.9-3.9-12-8.3-15.4-13.3
		c-3.3-4.9-5-10.5-5-16.7c0-8.5,3.2-15.4,9.6-20.8c6.4-5.4,14.6-8.1,24.7-8.1c3.7,0,7.8,0.4,12.1,1.3c4.3,0.9,9.2,2.2,14.5,4.1v14.2
		c0,2.4-2.1,4.2-4.5,3.9c-3.4-0.5-6.7,0.4-9.9-0.8c-4.5-1.7-8.4-2.6-11.6-2.6c-3.5,0-6.3,0.8-8.3,2.3c-2,1.5-3,3.6-3,6.2
		c0,1.8,0.6,3.6,1.8,5.1c1.2,1.6,3,3,5.4,4.3l12.3,6.8c10.3,5.7,17.2,11,20.8,15.8c3.6,4.8,5.3,10.6,5.3,17.2
		c0,10.2-3.5,18.5-10.5,24.8c-7,6.3-16.2,9.5-27.8,9.5c-3.9,0-8.2-0.4-12.8-1.2c-4.6-0.8-9.6-2.1-15.1-3.8L618.1,206.2z"/>
</g>
</svg>
