<?xml version="1.0" encoding="utf-8" ?>
<svg xmlns="http://www.w3.org/2000/svg" xmlns:xlink="http://www.w3.org/1999/xlink" width="1024" height="1024">
	<path fill="#1C344C" transform="scale(2 2)" d="M66.1409 203.505C74.5107 203.512 82.892 203.368 91.2597 203.505C91.2396 206.63 91.2238 209.754 91.2597 212.879L76.0029 212.879L76.0029 224.78L89.4707 224.78L89.4707 234.353C84.9832 234.409 80.4919 234.306 76.0029 234.353L76.0029 243.581L76.0029 247.109C80.9828 246.78 86.2547 247.097 91.2597 247.109C91.7408 250.378 91.6508 253.093 91.2597 256.375C82.8882 256.379 74.5114 256.273 66.1409 256.375L66.1409 203.505Z"/>
	<path fill="#1C344C" transform="scale(2 2)" d="M407.28 203.505C409.704 203.371 412.077 203.353 414.501 203.505L414.501 212.879L398.367 212.879C398.34 217.015 398.314 221.149 398.367 225.284L411.453 225.284L411.453 234.353C407.199 234.837 402.663 234.36 398.367 234.353L398.367 247.109L414.501 247.109L414.784 247.375C414.766 250.374 414.507 253.365 414.501 256.375C405.796 256.249 397.062 256.638 388.365 256.375L388.365 203.505L407.28 203.505Z"/>
	<path fill="#1C344C" transform="scale(2 2)" d="M434.669 202.852C447.872 200.364 452.497 210.682 452.618 221.843L443.349 221.843C443.162 215.301 440.725 209.872 433.43 212.879C428.484 217.428 430.052 242.375 431.861 244.973C433.8 247.758 438.302 248.128 440.872 246.079C443.057 244.336 443.137 240.387 443.349 237.802L452.618 237.802C454.288 261.812 424.535 262.163 421.129 244.304C420.397 240.467 420.42 219.638 421.117 215.804C422.454 208.454 427.328 204.147 434.669 202.852Z"/>
	<path fill="#1C344C" transform="scale(2 2)" d="M321.657 202.852C334.871 201.577 338.888 210.377 339 221.843C335.725 222.197 332.54 222.057 329.265 221.843C329.676 214.598 325.225 207.84 319.213 213.558C316.539 216.101 316.296 243.478 319.14 246.331C320.975 248.172 326.325 248.066 327.973 246.019C329.849 243.69 329.218 239.388 328.995 236.585L329.265 236.25L339 236.25C339.241 241.169 339.307 246.531 336.37 250.738C331.461 257.772 320.061 259.197 313.26 254.168C305.492 248.425 307.548 237.89 307.52 229.499C307.478 216.649 305.469 204.861 321.657 202.852Z"/>
	<path fill="#1C344C" transform="scale(2 2)" d="M281.005 202.852L281.364 202.828C293.182 202.076 299.122 208.333 299.728 219.758L289.829 219.758C289.39 213.381 287.434 211.544 281.005 211.773C275.482 215.015 277.297 223.515 277.298 228.943C277.298 234.323 276.43 240.55 278.276 245.701C286.582 252.288 290.521 244.636 289.829 236.25C288.024 236.459 286.309 236.363 284.501 236.25C284.489 234.685 283.949 229.751 284.907 228.586L285.688 228.519L299.728 228.519C299.755 235.036 300.912 244.8 297.31 250.383C290.518 260.914 270.192 258.67 267.841 245.618C266.949 240.665 267.569 234.946 267.552 229.905C267.508 216.894 264.77 205.197 281.005 202.852Z"/>
	<path fill="#1C344C" transform="scale(2 2)" d="M459.747 203.505C463.078 203.395 466.402 203.452 469.733 203.505C469.439 210.503 469.579 217.768 469.733 224.78C474.134 217.672 479.214 210.782 483.28 203.505C487.589 203.719 491.82 203.753 496.128 203.505C490.166 210.44 484.73 218.327 479.715 225.97C483.514 233.039 487.521 239.984 491.22 247.109C492.89 250.136 494.785 253.192 496.128 256.375C492.349 256.515 488.53 256.39 484.748 256.375C480.368 249.138 476.554 241.297 472.889 233.679L469.733 237.802L469.733 256.375C466.428 256.552 463.057 256.461 459.747 256.375L459.749 221.167C459.746 215.297 459.49 209.365 459.747 203.505Z"/>
	<path fill="#1C344C" transform="scale(2 2)" d="M347.247 203.505L357.384 203.505C357.468 210.761 357.386 218.027 357.384 225.284C361.302 225.412 365.18 225.519 369.096 225.284L369.096 203.505L378.877 203.505L378.877 255.945L378.735 256.306C377.14 256.892 371.116 256.401 369.096 256.375C368.992 249.188 369.093 241.987 369.096 234.798L357.384 234.798C357.272 241.986 357.456 249.185 357.384 256.375L347.247 256.375L347.247 203.505Z"/>
	<path fill="#E66237" transform="scale(2 2)" d="M322.666 268.75C332.47 267.458 342.222 271.881 342.771 282.677C343.434 295.686 333.635 299.382 325.995 307.742C331.611 307.847 337.249 307.745 342.866 307.742C342.811 311.316 342.864 314.898 342.866 318.473L311.062 318.473C309.066 318.424 307.062 318.467 305.065 318.473C304.398 310.257 306.169 310.628 311.988 305.38C316.498 301.314 329.928 291.203 329.577 284.516C329.403 281.206 326.639 279.242 323.458 279.722C319.586 280.307 316.914 284.579 314.805 287.516C311.7 284.691 308.475 282.223 305.065 279.788C308.839 273.759 315.5 269.192 322.666 268.75Z"/>
	<path fill="#E66237" transform="scale(2 2)" d="M367.865 268.75L380.749 268.75L380.749 297.987L384.041 297.987C384.06 301.498 384.143 305.006 384.041 308.516L380.749 308.516C380.766 311.836 380.784 315.154 380.749 318.473L367.865 318.473C367.922 316.547 367.887 314.622 367.865 312.697C367.958 311.327 367.868 309.893 367.865 308.516L345.607 308.516C345.54 304.762 345.582 300.997 345.607 297.242C351.013 289.346 361.527 275.636 367.865 268.75ZM367.865 283.958C365.535 286.492 357.894 294.963 356.895 297.641C357.226 297.985 357.045 297.9 357.384 297.987L367.865 297.987C367.858 295.909 368.378 285.007 367.865 283.958Z"/>
	<path fill="#E66237" transform="scale(2 2)" d="M407.28 268.75L419.929 268.75L419.929 297.987L425.375 297.987C425.216 301.484 425.453 305.01 425.375 308.516C423.548 308.626 421.757 308.589 419.929 308.516L419.929 318.473C415.75 318.705 411.466 318.604 407.28 318.473L407.28 316.262C407.199 313.668 407.15 311.11 407.28 308.516L385.512 308.516C385.529 304.897 384.455 299.084 386.269 295.784C388.232 292.213 404.242 271.346 407.28 268.75ZM407.28 283.958C405.729 285.24 395.945 296.554 395.75 297.714L396.006 297.987L407.28 297.987C407.278 295.687 407.818 285.157 407.398 283.934L407.28 283.958Z"/>
	<path fill="#1C344C" transform="scale(2 2)" d="M226.342 203.505L235.201 203.505C239.799 213.291 244.651 224.078 249.411 233.679L249.411 203.505L259.034 203.505L259.031 242.552C259.028 244.348 259.563 255.162 258.857 256.25L257.957 256.375C255.449 256.346 252.937 256.374 250.43 256.375L242.171 238.436C240.22 234.094 238.451 229.364 235.999 225.284C235.623 235.609 236.62 246.074 235.999 256.375C232.777 256.49 229.564 256.47 226.342 256.375C226.028 250.526 226.328 244.496 226.333 238.632L226.342 203.505Z"/>
	<path fill="#1C344C" transform="scale(2 2)" d="M99.0082 203.505C108.143 203.473 123.857 200.521 128.654 210.816C132.016 218.034 130.941 230.915 122.389 234.798C124.96 242.097 128.594 249.246 131.65 256.375C128.518 256.443 121.899 257.9 119.747 255.193C118.418 248.754 115.231 242.357 112.78 236.25L109.118 236.25L109.118 256.375C105.751 256.406 102.373 256.492 99.0082 256.375L99.0082 203.505ZM110.335 212.879L109.477 213.067C108.474 214.922 109.12 224.304 109.118 227.129C111.753 227.206 114.642 227.536 117.247 227.129C121.035 224.088 121.321 213.57 115.596 212.889C113.896 212.687 112.048 212.828 110.335 212.879Z"/>
	<path fill="#1C344C" transform="scale(2 2)" d="M59.0249 187.247L61.9843 187.247L50.1186 235.125C48.4304 242.107 46.2537 249.293 45.1291 256.375L34.4973 256.375C33.6144 252.55 32.3884 248.794 31.4327 244.984L21.643 206.314C20.0822 199.938 18.3553 193.595 16.6852 187.247L29.5496 187.247C30.2853 193.087 32.085 198.839 33.229 204.619L37.3797 224.814C38.0631 228.129 38.4585 231.561 39.4386 234.798C40.5099 231.224 41.1721 227.539 42.011 223.905L47.7646 198.187C48.5944 194.552 49.2954 190.805 50.4145 187.247C53.2854 187.212 56.154 187.226 59.0249 187.247Z"/>
	<path fill="#1C344C" transform="scale(2 2)" d="M172.027 203.505C174.138 203.595 176.262 203.526 178.374 203.505L178.374 256.375C175.045 256.293 171.734 256.298 168.404 256.375C168.412 245.621 168 234.512 168.404 223.806C165.741 231.519 163.912 241.44 160.788 248.646C158.619 248.717 156.435 248.656 154.264 248.646C152.022 240.673 149.552 232.775 147.38 224.78C147.085 227.39 147.174 229.817 147.38 232.438L147.38 256.375C144.168 256.567 140.961 256.603 137.751 256.375L137.751 203.505C141.374 203.65 144.935 203.647 148.557 203.505C151.203 213.252 154.722 222.719 157.438 232.438C160.866 225.382 164.746 211.209 167.214 203.505C168.818 203.545 170.422 203.521 172.027 203.505Z"/>
	<path fill="#1C344C" transform="scale(2 2)" d="M200.986 202.852C218.629 202.888 217.927 214.674 217.959 228.23C217.986 239.845 220.319 257.544 202.438 256.375C194.134 257.189 187 252.473 186.064 243.882C185.561 239.267 185.49 218.285 186.382 214.118C187.967 206.724 193.841 203.573 200.986 202.852ZM200.986 211.773C199.4 212.203 197.866 212.61 197.019 214.16C195.322 217.269 195.419 240.524 196.637 244.048C197.616 246.876 200.978 247.591 203.615 247.109C205.369 246.365 206.807 245.693 207.633 243.835C208.713 241.405 208.575 217.947 207.522 215.258C206.507 212.664 203.523 211.755 200.986 211.773Z"/>
	<path fill="#E66237" transform="scale(2 2)" d="M279.583 333.285L439.959 333.285C439.972 336.212 441.242 343.646 438.562 343.658L278.276 343.658C278.564 340.202 279.137 336.725 279.583 333.285Z"/>
	<path fill="#1C344C" transform="scale(2 2)" d="M76.0029 266.506C79.575 266.459 83.1536 266.505 86.7263 266.506C104.1 310.685 149.076 334.959 195.401 322.368C201.305 320.763 206.713 318.203 212.477 316.262L212.477 327.189C207.987 330.511 189.408 334.85 184.066 335.517C140.281 340.991 97.5232 316.685 79.5118 276.635C78.0384 273.358 76.4463 270.102 76.0029 266.506Z"/>
	<path fill="#E66237" transform="scale(2 2)" d="M271.787 263.372C274.852 263.588 277.937 263.44 281.005 263.372C281.33 269.693 279.663 275.906 278.737 282.116L273.712 316.261C272.262 326.113 270.818 343.726 268.355 352.565C261.976 375.458 227.701 376.069 221.474 351.726C219.982 345.891 220.669 339.306 220.673 333.32L220.677 308.516L195.9 308.516C192.346 308.976 189.449 309.003 185.879 308.516C186.059 305.329 186.064 302.227 185.879 299.042L230.627 299.042L230.65 330.867C230.633 336.353 230.022 342.471 230.776 347.884C232.282 358.7 245.002 363.342 253.512 357.08C259.899 352.379 259.722 344.031 260.728 336.936L271.787 263.372Z"/>
	<path fill="#1C344C" transform="scale(2 2)" d="M164.539 139.503C200.612 139.07 232.092 152.567 253.403 182.573C255.831 185.991 258.291 189.655 259.815 193.568C255.656 193.651 251.474 193.606 247.313 193.568C233.963 173.674 216.41 160.391 193.389 153.763C188.469 152.346 183.28 152.194 178.374 150.729C150.711 149.227 123.889 157.936 104.516 178.445C100.456 182.742 97.2883 187.609 93.4585 192.054L93.2769 192.262L80.9779 192.262C81.0052 192.198 81.0318 192.134 81.0599 192.071L81.2022 191.754C83.7395 186.001 88.2096 180.302 92.2177 175.461C111.664 151.975 134.664 142.328 164.539 139.503Z"/>
</svg>
