<svg xmlns="http://www.w3.org/2000/svg" viewBox="0 0 1247 208">
	<defs>
		<style>
			.cls-1{fill:#fff;}

            .cls-2{fill:#002157;}
		</style>
	</defs>
	<g id="Layer_2" data-name="Layer 2">
		<g id="Layer_1-2" data-name="Layer 1">
			<path class="cls-2" d="M739.41,0q-.06,57.17-.12,114.34,0,42.75,0,85.51v5.79h-8.56v-5.4q0-97.19,0-194.39A52.86,52.86,0,0,1,731.41,0Z" />
			<rect class="cls-2" x="2.4" y="49.13" width="217.08" height="119.44" />
            <path class="cls-2" d="M327.7,143.09h-9.47V74.62c3.82,0,7.64-.34,11.34.16,1.55.21,3.28,1.94,4.21,3.42,9.45,15,18.74,30.11,28.08,45.18.95,1.52,2,3,3.67,5.63V74.9h9.69v68.3c-3.84,0-7.66.33-11.37-.16-1.55-.21-3.28-1.91-4.21-3.38-9.67-15.45-19.19-31-28.75-46.52-.83-1.33-1.69-2.65-3.19-5Z" />
			<path class="cls-2" d="M454.41,107c0,10.55.08,20.95-.11,31.35,0,1-1.54,2.52-2.63,2.82-10.5,2.89-21.18,4.4-31.95,1.75-10-2.45-17.15-8.75-19.59-18.59-1.79-7.24-2.74-15.17-1.79-22.51,2.93-22.48,21.59-29.58,40.09-27.78,5,.49,9.94,2.11,15.57,3.36l-3.71,8.52c-6.62-1.07-12.72-3.22-18.61-2.77C416.57,84.33,408.11,95,409,110.28a48.6,48.6,0,0,0,1.05,7.88c3,13.11,12.23,17.64,24.43,16.74,9.06-.66,9-1.08,9-10.27v-8.16H429.15V107Z" />
			<path class="cls-2" d="M637.1,75h10.61c0,7.46.28,14.85-.1,22.21-.24,4.75,1.18,6.43,6.07,6.14a167.94,167.94,0,0,1,20.44,0c5,.33,6.21-1.52,6-6.18-.38-7.25-.1-14.52-.1-22.11h10.68v67.84H680.14V112.64H647.79v30.23H637.1Z" />
			<path class="cls-2" d="M257.25,75h38.31v8.81c-6.63,0-13.37,0-20.11,0-8.24,0-7.4-.74-7.43,7.56,0,11.88,0,11.88,12.08,11.88h6.49c8.28,0,8.28,0,7.14,8.91H268.06c0,6.86-.18,13.12.2,19.35.05.94,2.71,2.43,4.2,2.48,7.6.25,15.22.11,23.13.11v8.72H257.25Z" />
			<path class="cls-2" d="M571.52,131.1c6.05,1.31,11.69,2.55,17.34,3.75a11.45,11.45,0,0,0,2.48.23c7.2-.08,11.95-2.94,13-7.8s-1.46-8.67-8.28-12c-4.17-2-8.53-3.7-12.64-5.84-8.66-4.49-12.29-11.66-10.85-20.88,1.17-7.45,6.71-12.74,15.81-14.37A41.4,41.4,0,0,1,614.27,78c-1.16,3-2.22,5.67-3.25,8.28-4.58-1.13-8.7-2.54-12.93-3.07a21.56,21.56,0,0,0-9.28.81,8.17,8.17,0,0,0-2.89,14c2.79,2.45,6.47,3.93,9.83,5.7,3.66,1.94,7.53,3.5,11.1,5.58,6.38,3.7,9,9.47,8.53,16.73-.48,7.07-3.91,12.27-10.37,15.18-10.3,4.61-20.76,3.58-31.12.17a4.5,4.5,0,0,1-2.26-3.19A46.26,46.26,0,0,1,571.52,131.1Z" />
			<path class="cls-2" d="M1174.68,142.94h-4.52V82l-.91-.18q-7.11,17.63-14.21,35.25c-3,7.52-6,15.1-9.13,22.56-.6,1.4-2.2,2.38-3.34,3.55-1-1.14-2.38-2.11-2.92-3.43-7.47-18.41-14.83-36.86-22.23-55.3a6.63,6.63,0,0,0-2.28-3.2c0,1.81,0,3.61,0,5.42l.18,52.2c0,2.47.39,5.37-4,3.84V75.21c4.73-1.61,7.19-.29,9,4.47,6.38,16.88,13.24,33.57,19.93,50.33.67,1.68,1.42,3.33,2.58,6,1.2-2.66,2.11-4.48,2.87-6.37,6.7-16.57,13.56-33.09,19.91-49.8,1.79-4.71,4.12-6.34,9.06-4.72Z" />
			<path class="cls-2" d="M479.12,74.89h10.7v58.75h29.42v9.23H479.12Z" />
			<path class="cls-2" d="M978.45,143.11V74.05c10.36.65,20.59.29,30.39,2.16,12.46,2.38,19.19,11.44,20.88,23.73a58.88,58.88,0,0,1,0,16.82c-2.55,16.44-13.05,25.15-31.24,26.29C992,143.45,985.5,143.11,978.45,143.11Zm4.89-65v61.67c7.43-.53,14.45-.43,21.24-1.64,10.36-1.85,17.82-8,19.54-18.59a71.57,71.57,0,0,0,0-22.06c-1.56-10-8.46-16.1-18.37-17.75C998.5,78.49,991,78.58,983.34,78.07Z" />
			<path class="cls-2" d="M539.08,74.75h10.23V142.9H539.08Z" />
			<path class="cls-2" d="M834.07,142.73c-3,1.07-4.71.47-5.79-2.63-1.95-5.62-4.5-11-6.46-16.65-1.08-3.1-2.56-4.4-6.05-4.23-6.8.32-13.63.26-20.43,0-3.31-.13-5.08.76-6.2,4.07-1.9,5.63-4.51,11-6.56,16.61-1.05,2.85-2.46,4.12-5.75,2.7Q787.9,114.67,799,86.8A68,68,0,0,1,802.15,79c.89-1.62,2.53-2.84,3.83-4.24,1.16,1.36,2.81,2.53,3.42,4.1,7.38,18.77,14.61,37.61,21.87,56.43C832.22,137.76,833.13,140.23,834.07,142.73ZM805.76,80.17c-4.56,12-8.73,23.06-13.14,34.68H818.5C814.24,103.27,810.19,92.23,805.76,80.17Z" />
			<path class="cls-2" d="M905.72,142.63q11.09-27.94,22.12-55.82a61.34,61.34,0,0,1,3-7.35c1-1.76,2.68-3.14,4.05-4.69,1.24,1.5,3,2.82,3.64,4.54,6.36,16.15,12.55,32.38,18.78,48.58L963,142.72c-3,1.08-4.73.48-5.81-2.61-2-5.77-4.58-11.36-6.66-17.11-1-2.69-2.29-3.87-5.35-3.77-7.14.25-14.3.26-21.43,0-3.29-.12-4.65,1.19-5.68,4.07-2,5.6-4.54,11-6.59,16.61C910.43,142.75,909,144,905.72,142.63Zm41.69-27.75c-4.27-11.63-8.33-22.66-12.75-34.7-4.58,12.09-8.75,23.1-13.15,34.7Z" />
			<path class="cls-2" d="M1056.65,109.36c0,9.41-.11,18.34.17,27.25,0,.87,2.43,2.35,3.77,2.39,8.15.22,16.32,0,24.47.21,1.45,0,2.87,1.24,4.31,1.9-1.38.7-2.74,2-4.12,2-10.8.17-21.6.09-32.75.09V74.76h24.73c3,0,6-.18,9,.1,1.11.1,2.11,1.27,3.16,2-1.1.67-2.18,1.9-3.29,1.93-8.15.17-16.32.28-24.47,0-3.92-.13-5.31,1.07-5.09,5a157.58,157.58,0,0,1,0,16.41c-.18,3.78.86,5.33,5,5.15,7.48-.31,15-.18,22.47,0,1.26,0,2.48,1.29,3.72,2-1.22.67-2.44,1.89-3.68,1.92C1075.07,109.43,1066.11,109.36,1056.65,109.36Z" />
			<path class="cls-2" d="M895.07,138c-1,1.71-1.32,3.32-2.27,3.85-10.69,5.93-31.57,2-39.31-7.34-12-14.41-10.56-41.85,3-53.23,11.93-10,25.26-9.13,39-4.52-.77,4.09-.71,3.72-4,3.18-5.85-.94-11.88-2.46-17.64-1.85-13.46,1.44-22.24,11.62-23.3,26.22a56.78,56.78,0,0,0,1,15.28c2.79,13.61,12.84,21.19,27,20.58C883.66,140,888.72,138.86,895.07,138Z" />
			<path class="cls-2" d="M1240.42,75.42c-6.07,11.18-11.92,22.49-18.31,33.48a28.12,28.12,0,0,0-4.13,16.43c.32,5.75.07,11.54.07,17.57h-4.17a7.51,7.51,0,0,1-.44-1.47,14.16,14.16,0,0,1,0-3c2.16-15.53-2.53-29.16-11-42-4.36-6.58-7.66-13.86-11.5-20.92,3.45-2,4.89-.3,6.28,2.35,5.16,9.82,10.47,19.56,15.73,29.32.77,1.43,1.61,2.83,2.82,5,4.64-8.58,9-16.55,13.25-24.53,1.81-3.35,3.37-6.86,5.48-10,1-1.56,3-2.48,4.61-3.69Z" />
			<path class="cls-1" d="M72.13,143.21H33.36V75H72c.13.91.3,1.7.34,2.49.33,6.76.32,6.77-6.65,6.77-5.66,0-11.32.1-17,0-2.85-.07-4.37.7-4.21,3.88a104.86,104.86,0,0,1,0,10.93c-.15,3.14,1.29,4,4.17,3.92,5.32-.14,10.65,0,16,0,6.21,0,6.22,0,6,6.38,0,.81-.13,1.63-.26,3.08H44.65c0,6.71-.16,12.78.18,18.83.05.91,2.4,2.37,3.74,2.43,6,.27,12,.11,18,.14,1.78,0,3.56.15,5.6.25Z" />
			<path class="cls-1" d="M89.64,130.79c6.26,1.32,12,2.86,17.87,3.64a20.6,20.6,0,0,0,9.27-1c6.83-2.42,8.07-10.76,2.2-15-3.32-2.39-7.36-3.76-11-5.78-4.17-2.33-8.79-4.27-12.22-7.44a17.86,17.86,0,0,1,5.56-29.6c10.65-4.28,21.11-2.39,31.72,2.13-1.25,3.15-2.33,5.86-3.46,8.73-4.66-1.07-9.08-2.46-13.6-3-7.65-1-12.48,1.33-13.84,5.95-1.53,5.21,1,8.9,8.62,12.62,4.77,2.33,9.7,4.36,14.32,7,6.78,3.8,9.51,9.88,8.86,17.55-.61,7.3-4.36,12.45-11,15.25-10.18,4.26-20.51,3.34-30.69-.07-1.14-.37-2.25-2.24-2.47-3.57A44.38,44.38,0,0,1,89.64,130.79Z" />
			<path class="cls-1" d="M166.55,74.64V133.4h29.07V143H155.16V74.64Z" />
		</g>
	</g>
</svg>
