<svg width="123" height="51" viewBox="0 0 123 51" fill="none" xmlns="http://www.w3.org/2000/svg">
<g id="idp-logo 1" clip-path="url(#clip0_1_950)">
<g id="Layer 2">
<g id="Layer 1">
<path id="Vector" d="M44.9647 31.1105C43.6125 29.1806 41.8477 27.5761 39.7984 26.4132C37.0818 24.8115 33.2544 24.9665 33.2544 24.9665C32.982 25.5842 32.5889 26.1412 32.0983 26.6049C31.6076 27.0686 31.0293 27.4295 30.3972 27.6665C29.7651 27.9036 29.0921 28.0119 28.4176 27.9852C27.743 27.9585 27.0807 27.7973 26.4693 27.5111C23.503 31.386 23.7914 34.6195 23.8173 34.8305C23.9852 39.8119 28.8027 50.0849 48.0774 50.1151C48.1333 49.7103 49.7306 37.3879 44.9431 31.1105" fill="#818181"/>
<path id="Vector_2" d="M29.3482 5.04552C23.9839 -0.181383 14.0775 -2.11456 1.35114 3.55581C1.38558 3.69789 5.18281 19.8436 22.2488 22.4097H22.2919C22.6708 22.4312 23.1099 22.47 23.5835 22.5216C23.6853 21.2527 24.2617 20.0689 25.1978 19.2062C26.1338 18.3435 27.3606 17.8654 28.6335 17.8674C29.2068 17.8688 29.7763 17.9603 30.3212 18.1386C35.2464 10.6599 29.9466 5.58371 29.3482 5.04552Z" fill="#818181"/>
<path id="Vector_3" d="M26.4865 27.5067C25.6162 27.0994 24.8798 26.4527 24.3637 25.6422C23.8475 24.8317 23.5728 23.8909 23.5718 22.9299C23.5718 22.8051 23.5718 22.6587 23.5933 22.5209C22.7217 22.4183 21.8448 22.368 20.9671 22.3702C16.5062 22.4504 12.1811 23.9193 8.59384 26.5724C1.4385 32.1653 0.809937 41.349 0.809937 41.349C1.1888 41.3963 13.8549 43.0712 21.544 35.4633C22.3395 34.6657 23.0455 33.7836 23.6493 32.8326C23.6493 32.8326 23.8517 32.514 24.1832 31.9715C24.6616 30.3536 25.4433 28.8413 26.4865 27.5153V27.5067Z" fill="#818181"/>
<path id="Vector_4" d="M109.806 11.9073C106.064 11.9073 102.917 13.4874 100.997 16.0147V14.7747C100.991 14.013 100.685 13.2843 100.145 12.7473C99.6046 12.2103 98.8741 11.9084 98.1124 11.9073C97.3507 11.9084 96.6203 12.2103 96.0801 12.7473C95.5399 13.2843 95.2336 14.013 95.2279 14.7747V47.191C95.2324 47.966 95.5432 48.7078 96.0924 49.2547C96.6417 49.8015 97.3848 50.109 98.1598 50.1101C98.9348 50.109 99.6779 49.8015 100.227 49.2547C100.776 48.7078 101.087 47.966 101.092 47.191V35.7814C102.211 37.001 103.576 37.9702 105.096 38.6254C106.616 39.2806 108.258 39.607 109.913 39.5831C116.461 39.5831 122.829 34.7222 122.829 25.6935C122.85 16.5012 116.04 11.9073 109.806 11.9073ZM109.173 34.2486C105.16 34.2486 101.092 31.3424 101.092 25.5859C101.092 19.9327 105.104 17.1342 109.121 17.1342C113.138 17.1342 117.056 19.8811 117.056 25.6376C117.056 31.394 113.181 34.2486 109.173 34.2486Z" fill="#818181"/>
<path id="Vector_5" d="M76.2658 39.5837C80.0113 39.5837 83.1542 38.0036 85.0786 35.4763V36.7076C85.0832 37.4694 85.3883 38.1985 85.9278 38.7363C86.4672 39.2742 87.1971 39.5772 87.9588 39.5794C88.7213 39.5783 89.4524 39.2758 89.9927 38.7378C90.533 38.1999 90.8388 37.4701 90.8434 36.7076V4.29568C90.8321 3.52514 90.5183 2.78992 89.9698 2.24865C89.4213 1.70737 88.6821 1.40342 87.9115 1.40237C87.1372 1.40349 86.3947 1.7104 85.8456 2.25631C85.2965 2.80221 84.9853 3.54292 84.9796 4.31721V15.7096C83.8599 14.488 82.494 13.5176 80.972 12.8623C79.45 12.207 77.8064 11.8817 76.1495 11.9078C69.6142 11.9078 63.2338 16.7645 63.2338 25.7975C63.2338 34.9854 70.0361 39.5837 76.2658 39.5837ZM76.9029 17.2424C80.9154 17.2424 84.9796 20.1443 84.9796 25.9051C84.9796 31.5539 80.9671 34.3525 76.9546 34.3525C72.9421 34.3525 69.0329 31.6056 69.0329 25.8491C69.0329 20.0926 72.8861 17.2424 76.9029 17.2424Z" fill="#818181"/>
<path id="Vector_6" d="M56.8636 0.110958C56.3124 0.0986047 55.7644 0.198076 55.2526 0.403368C54.7409 0.608661 54.2761 0.915517 53.8862 1.30542C53.4963 1.69532 53.1895 2.16017 52.9842 2.67193C52.7789 3.18369 52.6795 3.73174 52.6918 4.28301C52.6795 4.83427 52.7789 5.38232 52.9842 5.89408C53.1895 6.40584 53.4963 6.8707 53.8862 7.2606C54.2761 7.6505 54.7409 7.95736 55.2526 8.16265C55.7644 8.36794 56.3124 8.46741 56.8636 8.45506C57.4172 8.46781 57.9676 8.36897 58.4822 8.16442C58.9967 7.95987 59.4648 7.65381 59.8585 7.26447C60.2522 6.87514 60.5636 6.41051 60.7739 5.89828C60.9842 5.38604 61.0893 4.83671 61.0828 4.28301C61.0893 3.72931 60.9842 3.17997 60.7739 2.66774C60.5636 2.15551 60.2522 1.69088 59.8585 1.30154C59.4648 0.912208 58.9967 0.606143 58.4822 0.401595C57.9676 0.197046 57.4172 0.0982032 56.8636 0.110958Z" fill="#818181"/>
<path id="Vector_7" d="M56.859 11.9073C56.084 11.9084 55.3409 12.2159 54.7917 12.7627C54.2424 13.3096 53.9317 14.0514 53.9271 14.8264V36.763C53.9571 37.52 54.2785 38.2361 54.824 38.7616C55.3696 39.2872 56.0972 39.5815 56.8547 39.5831C57.613 39.5826 58.3416 39.2888 58.8881 38.7631C59.4346 38.2374 59.7566 37.5207 59.7866 36.763V36.6683V14.8264C59.782 14.0521 59.4719 13.3109 58.9236 12.7642C58.3753 12.2175 57.6333 11.9095 56.859 11.9073Z" fill="#818181"/>
</g>
</g>
</g>
<defs>
<clipPath id="clip0_1_950">
<rect width="122.037" height="50" fill="white" transform="translate(0.806152 0.107391)"/>
</clipPath>
</defs>
</svg>
