<svg width="134" height="51" viewBox="0 0 134 51" fill="none" xmlns="http://www.w3.org/2000/svg">
<g id="IELTS logo 1" clip-path="url(#clip0_1_969)">
<g id="layer1">
<path id="path3961" d="M0.975708 48.4504V42.8174H4.83618V43.7703H2.02695V45.0191H4.64085V45.9682H2.02695V47.5013H4.93562V48.4504H0.975708Z" fill="#818181"/>
<path id="path3963" d="M9.25144 48.4517H8.25347V46.3691C8.25347 45.9285 8.23216 45.6435 8.18955 45.5141C8.14693 45.3848 8.07767 45.2842 7.98178 45.2125C7.88589 45.1408 7.77047 45.1049 7.63551 45.1049C7.46267 45.1049 7.30759 45.1562 7.17027 45.2586C7.03294 45.3611 6.93883 45.4969 6.88792 45.6659C6.83702 45.835 6.81157 46.1475 6.81157 46.6035V48.4517H5.8136V44.371H6.74054V44.9704C7.06964 44.5094 7.48398 44.2788 7.98356 44.2788C8.20375 44.2788 8.405 44.3217 8.58731 44.4075C8.76962 44.4934 8.90754 44.6029 9.00106 44.7361C9.09458 44.8693 9.15969 45.0204 9.19639 45.1895C9.23309 45.3585 9.25144 45.6006 9.25144 45.9157V48.4517Z" fill="#818181"/>
<path id="path3965" d="M10.1813 48.7205L11.3214 48.8704C11.3403 49.0138 11.3841 49.1125 11.4528 49.1662C11.5475 49.2431 11.6966 49.2815 11.9003 49.2815C12.1607 49.2815 12.356 49.2393 12.4862 49.1547C12.5738 49.0984 12.6401 49.0074 12.6851 48.8819C12.7159 48.7922 12.7313 48.627 12.7313 48.3862V47.7907C12.433 48.2313 12.0565 48.4516 11.6019 48.4516C11.0952 48.4516 10.6939 48.2197 10.398 47.7561C10.1659 47.3898 10.0499 46.9338 10.0499 46.3882C10.0499 45.7042 10.202 45.1817 10.5063 44.8205C10.8105 44.4593 11.1888 44.2787 11.641 44.2787C12.1074 44.2787 12.4922 44.5003 12.7952 44.9434V44.3709H13.7293V48.0327C13.7293 48.5143 13.6926 48.8742 13.6192 49.1125C13.5458 49.3507 13.4428 49.5377 13.3102 49.6735C13.1776 49.8092 13.0006 49.9155 12.7792 49.9924C12.5579 50.0692 12.2779 50.1076 11.9393 50.1076C11.3 50.1076 10.8466 49.9892 10.5791 49.7522C10.3116 49.5153 10.1778 49.2149 10.1778 48.8512C10.1778 48.8153 10.179 48.7718 10.1813 48.7205ZM11.0728 46.3267C11.0728 46.7596 11.1503 47.0766 11.3054 47.2777C11.4605 47.4788 11.6516 47.5793 11.8789 47.5793C12.1228 47.5793 12.3288 47.4762 12.4969 47.27C12.665 47.0638 12.7491 46.7583 12.7491 46.3536C12.7491 45.9309 12.6686 45.6171 12.5076 45.4122C12.3466 45.2073 12.1429 45.1048 11.8967 45.1048C11.6576 45.1048 11.4605 45.2054 11.3054 45.4064C11.1503 45.6075 11.0728 45.9143 11.0728 46.3267Z" fill="#818181"/>
<path id="path3967" d="M14.7159 48.4514V42.8184H15.7139V48.4514H14.7159Z" fill="#818181"/>
<path id="path3969" d="M16.7277 43.8164V42.8174H17.7256V43.8164H16.7277ZM16.7277 48.4504V44.3697H17.7256V48.4504H16.7277Z" fill="#818181"/>
<path id="path3971" d="M18.3939 47.2873L19.3954 47.1221C19.438 47.3321 19.5244 47.4916 19.6546 47.6005C19.7849 47.7093 19.9672 47.7638 20.2016 47.7638C20.4596 47.7638 20.6538 47.7125 20.784 47.6101C20.8716 47.5383 20.9154 47.4423 20.9154 47.3219C20.9154 47.2399 20.8917 47.172 20.8444 47.1182C20.7947 47.067 20.6834 47.0196 20.5105 46.9761C19.7055 46.7839 19.1953 46.6085 18.9799 46.4497C18.6815 46.2294 18.5324 45.9232 18.5324 45.5313C18.5324 45.1778 18.6614 44.8807 18.9195 44.6399C19.1776 44.3991 19.5777 44.2787 20.1199 44.2787C20.636 44.2787 21.0196 44.3696 21.2706 44.5515C21.5215 44.7334 21.6944 45.0023 21.7891 45.3584L20.8479 45.5467C20.8077 45.3879 20.7313 45.2662 20.6189 45.1817C20.5064 45.0971 20.346 45.0549 20.1376 45.0549C19.8748 45.0549 19.6866 45.0946 19.573 45.174C19.4972 45.2303 19.4593 45.3033 19.4593 45.393C19.4593 45.4698 19.4925 45.5352 19.5587 45.5889C19.6487 45.6607 19.9595 45.7619 20.491 45.8925C21.0226 46.0231 21.3937 46.1832 21.6044 46.3728C21.8128 46.5649 21.9169 46.8326 21.9169 47.1759C21.9169 47.5499 21.7725 47.8714 21.4837 48.1403C21.1948 48.4093 20.7674 48.5438 20.2016 48.5438C19.6878 48.5438 19.2811 48.4311 18.9816 48.2056C18.6821 47.9802 18.4862 47.6741 18.3939 47.2873Z" fill="#818181"/>
<path id="path3973" d="M23.7881 42.8172V44.8883C24.1101 44.481 24.4949 44.2774 24.9424 44.2774C25.172 44.2774 25.3792 44.3235 25.5639 44.4157C25.7485 44.5079 25.8876 44.6257 25.9812 44.7692C26.0747 44.9126 26.1386 45.0715 26.173 45.2456C26.2073 45.4198 26.2244 45.6901 26.2245 46.0564V48.4502H25.2265V46.2946C25.2265 45.8668 25.2075 45.5953 25.1697 45.48C25.1318 45.3648 25.0649 45.2732 24.969 45.2053C24.8731 45.1374 24.7529 45.1035 24.6085 45.1035C24.4428 45.1035 24.2948 45.147 24.1646 45.2341C24.0344 45.3212 23.9391 45.4525 23.8787 45.628C23.8183 45.8034 23.7881 46.0628 23.7881 46.4061V48.4502H22.7902V42.8172H23.7881Z" fill="#818181"/>
<path id="path3975" d="M28.8312 44.3696H29.3852V44.0622C29.3852 43.7189 29.4189 43.4628 29.4864 43.2937C29.5539 43.1247 29.6782 42.987 29.8593 42.8807C30.0405 42.7744 30.2695 42.7212 30.5465 42.7212C30.8307 42.7212 31.1089 42.7673 31.3811 42.8595L31.2462 43.6126C31.0876 43.5717 30.9348 43.5512 30.788 43.5512C30.6436 43.5512 30.54 43.5877 30.4773 43.6607C30.4145 43.7337 30.3832 43.8739 30.3832 44.0814V44.3696H31.129V45.2188H30.3832V48.4502H29.3852V45.2188H28.8312V44.3696Z" fill="#818181"/>
<path id="path3977" d="M31.4679 46.3537C31.4679 45.9951 31.5496 45.648 31.7129 45.3124C31.8763 44.9768 32.1078 44.7207 32.4073 44.5439C32.7068 44.3672 33.0412 44.2788 33.4106 44.2788C33.9812 44.2788 34.4488 44.4793 34.8134 44.8801C35.178 45.281 35.3603 45.7876 35.3603 46.3998C35.3603 47.0172 35.1762 47.5289 34.8081 47.9349C34.4399 48.3409 33.9764 48.5439 33.4177 48.5439C33.072 48.5439 32.7423 48.4594 32.4286 48.2903C32.1149 48.1212 31.8763 47.8734 31.7129 47.5468C31.5496 47.2202 31.4679 46.8225 31.4679 46.3537ZM32.4907 46.4114C32.4907 46.8161 32.5795 47.126 32.7571 47.3412C32.9347 47.5564 33.1537 47.664 33.4141 47.664C33.6746 47.664 33.893 47.5564 34.0694 47.3412C34.2457 47.126 34.3339 46.8135 34.3339 46.4037C34.3339 46.0041 34.2457 45.6967 34.0694 45.4815C33.893 45.2663 33.6746 45.1587 33.4141 45.1587C33.1537 45.1587 32.9347 45.2663 32.7571 45.4815C32.5795 45.6967 32.4907 46.0066 32.4907 46.4114Z" fill="#818181"/>
<path id="path3979" d="M37.0909 48.4516H36.0929V44.3709H37.0198V44.9511C37.1785 44.677 37.3211 44.4964 37.4478 44.4093C37.5745 44.3222 37.7183 44.2787 37.8793 44.2787C38.1066 44.2787 38.3256 44.3466 38.5363 44.4823L38.2273 45.4237C38.0592 45.3059 37.903 45.247 37.7585 45.247C37.6188 45.247 37.5005 45.2886 37.4034 45.3719C37.3063 45.4551 37.23 45.6056 37.1743 45.8233C37.1187 46.0411 37.0909 46.497 37.0909 47.1912V48.4516Z" fill="#818181"/>
<path id="path3981" d="M40.9503 48.4504V42.8174H42.0016V48.4504H40.9503Z" fill="#818181"/>
<path id="path3983" d="M46.437 48.4517H45.439V46.3691C45.439 45.9285 45.4177 45.6435 45.3751 45.5141C45.3325 45.3848 45.2632 45.2842 45.1673 45.2125C45.0714 45.1408 44.956 45.1049 44.8211 45.1049C44.6482 45.1049 44.4931 45.1562 44.3558 45.2586C44.2185 45.3611 44.1244 45.4969 44.0735 45.6659C44.0226 45.835 43.9971 46.1475 43.9971 46.6035V48.4517H42.9991V44.371H43.9261V44.9704C44.2552 44.5094 44.6695 44.2788 45.1691 44.2788C45.3893 44.2788 45.5905 44.3217 45.7729 44.4075C45.9552 44.4934 46.0931 44.6029 46.1866 44.7361C46.2801 44.8693 46.3452 45.0204 46.3819 45.1895C46.4186 45.3585 46.437 45.6006 46.437 45.9157V48.4517Z" fill="#818181"/>
<path id="path3985" d="M49.1719 44.3716V45.2323H48.4901V46.8768C48.4901 47.2098 48.4966 47.4039 48.5096 47.459C48.5226 47.514 48.5522 47.5595 48.5984 47.5954C48.6445 47.6312 48.7008 47.6492 48.7671 47.6492C48.8594 47.6492 48.9932 47.6146 49.1684 47.5454L49.2536 48.3831C49.0216 48.4907 48.7588 48.5444 48.4652 48.5444C48.2853 48.5444 48.1231 48.5118 47.9786 48.4465C47.8342 48.3811 47.7283 48.2966 47.6608 48.1929C47.5933 48.0891 47.5465 47.9489 47.5205 47.7721C47.4992 47.6466 47.4885 47.393 47.4885 47.0113V45.2323H47.0304V44.3716H47.4885V43.5608L48.4901 42.9307V44.3716H49.1719Z" fill="#818181"/>
<path id="path3987" d="M52.0585 47.1529L53.0529 47.3335C52.9251 47.728 52.7232 48.0284 52.4474 48.2346C52.1716 48.4408 51.8265 48.5439 51.4121 48.5439C50.7563 48.5439 50.2709 48.3121 49.956 47.8484C49.7074 47.477 49.5831 47.0082 49.5831 46.4421C49.5831 45.7658 49.7465 45.2362 50.0732 44.8533C50.4 44.4703 50.8131 44.2788 51.3127 44.2788C51.8738 44.2788 52.3166 44.4793 52.641 44.8801C52.9653 45.281 53.1204 45.8952 53.1062 46.7226H50.606C50.6131 47.0428 50.6936 47.2919 50.8475 47.4699C51.0014 47.648 51.1931 47.737 51.4228 47.737C51.5791 47.737 51.7105 47.6909 51.817 47.5987C51.9236 47.5064 52.0041 47.3579 52.0585 47.1529ZM52.1153 46.0617C52.1082 45.7492 52.0337 45.5116 51.8916 45.3489C51.7495 45.1863 51.5767 45.1049 51.3731 45.1049C51.1553 45.1049 50.9753 45.1907 50.8333 45.3624C50.6912 45.534 50.6213 45.7671 50.6237 46.0617H52.1153Z" fill="#818181"/>
<path id="path3989" d="M54.876 48.4517H53.8781V44.371H54.805V44.9512C54.9636 44.6771 55.1063 44.4966 55.2329 44.4095C55.3596 44.3224 55.5035 44.2788 55.6645 44.2788C55.8917 44.2788 56.1108 44.3467 56.3215 44.4825L56.0125 45.4238C55.8444 45.306 55.6881 45.2471 55.5437 45.2471C55.404 45.2471 55.2856 45.2887 55.1886 45.372C55.0915 45.4552 55.0151 45.6057 54.9595 45.8235C54.9038 46.0412 54.876 46.4972 54.876 47.1914V48.4517Z" fill="#818181"/>
<path id="path3991" d="M60.1831 48.4517H59.1851V46.3691C59.1851 45.9285 59.1638 45.6435 59.1212 45.5141C59.0786 45.3848 59.0093 45.2842 58.9134 45.2125C58.8175 45.1408 58.7021 45.1049 58.5672 45.1049C58.3943 45.1049 58.2392 45.1562 58.1019 45.2586C57.9646 45.3611 57.8705 45.4969 57.8196 45.6659C57.7687 45.835 57.7432 46.1475 57.7432 46.6035V48.4517H56.7452V44.371H57.6722V44.9704C58.0013 44.5094 58.4156 44.2788 58.9152 44.2788C59.1354 44.2788 59.3366 44.3217 59.519 44.4075C59.7013 44.4934 59.8392 44.6029 59.9327 44.7361C60.0262 44.8693 60.0913 45.0204 60.128 45.1895C60.1647 45.3585 60.1831 45.6006 60.1831 45.9157V48.4517Z" fill="#818181"/>
<path id="path3993" d="M61.9433 45.616L61.0377 45.4392C61.1395 45.0447 61.3147 44.7527 61.5633 44.5631C61.8119 44.3736 62.1813 44.2788 62.6714 44.2788C63.1165 44.2788 63.448 44.3358 63.6658 44.4498C63.8836 44.5638 64.0369 44.7085 64.1257 44.884C64.2145 45.0595 64.2589 45.3816 64.2589 45.8504L64.2482 47.1107C64.2482 47.4693 64.2642 47.7338 64.2962 47.9041C64.3281 48.0745 64.3879 48.257 64.4755 48.4517H63.4882C63.4622 48.38 63.4302 48.2737 63.3923 48.1328C63.3758 48.0687 63.3639 48.0264 63.3568 48.006C63.1863 48.1853 63.004 48.3198 62.8099 48.4094C62.6157 48.4991 62.4086 48.5439 62.1884 48.5439C61.8001 48.5439 61.4941 48.4299 61.2703 48.2019C61.0466 47.9739 60.9347 47.6858 60.9347 47.3374C60.9347 47.1068 60.9856 46.9013 61.0874 46.7207C61.1892 46.5401 61.3319 46.4018 61.5154 46.3057C61.6989 46.2096 61.9634 46.1257 62.3091 46.054C62.7755 45.9592 63.0987 45.8709 63.2787 45.7889V45.6813C63.2787 45.4738 63.2313 45.3259 63.1366 45.2375C63.0419 45.1491 62.8632 45.1049 62.6003 45.1049C62.4228 45.1049 62.2843 45.1427 62.1848 45.2183C62.0854 45.2939 62.0049 45.4264 61.9433 45.616ZM63.2787 46.492C63.1508 46.5382 62.9484 46.5932 62.6714 46.6573C62.3944 46.7213 62.2132 46.7841 62.128 46.8455C61.9978 46.9455 61.9327 47.0722 61.9327 47.2259C61.9327 47.3771 61.9848 47.5077 62.0889 47.6179C62.1931 47.728 62.3257 47.7831 62.4867 47.7831C62.6666 47.7831 62.8383 47.7191 63.0017 47.591C63.1224 47.4936 63.2017 47.3745 63.2396 47.2336C63.2657 47.1414 63.2787 46.9659 63.2787 46.7072V46.492Z" fill="#818181"/>
<path id="path3995" d="M66.9747 44.3701V45.2308H66.2928V46.8754C66.2928 47.2084 66.2993 47.4024 66.3123 47.4575C66.3253 47.5126 66.3549 47.558 66.4011 47.5939C66.4473 47.6298 66.5035 47.6477 66.5698 47.6477C66.6621 47.6477 66.7959 47.6131 66.9711 47.5439L67.0564 48.3816C66.8243 48.4892 66.5615 48.543 66.2679 48.543C66.088 48.543 65.9258 48.5103 65.7814 48.445C65.637 48.3797 65.531 48.2951 65.4635 48.1914C65.396 48.0877 65.3493 47.9474 65.3232 47.7707C65.3019 47.6451 65.2913 47.3915 65.2913 47.0099V45.2308H64.8331V44.3701H65.2913V43.5594L66.2928 42.9292V44.3701H66.9747Z" fill="#818181"/>
<path id="path3997" d="M67.6769 43.8174V42.8184H68.6749V43.8174H67.6769ZM67.6769 48.4514V44.3707H68.6749V48.4514H67.6769Z" fill="#818181"/>
<path id="path3999" d="M69.4659 46.3537C69.4659 45.9951 69.5476 45.648 69.711 45.3124C69.8744 44.9768 70.1058 44.7207 70.4053 44.5439C70.7048 44.3672 71.0393 44.2788 71.4086 44.2788C71.9792 44.2788 72.4468 44.4793 72.8114 44.8801C73.1761 45.281 73.3584 45.7876 73.3584 46.3998C73.3584 47.0172 73.1743 47.5289 72.8061 47.9349C72.4379 48.3409 71.9745 48.5439 71.4157 48.5439C71.07 48.5439 70.7403 48.4594 70.4266 48.2903C70.1129 48.1212 69.8744 47.8734 69.711 47.5468C69.5476 47.2202 69.4659 46.8225 69.4659 46.3537ZM70.4888 46.4114C70.4888 46.8161 70.5776 47.126 70.7551 47.3412C70.9327 47.5564 71.1517 47.664 71.4122 47.664C71.6726 47.664 71.891 47.5564 72.0674 47.3412C72.2438 47.126 72.332 46.8135 72.332 46.4037C72.332 46.0041 72.2438 45.6967 72.0674 45.4815C71.891 45.2663 71.6726 45.1587 71.4122 45.1587C71.1517 45.1587 70.9327 45.2663 70.7551 45.4815C70.5776 45.6967 70.4888 46.0066 70.4888 46.4114Z" fill="#818181"/>
<path id="path4001" d="M77.5698 48.4517H76.5718V46.3691C76.5718 45.9285 76.5505 45.6435 76.5079 45.5141C76.4653 45.3848 76.396 45.2842 76.3001 45.2125C76.2043 45.1408 76.0888 45.1049 75.9539 45.1049C75.781 45.1049 75.6259 45.1562 75.4886 45.2586C75.3513 45.3611 75.2572 45.4969 75.2063 45.6659C75.1554 45.835 75.1299 46.1475 75.1299 46.6035V48.4517H74.132V44.371H75.0589V44.9704C75.388 44.5094 75.8023 44.2788 76.3019 44.2788C76.5221 44.2788 76.7234 44.3217 76.9057 44.4075C77.088 44.4934 77.2259 44.6029 77.3194 44.7361C77.4129 44.8693 77.4781 45.0204 77.5148 45.1895C77.5515 45.3585 77.5698 45.6006 77.5698 45.9157V48.4517Z" fill="#818181"/>
<path id="path4003" d="M79.33 45.616L78.4244 45.4392C78.5262 45.0447 78.7014 44.7527 78.95 44.5631C79.1986 44.3736 79.568 44.2788 80.0581 44.2788C80.5032 44.2788 80.8347 44.3358 81.0525 44.4498C81.2703 44.5638 81.4236 44.7085 81.5124 44.884C81.6012 45.0595 81.6456 45.3816 81.6456 45.8504L81.635 47.1107C81.6349 47.4693 81.6509 47.7338 81.6829 47.9041C81.7149 48.0745 81.7746 48.257 81.8623 48.4517H80.8749C80.8489 48.38 80.8169 48.2737 80.779 48.1328C80.7625 48.0687 80.7506 48.0264 80.7435 48.006C80.5731 48.1853 80.3907 48.3198 80.1966 48.4094C80.0024 48.4991 79.7953 48.5439 79.5751 48.5439C79.1868 48.5439 78.8808 48.4299 78.657 48.2019C78.4333 47.9739 78.3214 47.6858 78.3214 47.3374C78.3214 47.1068 78.3723 46.9013 78.4741 46.7207C78.5759 46.5401 78.7186 46.4018 78.9021 46.3057C79.0856 46.2096 79.3502 46.1257 79.6958 46.054C80.1623 45.9592 80.4855 45.8709 80.6654 45.7889V45.6813C80.6654 45.4738 80.618 45.3259 80.5233 45.2375C80.4286 45.1491 80.2499 45.1049 79.9871 45.1049C79.8095 45.1049 79.671 45.1427 79.5715 45.2183C79.4721 45.2939 79.3916 45.4264 79.33 45.616ZM80.6654 46.492C80.5375 46.5382 80.3351 46.5932 80.0581 46.6573C79.7811 46.7213 79.6 46.7841 79.5147 46.8455C79.3845 46.9455 79.3194 47.0722 79.3194 47.2259C79.3194 47.3771 79.3715 47.5077 79.4757 47.6179C79.5798 47.728 79.7124 47.7831 79.8734 47.7831C80.0534 47.7831 80.225 47.7191 80.3884 47.591C80.5091 47.4936 80.5885 47.3745 80.6263 47.2336C80.6524 47.1414 80.6654 46.9659 80.6654 46.7072V46.492Z" fill="#818181"/>
<path id="path4005" d="M82.6359 48.4509V42.8179H83.6338V48.4509H82.6359Z" fill="#818181"/>
<path id="path4007" d="M86.4678 45.6685C86.4678 45.0947 86.5471 44.6131 86.7057 44.2237C86.8241 43.9368 86.9857 43.6794 87.1905 43.4514C87.3953 43.2234 87.6196 43.0543 87.8635 42.9442C88.1879 42.7956 88.562 42.7213 88.9858 42.7213C89.7529 42.7213 90.3667 42.9788 90.8272 43.4936C91.2877 44.0085 91.518 44.7245 91.518 45.6416C91.518 46.5509 91.2895 47.2624 90.8326 47.776C90.3756 48.2896 89.7647 48.5464 89 48.5464C88.2258 48.5464 87.6102 48.2909 87.1532 47.7799C86.6963 47.2688 86.4678 46.565 86.4678 45.6685ZM87.551 45.63C87.551 46.2679 87.6871 46.7514 87.9594 47.0805C88.2317 47.4097 88.5774 47.5743 88.9964 47.5743C89.4155 47.5743 89.7594 47.411 90.0281 47.0844C90.2969 46.7578 90.4312 46.2679 90.4312 45.6147C90.4312 44.9691 90.3004 44.4876 90.0388 44.1699C89.7772 43.8523 89.4297 43.6934 88.9964 43.6934C88.5631 43.6934 88.2139 43.8542 87.9487 44.1757C87.6836 44.4972 87.551 44.9819 87.551 45.63Z" fill="#818181"/>
<path id="path4009" d="M92.2939 44.3709H93.2244V44.9703C93.3451 44.7654 93.5085 44.5989 93.7145 44.4708C93.9205 44.3427 94.1489 44.2787 94.3999 44.2787C94.8379 44.2787 95.2097 44.4644 95.5151 44.8358C95.8205 45.2073 95.9732 45.7247 95.9732 46.3882C95.9732 47.0696 95.8193 47.5992 95.5115 47.977C95.2037 48.3549 94.8308 48.5438 94.3928 48.5438C94.1845 48.5438 93.9956 48.4989 93.8264 48.4093C93.6571 48.3196 93.4789 48.1659 93.2919 47.9482V50.0039H92.2939V44.3709ZM93.2812 46.3421C93.2812 46.8006 93.3652 47.1394 93.5334 47.3584C93.7015 47.5774 93.9063 47.6869 94.1478 47.6869C94.3798 47.6869 94.5728 47.5864 94.7267 47.3853C94.8805 47.1842 94.9575 46.8544 94.9575 46.3959C94.9575 45.9681 94.8782 45.6504 94.7196 45.4429C94.5609 45.2355 94.3644 45.1317 94.13 45.1317C93.8861 45.1317 93.6837 45.2335 93.5227 45.4372C93.3617 45.6408 93.2812 45.9425 93.2812 46.3421Z" fill="#818181"/>
<path id="path4011" d="M96.7433 44.371H97.6738V44.9704C97.7945 44.7655 97.9579 44.599 98.1639 44.4709C98.3699 44.3428 98.5983 44.2788 98.8493 44.2788C99.2873 44.2788 99.6591 44.4645 99.9645 44.836C100.27 45.2074 100.423 45.7248 100.423 46.3883C100.423 47.0697 100.269 47.5993 99.9609 47.9771C99.6531 48.355 99.2802 48.5439 98.8422 48.5439C98.6339 48.5439 98.445 48.4991 98.2758 48.4094C98.1065 48.3198 97.9283 48.1661 97.7413 47.9483V50.004H96.7433V44.371ZM97.7306 46.3422C97.7306 46.8007 97.8147 47.1395 97.9828 47.3585C98.1509 47.5775 98.3557 47.687 98.5972 47.687C98.8292 47.687 99.0222 47.5865 99.1761 47.3854C99.3299 47.1843 99.4069 46.8545 99.4069 46.396C99.4069 45.9682 99.3276 45.6506 99.169 45.4431C99.0103 45.2356 98.8138 45.1318 98.5794 45.1318C98.3355 45.1318 98.1331 45.2337 97.9721 45.4373C97.8111 45.641 97.7306 45.9426 97.7306 46.3422Z" fill="#818181"/>
<path id="path4013" d="M100.982 46.3537C100.982 45.9951 101.063 45.648 101.227 45.3124C101.39 44.9768 101.621 44.7207 101.921 44.5439C102.22 44.3672 102.555 44.2788 102.924 44.2788C103.495 44.2788 103.962 44.4793 104.327 44.8801C104.692 45.281 104.874 45.7876 104.874 46.3998C104.874 47.0172 104.69 47.5289 104.322 47.9349C103.954 48.3409 103.49 48.5439 102.931 48.5439C102.586 48.5439 102.256 48.4594 101.942 48.2903C101.629 48.1212 101.39 47.8734 101.227 47.5468C101.063 47.2202 100.982 46.8225 100.982 46.3537ZM102.004 46.4114C102.004 46.8161 102.093 47.126 102.271 47.3412C102.448 47.5564 102.667 47.664 102.928 47.664C103.188 47.664 103.407 47.5564 103.583 47.3412C103.759 47.126 103.848 46.8135 103.848 46.4037C103.848 46.0041 103.759 45.6967 103.583 45.4815C103.407 45.2663 103.188 45.1587 102.928 45.1587C102.667 45.1587 102.448 45.2663 102.271 45.4815C102.093 45.6967 102.004 46.0066 102.004 46.4114Z" fill="#818181"/>
<path id="path4015" d="M106.622 48.4517H105.624V44.371H106.551V44.9512C106.71 44.6771 106.852 44.4966 106.979 44.4095C107.106 44.3224 107.25 44.2788 107.411 44.2788C107.638 44.2788 107.857 44.3467 108.068 44.4825L107.759 45.4238C107.59 45.306 107.434 45.2471 107.29 45.2471C107.15 45.2471 107.032 45.2887 106.935 45.372C106.838 45.4552 106.761 45.6057 106.706 45.8235C106.65 46.0412 106.622 46.4972 106.622 47.1914V48.4517Z" fill="#818181"/>
<path id="path4017" d="M110.219 44.3716V45.2323H109.537V46.8768C109.537 47.2098 109.543 47.4039 109.556 47.459C109.569 47.514 109.599 47.5595 109.645 47.5954C109.691 47.6312 109.748 47.6492 109.814 47.6492C109.906 47.6492 110.04 47.6146 110.215 47.5454L110.301 48.3831C110.068 48.4907 109.806 48.5444 109.512 48.5444C109.332 48.5444 109.17 48.5118 109.026 48.4465C108.881 48.3811 108.775 48.2966 108.708 48.1929C108.64 48.0891 108.593 47.9489 108.567 47.7721C108.546 47.6466 108.535 47.393 108.535 47.0113V45.2323H108.077V44.3716H108.535V43.5608L109.537 42.9307V44.3716H110.219Z" fill="#818181"/>
<path id="path4019" d="M113.405 48.4522V47.8413C113.268 48.059 113.087 48.2307 112.864 48.3562C112.64 48.4817 112.404 48.5445 112.155 48.5445C111.902 48.5445 111.675 48.4843 111.473 48.3639C111.272 48.2435 111.126 48.0744 111.036 47.8567C110.946 47.6389 110.901 47.3379 110.901 46.9537V44.3716H111.899V46.2467C111.899 46.8205 111.918 47.1721 111.955 47.3014C111.991 47.4308 112.058 47.5333 112.155 47.6088C112.252 47.6844 112.375 47.7222 112.525 47.7222C112.695 47.7222 112.848 47.6716 112.983 47.5704C113.118 47.4692 113.21 47.3437 113.26 47.1938C113.309 47.044 113.334 46.677 113.334 46.093V44.3716H114.332V48.4522H113.405Z" fill="#818181"/>
<path id="path4021" d="M118.794 48.4517H117.796V46.3691C117.796 45.9285 117.775 45.6435 117.733 45.5141C117.69 45.3848 117.621 45.2842 117.525 45.2125C117.429 45.1408 117.313 45.1049 117.178 45.1049C117.006 45.1049 116.851 45.1562 116.713 45.2586C116.576 45.3611 116.482 45.4969 116.431 45.6659C116.38 45.835 116.355 46.1475 116.355 46.6035V48.4517H115.357V44.371H116.284V44.9704C116.613 44.5094 117.027 44.2788 117.527 44.2788C117.747 44.2788 117.948 44.3217 118.13 44.4075C118.313 44.4934 118.451 44.6029 118.544 44.7361C118.638 44.8693 118.703 45.0204 118.739 45.1895C118.776 45.3585 118.794 45.6006 118.794 45.9157V48.4517Z" fill="#818181"/>
<path id="path4023" d="M119.808 43.8164V42.8174H120.806V43.8164H119.808ZM119.808 48.4504V44.3697H120.806V48.4504H119.808Z" fill="#818181"/>
<path id="path4025" d="M123.559 44.3703V45.231H122.877V46.8756C122.877 47.2086 122.883 47.4026 122.896 47.4577C122.909 47.5128 122.939 47.5582 122.985 47.5941C123.031 47.6299 123.088 47.6479 123.154 47.6479C123.246 47.6479 123.38 47.6133 123.555 47.5441L123.64 48.3818C123.408 48.4894 123.146 48.5432 122.852 48.5432C122.672 48.5432 122.51 48.5105 122.365 48.4452C122.221 48.3799 122.115 48.2953 122.048 48.1916C121.98 48.0878 121.933 47.9476 121.907 47.7708C121.886 47.6453 121.875 47.3917 121.875 47.01V45.231H121.417V44.3703H121.875V43.5595L122.877 42.9294V44.3703H123.559Z" fill="#818181"/>
<path id="path4027" d="M123.79 44.3716H124.852L125.754 47.2688L126.635 44.3716H127.668L126.337 48.2985L126.099 49.0094C126.011 49.2476 125.928 49.4295 125.848 49.555C125.769 49.6805 125.678 49.7824 125.575 49.8605C125.472 49.9386 125.345 49.9995 125.195 50.043C125.044 50.0865 124.875 50.1083 124.685 50.1083C124.493 50.1083 124.305 50.0865 124.12 50.043L124.032 49.1977C124.188 49.231 124.329 49.2476 124.454 49.2476C124.686 49.2476 124.858 49.174 124.969 49.0267C125.081 48.8794 125.166 48.6917 125.225 48.4638L123.79 44.3716Z" fill="#818181"/>
<path id="path3916" d="M114.052 39.1705C107.522 39.2136 105.307 38.2887 102.488 36.0936C99.6686 33.8985 98.3572 30.4 98.1223 25.9433H107.043C107.439 30.5301 109.983 32.3126 114.248 32.2868C117.565 32.2767 120.541 31.4916 120.191 28.1573C119.959 24.6861 114.692 25.2558 107.856 22.3617C103.066 20.936 98.4785 17.1322 98.8749 11.1961C99.4786 3.12728 106.732 0.137566 113.541 0.107399C121.666 0.10089 127.871 4.08233 127.981 12.4107L119.2 12.2887C119.16 7.37764 113.725 7.36195 113.053 7.3529C109.521 7.23721 107.773 9.1488 107.858 10.678C107.893 13.5863 111.465 14.3741 114.96 15.4923C121.525 17.5772 129.229 18.8212 129.272 27.6125C129.204 31.1161 128.238 33.7048 125.307 36.0518C123.045 37.82 119.201 39.1439 114.052 39.1705Z" fill="#818181"/>
<path id="path3952" d="M0.837036 1.69873H10.3557V38.5905H0.837036V1.69873Z" fill="#818181"/>
<path id="path3954" d="M14.3761 1.69922H42.8101V9.20702H23.6226V16.1183H42.8101V23.4408H23.6226V31.0074H42.8101V38.591H14.3761V1.69922Z" fill="#818181"/>
<path id="path3956" d="M46.4796 1.69873H55.8763V30.6652H73.2051V38.5905H46.4796V1.69873Z" fill="#818181"/>
<path id="path3958" d="M66.2999 1.69873H96.9333V9.20653H86.3195V38.5905H76.9569V9.20653H66.2999V1.69873Z" fill="#818181"/>
<path id="path4576" d="M127.068 5.98895V2.32997H125.827V1.58496H129.15V2.32997H127.912V5.98895H127.068Z" fill="#818181"/>
<path id="path4578" d="M129.681 5.98968V1.58569H130.944L131.703 4.58978L132.453 1.58569H133.719V5.98968H132.935V2.52297L132.105 5.98968H131.292L130.465 2.52297V5.98968H129.681Z" fill="#818181"/>
</g>
</g>
<defs>
<clipPath id="clip0_1_969">
<rect width="132.885" height="50" fill="white" transform="translate(0.842896 0.107391)"/>
</clipPath>
</defs>
</svg>
