<svg width="154" height="51" viewBox="0 0 154 51" fill="none" xmlns="http://www.w3.org/2000/svg">
<g id="Frame 35987">
<g id="Group">
<path id="Vector" d="M117.741 18.8135H124.262V35.3977H127.989V18.8135H134.511V15.4594H117.554V18.8135H117.741Z" fill="#818181"/>
<path id="Vector_2" d="M101.344 31.8574V19.1863H108.611C109.357 19.1863 109.916 19.7454 109.916 20.4907V30.7394C109.916 31.4847 109.357 32.0438 108.611 32.0438H101.344V31.8574ZM109.729 35.3979C111.965 35.3979 113.829 33.5345 113.829 31.2984V19.559C113.829 17.323 111.965 15.4596 109.729 15.4596H97.4312V35.2115L109.729 35.3979Z" fill="#818181"/>
<path id="Vector_3" d="M88.4947 18.6258C89.2401 18.6258 89.7991 19.1848 89.7991 19.9302V30.9242C89.7991 31.6696 89.2401 32.2286 88.4947 32.2286H81.7866C81.0412 32.2286 80.4822 31.6696 80.4822 30.9242V19.9302C80.4822 19.1848 81.0412 18.6258 81.7866 18.6258H88.4947ZM80.8549 15.0854C78.6189 15.0854 76.7555 16.9488 76.7555 19.1848V31.6696C76.7555 33.9056 78.6189 35.769 80.8549 35.769H89.6128C91.8488 35.769 93.7122 33.9056 93.7122 31.6696V19.1848C93.7122 16.9488 91.8488 15.0854 89.6128 15.0854H80.8549Z" fill="#818181"/>
<g id="Group 35919">
<path id="Vector_4" d="M137.357 31.67C137.357 33.9061 139.22 35.7694 141.456 35.7694H149.096C151.332 35.7694 153.196 33.9061 153.196 31.67V15.4585H149.469V30.9246C149.469 31.67 148.91 32.229 148.165 32.229H142.575C141.829 32.229 141.27 31.67 141.27 30.9246V15.4585H137.543V31.67H137.357Z" fill="#818181"/>
<path id="Vector_5" d="M141.271 8.56345H139.408V11.7312H141.271H143.321V8.56345H141.271Z" fill="#818181"/>
<path id="Vector_6" d="M148.725 8.56345H146.675V11.7312H148.725H150.589V8.56345H148.725Z" fill="#818181"/>
</g>
</g>
<path id="Vector_7" d="M35.6188 0.10788C33.9522 0.10788 32.1746 0.330101 30.6191 0.552324C28.9525 0.21899 27.286 0.10788 25.6194 0.10788C11.8425 0.10788 0.732056 11.3301 0.732056 25.1079C0.732056 38.8857 11.9536 50.1079 25.7305 50.1079C27.3971 50.1079 29.0636 49.8857 30.7302 49.5523C32.3968 49.8857 34.0633 50.1079 35.7299 50.1079C49.3957 50.1079 60.6173 38.8857 60.6173 25.1079C60.5062 11.3301 49.3957 0.10788 35.6188 0.10788ZM10.6203 25.1079C10.6203 12.9968 19.1754 2.99677 30.6191 0.663435V49.5523C19.1754 47.219 10.6203 37.1079 10.6203 25.1079ZM35.6188 49.3301C34.5078 49.3301 33.3967 49.219 32.3968 49.1079C42.8406 46.1079 50.6179 36.5523 50.6179 25.1079C50.6179 13.6634 42.9517 3.99677 32.3968 1.10788C33.5078 0.996768 34.6189 0.885657 35.6188 0.885657C48.9513 0.885657 59.7284 11.7745 59.7284 25.1079C59.8395 38.4412 48.9513 49.3301 35.6188 49.3301Z" fill="#818181"/>
</g>
</svg>
