<svg width="115" height="54" viewBox="0 0 115 54" fill="none" xmlns="http://www.w3.org/2000/svg">
<g id="Frame 35989">
<path id="path22" d="M46.5689 26.1616L46.1391 28.8472H48.8591C50.3754 28.8472 51.8934 27.5217 52.1486 25.9345C52.3857 24.4527 51.3649 23.2507 49.8996 23.2507C48.3405 23.2507 46.8225 24.5793 46.5689 26.1616ZM50.4462 18.9253C59.0356 18.9253 58.4889 32.3789 48.4391 32.3789H45.5743L45.4212 33.3306C45.1858 34.8092 46.2 36.018 47.7114 36.018C49.2031 36.018 50.545 34.8305 51.4472 33.7983L54.572 36.3702C52.6524 38.649 50.2304 40.3004 47.1715 40.3004C43.3632 40.3004 40.4969 37.2693 41.1504 33.189L42.3045 25.9773C42.8973 22.271 46.4568 18.9253 50.4462 18.9253Z" fill="#818181"/>
<path id="path26" d="M63.5337 14.2663L62.6709 19.094H66.8298L66.1432 23.3766H61.9761L60.4367 32.9989C60.1963 34.5024 61.6419 35.8936 63.9847 35.8936H64.5165L63.8382 40.1351H63.4514C59.0636 40.1351 55.5139 37.1828 56.2055 32.8573L59.4736 12.4387L63.5337 14.2663Z" fill="#818181"/>
<path id="path30" d="M75.2501 33.0633L75.6798 30.378H72.9599C71.4436 30.378 69.9256 31.705 69.6705 33.2907C69.4333 34.7724 70.4542 35.976 71.9194 35.976C73.4785 35.976 74.9965 34.6456 75.2501 33.0633ZM71.3728 40.2999C62.7834 40.2999 63.33 26.846 73.3797 26.846H76.2445L76.3978 25.8944C76.6331 24.4158 75.619 23.2089 74.1076 23.2089C72.6174 23.2089 71.274 24.3944 70.3718 25.4269L67.247 22.8549C69.1683 20.5761 71.5886 18.9246 74.6476 18.9246C78.4558 18.9246 81.3221 21.9559 80.6703 26.0361L79.5143 33.2479C78.9217 36.9542 75.362 40.2999 71.3728 40.2999Z" fill="#818181"/>
<path id="path34" d="M105.197 26.0802L102.948 40.1366H98.6542C99.5367 34.6242 100.432 29.1509 100.951 25.9765C101.226 24.1636 100.255 23.2531 98.7596 23.2531C97.3388 23.2531 95.9508 24.3843 95.5836 25.8052L95.5458 26.0753L93.2968 40.1366H89.0259L91.2733 25.9369C91.5138 24.4402 90.5161 23.2531 89.1084 23.2531C87.5919 23.2531 86.1215 24.539 85.8747 26.0802L83.6256 40.1366H79.3728L81.645 25.9369C82.2442 22.1928 85.6145 18.9688 89.6482 18.9688C91.5235 18.9688 93.0959 19.7132 94.158 20.9184C95.5573 19.7245 97.3502 18.9688 99.2997 18.9688C103.271 18.9688 105.805 22.285 105.197 26.0802Z" fill="#818181"/>
<path id="path38" d="M11.007 33.4065L13.2559 19.3519H17.5498C16.6673 24.8644 15.7717 30.3375 15.2531 33.5104C14.9782 35.323 15.9494 36.2353 17.4444 36.2353C18.8653 36.2353 20.2533 35.1025 20.6205 33.6817L22.9073 19.3519H27.1783L24.9308 33.5499C24.6905 35.0465 24.0845 36.9335 22.0282 38.6854C20.6303 39.8791 18.8538 40.5181 16.9044 40.5181C12.9332 40.5181 10.3994 37.2019 11.007 33.4065Z" fill="#818181"/>
<path id="path42" fill-rule="evenodd" clip-rule="evenodd" d="M30.7003 48.4697C28.5848 48.4697 26.5563 47.2497 25.1519 45.7777L28.0825 42.4434C28.8711 43.1961 30.078 44.1445 31.2469 44.1445C32.8719 44.1445 34.3982 42.8766 34.642 41.3583L34.8772 39.8896C33.975 40.2503 33.0168 40.4528 32.0439 40.4528C31.1301 40.4528 30.2838 40.2766 29.5315 39.9589C26.4361 38.8573 25.4927 36.2673 25.985 33.1966L27.1934 25.6423C27.4701 23.9117 28.5369 22.262 29.9446 21.0501C31.428 19.746 33.338 18.926 35.3006 18.926C39.392 18.926 41.9668 22.3986 41.361 26.1823L40.6515 30.633C39.7245 36.4256 39.9779 48.4697 30.7003 48.4697ZM34.8049 23.3321C33.1272 23.3321 31.7327 24.0254 31.456 25.7362C31.023 28.4677 30.4089 32.3799 30.1817 33.8025C29.8475 35.2926 31.0132 36.0995 32.7008 36.0995C34.1299 36.0995 35.6397 35.1164 35.8686 33.6872C35.9295 33.3085 36.7723 28.6176 37.2465 25.7822C37.4441 24.3612 36.364 23.3832 34.8049 23.3321Z" fill="#818181"/>
<path id="path64" d="M29.5278 19.2879C47.021 -5.3525 60.7044 14.587 77.1079 16.1742C77.6414 16.2287 89.8102 17.8801 106.805 7.65333C110.285 5.52782 113.127 3.2424 114.844 1.0921C108.108 5.0783 99.2194 6.99314 88.3316 5.31205C79.6335 3.96844 72.7233 0.859871 63.1808 0.593184C62.7133 0.579943 62.2506 0.573328 61.7929 0.573328C46.6158 0.573328 36.4294 7.71919 29.5278 19.2879Z" fill="#818181"/>
<path id="path88" d="M16.6866 42.8042C13.955 43.3951 11.553 43.2603 8.69327 44.2678C3.91511 45.9506 1.59538 49.298 0.842896 53.64C2.52066 47.0983 6.14777 47.3156 9.90814 47.5329C11.4922 47.6253 13.1007 47.7173 14.5972 47.3026C14.7601 47.2579 18.5551 46.3606 22.4309 41.3949C23.2196 40.3691 23.8023 39.3678 24.0674 38.5347C22.5231 40.4841 20.108 42.0632 16.6866 42.8042Z" fill="#818181"/>
</g>
</svg>
