<svg width="24" height="25" viewBox="0 0 24 25" fill="none" xmlns="http://www.w3.org/2000/svg">
<g id="tabler:brand-instagram">
<g id="Group">
<path id="Vector" d="M4 8.64056C4 7.5797 4.42143 6.56228 5.17157 5.81214C5.92172 5.06199 6.93913 4.64056 8 4.64056H16C17.0609 4.64056 18.0783 5.06199 18.8284 5.81214C19.5786 6.56228 20 7.5797 20 8.64056V16.6406C20 17.7014 19.5786 18.7188 18.8284 19.469C18.0783 20.2191 17.0609 20.6406 16 20.6406H8C6.93913 20.6406 5.92172 20.2191 5.17157 19.469C4.42143 18.7188 4 17.7014 4 16.6406V8.64056Z" stroke="#50535E" stroke-width="1.5" stroke-linecap="round" stroke-linejoin="round"/>
<path id="Vector_2" d="M16.5 8.14056V8.15056M9 12.6406C9 13.4362 9.31607 14.1993 9.87868 14.7619C10.4413 15.3245 11.2044 15.6406 12 15.6406C12.7956 15.6406 13.5587 15.3245 14.1213 14.7619C14.6839 14.1993 15 13.4362 15 12.6406C15 11.8449 14.6839 11.0819 14.1213 10.5192C13.5587 9.95663 12.7956 9.64056 12 9.64056C11.2044 9.64056 10.4413 9.95663 9.87868 10.5192C9.31607 11.0819 9 11.8449 9 12.6406Z" stroke="#50535E" stroke-width="1.5" stroke-linecap="round" stroke-linejoin="round"/>
</g>
</g>
</svg>
