<svg width="61" height="29" viewBox="0 0 61 29" fill="none" xmlns="http://www.w3.org/2000/svg">
<g id="Frame 36029">
<g id="Group 35920">
<path id="Vector" d="M5.91121 0.693996C5.91121 0.717665 5.79878 0.759085 5.66269 0.782755C5.5266 0.806423 5.38458 0.841927 5.34908 0.865595C5.31949 0.889263 5.1834 0.948435 5.05322 0.989855C4.72186 1.09045 4.5621 1.17329 4.24257 1.39222C4.08873 1.49873 3.9408 1.58749 3.91713 1.58749C3.85204 1.58749 3.18932 2.25613 3.18932 2.3153C3.18932 2.34488 3.12423 2.44548 3.04139 2.54607C2.95855 2.64074 2.89346 2.75908 2.89346 2.80642C2.89346 2.85376 2.86979 2.88926 2.84612 2.88926C2.8047 2.88926 2.64494 3.21471 2.6331 3.33305C2.62719 3.36264 2.60944 3.42181 2.58577 3.45139C2.56802 3.4869 2.53251 3.61707 2.50884 3.74725C2.48518 3.87743 2.43192 4.01944 2.39642 4.06678C2.31358 4.17329 2.31949 6.88334 2.40825 6.98985C2.43784 7.02536 2.48518 7.29755 2.50884 7.5934C2.53251 7.88334 2.56802 8.14962 2.58577 8.18512C2.60352 8.21471 2.61535 8.32713 2.60352 8.42772C2.5976 8.53423 2.61535 8.63482 2.64494 8.65258C2.68044 8.67033 2.72186 8.96619 2.74553 9.30938C2.7692 9.65258 2.81062 9.94843 2.8402 9.96619C2.91121 10.0076 2.91121 11.8064 2.8402 11.8478C2.81062 11.8715 2.7692 11.9899 2.74553 12.12C2.72186 12.2443 2.62719 12.4573 2.53251 12.5934C2.43784 12.7236 2.36091 12.8538 2.36091 12.8893C2.36091 12.9721 1.71594 13.3745 1.47334 13.4396C1.36091 13.4691 1.22482 13.5106 1.17748 13.5283C1.13015 13.5461 0.863874 13.5934 0.585767 13.623L0.0828085 13.6881L0.065057 14.6171L0.0532227 15.5401L0.420087 15.5697C0.928962 15.6052 1.5621 15.7591 1.79878 15.907C2.04731 16.0609 2.66861 16.7295 2.62719 16.7946C2.60944 16.8242 2.62127 16.8597 2.65086 16.8833C2.68636 16.9011 2.72778 17.0372 2.75145 17.1792C2.7692 17.3271 2.81062 17.4632 2.8402 17.481C2.91121 17.5224 2.91121 19.1437 2.8402 19.1851C2.81654 19.2029 2.7692 19.4869 2.75145 19.8123C2.72778 20.1378 2.68044 20.4218 2.65086 20.4396C2.61535 20.4573 2.5976 20.5757 2.60352 20.694C2.61535 20.8123 2.60352 20.9366 2.58577 20.9721C2.5621 21.0017 2.5266 21.268 2.50293 21.5579C2.48518 21.8538 2.43784 22.1259 2.40234 22.1674C2.30766 22.2857 2.31358 25.1496 2.40825 25.1851C2.44376 25.197 2.47926 25.268 2.47926 25.3449C2.47926 25.4218 2.50884 25.5579 2.55026 25.6526C2.59168 25.7413 2.62127 25.8419 2.62719 25.8774C2.62719 25.907 2.72186 26.12 2.82837 26.3508C3.01772 26.7354 3.17748 26.9662 3.49701 27.3271C3.66861 27.5106 4.25441 27.978 4.31949 27.978C4.34316 27.978 4.46742 28.0431 4.58577 28.1259C4.70411 28.2088 4.91121 28.3035 5.04731 28.3449C5.1834 28.3804 5.31949 28.4336 5.34908 28.4573C5.50884 28.5697 6.14198 28.6289 7.15381 28.6289H8.27808V27.7117C8.27808 27.2088 8.28399 26.7768 8.29583 26.7472C8.30174 26.7236 7.98813 26.6881 7.5976 26.6703C7.20707 26.6526 6.78103 26.6052 6.65086 26.5638C5.71594 26.268 5.13606 25.6467 5.04139 24.8478C5.02364 24.6822 4.98222 24.5283 4.95855 24.5106C4.88754 24.4691 4.88754 22.6112 4.95855 22.5697C4.98222 22.552 5.02955 22.2265 5.04731 21.8419C5.07097 21.4573 5.11239 21.1141 5.14198 21.0845C5.22482 20.978 5.31949 19.6112 5.31949 18.5579C5.31949 17.5461 5.24849 16.8183 5.13606 16.7117C5.10648 16.6762 5.08281 16.6171 5.08281 16.5697C5.08281 16.4455 4.81062 15.8833 4.70411 15.7946C4.65086 15.7532 4.60944 15.6762 4.60944 15.6348C4.60944 15.5875 4.59168 15.552 4.5621 15.552C4.53843 15.552 4.34908 15.4041 4.1479 15.2265C3.9408 15.049 3.74553 14.9011 3.71003 14.9011C3.67452 14.9011 3.59168 14.8538 3.53251 14.8005C3.47334 14.7473 3.30766 14.6822 3.17157 14.6644C2.93488 14.6289 2.92896 14.623 3.07097 14.5638C3.5621 14.3567 3.83429 14.2029 4.05322 14.0194C4.15381 13.9366 4.33725 13.7828 4.44967 13.6881C4.56802 13.5875 4.66861 13.4869 4.66861 13.4573C4.66861 13.4336 4.74553 13.3094 4.84021 13.191C4.93488 13.0727 5.02955 12.8833 5.05322 12.7709C5.07689 12.6585 5.11831 12.5342 5.14198 12.5046C5.24849 12.3567 5.31949 11.6585 5.31949 10.7117C5.31949 9.65258 5.22482 8.29163 5.13606 8.18512C5.11239 8.14962 5.07097 7.8005 5.04731 7.39814C5.02364 7.00169 4.98222 6.65849 4.95855 6.64074C4.88754 6.59932 4.88754 4.85968 4.95855 4.81826C4.98222 4.8005 5.02364 4.63482 5.04139 4.45139C5.05914 4.26796 5.10648 4.08453 5.13606 4.05494C5.17157 4.01944 5.20115 3.9366 5.20115 3.87743C5.20115 3.81234 5.37867 3.58749 5.60352 3.36855C6.13606 2.83601 6.46742 2.71175 7.52068 2.65849L8.28399 2.62299V1.64666V0.670328L7.10056 0.652576C6.43192 0.64666 5.91121 0.658493 5.91121 0.693996Z" fill="#50535E"/>
<path id="Vector_2" d="M8.81055 1.63471V2.63471L9.57978 2.67021C9.9999 2.68796 10.3786 2.72346 10.42 2.75305C10.4614 2.77672 10.6153 2.84181 10.7573 2.88914C11.0413 2.98974 11.5561 3.40394 11.781 3.71755C11.8638 3.82997 11.9466 4.03116 11.9762 4.16133C11.9999 4.29151 12.0354 4.42169 12.0532 4.45719C12.0709 4.48678 12.0827 4.58737 12.0709 4.67613C12.065 4.75897 12.0827 4.84772 12.1182 4.87139C12.2011 4.91873 12.207 6.43944 12.1242 6.43944C12.0946 6.43944 12.065 6.55779 12.065 6.70571C12.065 7.10216 11.9466 8.17317 11.8875 8.27968C11.8638 8.32701 11.8224 8.69388 11.7987 9.09033C11.775 9.48678 11.7336 9.81222 11.704 9.81222C11.633 9.81222 11.633 11.4513 11.704 11.4927C11.7277 11.5104 11.775 11.7175 11.7987 11.9542C11.8165 12.1909 11.8579 12.4099 11.8816 12.4454C11.9052 12.4749 11.9585 12.617 12.0058 12.7531C12.0472 12.8951 12.1064 13.0075 12.136 13.0075C12.1597 13.0075 12.1833 13.0489 12.1833 13.0962C12.1833 13.1495 12.4023 13.4099 12.6745 13.682C13.0532 14.0667 13.2603 14.2205 13.633 14.4039C14.0117 14.5874 14.0768 14.6347 13.9585 14.6525C13.633 14.6939 13.1478 14.9957 12.704 15.4454C12.4496 15.6939 12.2425 15.9424 12.2425 15.9957C12.2425 16.043 12.207 16.1022 12.1597 16.1199C12.1182 16.1377 12.0472 16.2619 12.0058 16.398C11.9585 16.5341 11.9052 16.6702 11.8816 16.7057C11.8579 16.7353 11.8224 16.972 11.7987 17.2264C11.775 17.4749 11.7336 17.6998 11.704 17.7175C11.633 17.759 11.633 19.3389 11.704 19.3389C11.7336 19.3389 11.775 19.6761 11.7987 20.0903C11.8224 20.5104 11.8638 20.8714 11.8875 20.9069C11.9111 20.9365 11.9703 21.3625 12.0117 21.8536C12.0472 22.3388 12.1064 22.7649 12.136 22.8004C12.2011 22.8714 12.2011 24.327 12.136 24.398C12.1064 24.4335 12.0532 24.6288 12.0176 24.8418C11.9762 25.0548 11.8993 25.3388 11.8342 25.469C11.704 25.7353 11.2011 26.2323 10.9585 26.3329C10.3549 26.5755 10.1597 26.6229 9.50877 26.6584L8.81055 26.6939V27.6643V28.6406L10.1301 28.617C11.2425 28.5992 11.4792 28.5815 11.6804 28.4927C12.5443 28.0962 12.7573 27.9897 12.9407 27.8418C13.0532 27.7531 13.1774 27.682 13.2188 27.682C13.2543 27.682 13.3608 27.6051 13.4555 27.5045C13.5502 27.4099 13.6034 27.327 13.5798 27.327C13.5561 27.327 13.6685 27.1732 13.8342 26.9838C13.9999 26.7945 14.136 26.6051 14.136 26.5696C14.136 26.5282 14.1597 26.4986 14.1833 26.4986C14.2129 26.4986 14.2721 26.3862 14.3135 26.2442C14.3608 26.1081 14.4318 25.9424 14.4733 25.8773C14.5147 25.8122 14.5502 25.6643 14.5502 25.5519C14.5502 25.4335 14.5857 25.3033 14.6271 25.2619C14.7218 25.1673 14.7277 22.0607 14.633 21.9365C14.5975 21.8891 14.5502 21.5637 14.5265 21.2028C14.5029 20.8477 14.4614 20.5282 14.4378 20.4927C14.3431 20.3803 14.2366 18.8714 14.2662 17.9838C14.2839 17.327 14.3135 17.0726 14.3786 16.9661C14.4318 16.8891 14.491 16.7531 14.5088 16.6643C14.5502 16.4927 15.0354 16.0312 15.3372 15.8714C15.5443 15.7649 16.1242 15.6229 16.6094 15.5637L16.923 15.5223V14.6051V13.688L16.4614 13.6288C16.207 13.5933 15.9762 13.5519 15.9407 13.5341C15.9111 13.5104 15.7691 13.4749 15.633 13.4513C15.4969 13.4276 15.3194 13.3625 15.2366 13.2974C15.1597 13.2383 15.0709 13.185 15.0413 13.185C14.9526 13.185 14.5857 12.759 14.4792 12.5341C14.2958 12.1613 14.2543 11.8655 14.2543 11.0075C14.2543 10.0903 14.3549 8.75305 14.4318 8.65838C14.4555 8.62287 14.4969 8.29151 14.5206 7.91873C14.5443 7.54595 14.5916 7.20275 14.6271 7.15542C14.7218 7.04299 14.7218 4.12583 14.633 4.00749C14.5975 3.96015 14.5502 3.8063 14.5324 3.65838C14.4969 3.41577 14.3904 3.10808 14.2484 2.88914C14.2188 2.84181 14.1597 2.7353 14.1242 2.65246C13.9821 2.36843 13.3372 1.69388 13.0117 1.49861C12.349 1.10216 11.7632 0.841808 11.3904 0.788553C11.2425 0.764885 11.1182 0.723465 11.1182 0.693878C11.1182 0.664293 10.5975 0.640625 9.96439 0.640625H8.81055V1.63471Z" fill="#50535E"/>
<path id="Vector_3" d="M7.3313 14.5757V26.0254H8.30763H9.28396V14.5757V3.12598H8.30763H7.3313V14.5757Z" fill="#50535E"/>
</g>
<g id="Group 35921">
<path id="Vector_4" d="M48.3966 1.85368V2.71167H49.2546H50.1126V1.85368V0.995694H49.2546H48.3966V1.85368Z" fill="#50535E"/>
<path id="Vector_5" d="M50.7633 1.85368V2.71167H51.6213H52.4793V1.85368V0.995694H51.6213H50.7633V1.85368Z" fill="#50535E"/>
<path id="Vector_6" d="M56.7101 3.27967C56.3905 3.327 55.8284 3.55186 55.6154 3.71754C55.503 3.80629 55.3491 3.90689 55.2781 3.94831C55.2012 3.98381 55.142 4.05481 55.142 4.09623C55.142 4.13765 55.0888 4.2205 55.0296 4.27375C54.9172 4.37434 54.6509 4.85955 54.6332 4.98973C54.6332 5.01931 54.6036 5.10215 54.574 5.16724C54.503 5.32109 54.503 7.20274 54.574 7.35659C54.6036 7.42168 54.6332 7.4986 54.6332 7.5341C54.6509 7.66428 54.8225 7.96014 55.0059 8.19683C55.1124 8.33292 55.2012 8.46902 55.2012 8.4986C55.2012 8.56961 55.7397 9.05481 56.213 9.41576C56.858 9.90097 57.3314 10.2264 57.3846 10.2264C57.5089 10.2264 58.2663 11.043 58.3965 11.3152C58.7397 12.0371 58.3905 12.7708 57.7042 12.7708C57.5089 12.7708 57.4083 12.7294 57.2426 12.5874C57.1302 12.4868 57.0355 12.3507 57.0355 12.2915C57.0355 12.2323 57.0119 12.1791 56.9763 12.1791C56.9468 12.1791 56.9172 12.0311 56.9172 11.8536V11.5282H55.6982H54.4734L54.503 12.1732C54.5148 12.54 54.5621 12.8595 54.5976 12.9069C54.6391 12.9483 54.6509 13.0016 54.6391 13.0193C54.6213 13.0371 54.6746 13.1791 54.7633 13.3388C54.8521 13.4986 54.9586 13.6939 55 13.7826C55.0888 13.9424 55.3077 14.1672 55.4852 14.2737C55.9231 14.5282 56.2308 14.6643 56.4379 14.6998C56.574 14.7235 56.6982 14.7649 56.716 14.7885C56.7574 14.8595 58.6154 14.8595 58.6568 14.7885C58.6746 14.7649 58.7988 14.7235 58.929 14.6998C59.4083 14.6229 60.4083 13.9779 60.4083 13.7412C60.4083 13.7057 60.4497 13.6406 60.4971 13.5992C60.5444 13.5578 60.6154 13.4158 60.6509 13.2797C60.6805 13.1495 60.7515 12.9542 60.7988 12.8477C60.8462 12.7471 60.8817 12.5282 60.8817 12.3684C60.8817 12.2027 60.9113 12.0489 60.9408 12.0311C61.0119 11.9838 61.0178 11.4276 60.9468 11.3862C60.9231 11.3684 60.8817 11.2027 60.8639 11.0252C60.8462 10.8418 60.8047 10.6584 60.7752 10.6229C60.7515 10.5814 60.6923 10.4394 60.645 10.3033C60.6036 10.1672 60.5326 10.043 60.4911 10.0252C60.4438 10.0075 60.4083 9.95422 60.4083 9.90689C60.4083 9.80629 59.1894 8.56961 59.0947 8.56961C59.0592 8.56961 58.8994 8.4631 58.7397 8.33292C58.574 8.20274 58.4142 8.09623 58.3846 8.09623C58.2604 8.09623 57.213 7.23825 57.213 7.13765C57.213 7.10807 57.142 6.98973 57.0533 6.8773C56.9408 6.72937 56.8876 6.57552 56.8698 6.35067C56.8225 5.80629 56.8817 5.66428 57.2071 5.44535C57.5503 5.22641 57.6864 5.21458 58.0119 5.39209C58.3077 5.55777 58.3965 5.72937 58.3965 6.15541V6.4986H59.6982H61V6.327C61 6.22641 60.9763 6.13765 60.9468 6.1199C60.9231 6.10215 60.8817 5.88322 60.8639 5.64061C60.8462 5.39209 60.8047 5.15541 60.7811 5.1199C60.7515 5.07848 60.6923 4.93647 60.645 4.79446C60.6036 4.65837 60.5444 4.54594 60.5148 4.54594C60.4911 4.54594 60.4675 4.51635 60.4675 4.48085C60.4675 4.26783 59.7397 3.61103 59.4024 3.51635C59.3195 3.49268 59.1598 3.4276 59.0474 3.37434C58.8876 3.30334 58.6095 3.27967 57.8639 3.26783C57.3255 3.26192 56.8107 3.26783 56.7101 3.27967Z" fill="#50535E"/>
<path id="Vector_7" d="M19.2071 3.39794C19.1834 3.42161 19.1656 5.96599 19.1656 9.05475V14.6642H20.4083H21.6509V12.9246C21.6509 11.966 21.6686 11.1435 21.6864 11.0903C21.7455 10.9305 21.8225 10.9837 21.8875 11.2441C21.923 11.3861 21.9881 11.5755 22.0355 11.6761C22.1361 11.895 22.2012 12.0725 22.213 12.1494C22.2307 12.2323 22.2958 12.4157 22.3905 12.6228C22.4378 12.7175 22.5029 12.9127 22.5384 13.0488C22.5739 13.1849 22.6272 13.3151 22.6509 13.3329C22.6804 13.3506 22.7219 13.469 22.7455 13.5991C22.7692 13.7293 22.8047 13.8358 22.8284 13.8358C22.852 13.8358 22.9112 13.9837 22.9526 14.1613C22.9941 14.3388 23.0532 14.4867 23.0828 14.4867C23.1065 14.4867 23.1301 14.54 23.1301 14.605C23.1301 14.7234 23.1716 14.7234 25.6686 14.7234H28.2012L28.2426 14.4985C28.2603 14.3802 28.2781 14.1968 28.2781 14.0962C28.2781 14.0015 28.3017 13.895 28.3313 13.8595C28.3609 13.8299 28.3964 13.7411 28.4083 13.6583C28.426 13.5104 28.4319 13.5104 29.1006 13.4926C29.5443 13.4808 29.7988 13.4985 29.852 13.5459C29.8994 13.5873 29.9349 13.7234 29.9349 13.8713C29.9349 14.0074 29.9645 14.1435 29.9941 14.1613C30.0296 14.179 30.0532 14.3033 30.0532 14.4334V14.6642H31.3254C32.4142 14.6642 32.5976 14.6524 32.5976 14.5755C32.5976 14.5281 32.5739 14.4867 32.5503 14.4867C32.5207 14.4867 32.4674 14.2263 32.426 13.9068C32.3846 13.5932 32.3313 13.3033 32.3017 13.2737C32.2781 13.2382 32.2367 13.0547 32.213 12.8595C32.1893 12.6642 32.1538 12.4749 32.1301 12.4453C32.1006 12.4098 32.0473 12.1139 32.0059 11.7766C31.9645 11.4453 31.9112 11.1613 31.8875 11.1435C31.8639 11.1258 31.8225 10.9305 31.7988 10.6997C31.7751 10.4749 31.7396 10.2855 31.7159 10.2855C31.6923 10.2855 31.639 9.98966 31.5917 9.63463C31.5503 9.27368 31.497 8.98374 31.4733 8.98374C31.4497 8.98374 31.4083 8.80623 31.3846 8.58138C31.3609 8.36244 31.3136 8.14942 31.284 8.11392C31.2485 8.0725 31.2367 7.98374 31.2544 7.91865C31.2722 7.85357 31.2662 7.78848 31.2367 7.77073C31.213 7.75297 31.1716 7.54587 31.1479 7.29735C31.1242 7.05475 31.0887 6.84173 31.0591 6.82398C31.0296 6.80623 30.9881 6.6228 30.9704 6.40978C30.9467 6.19676 30.9053 6.01333 30.8816 5.99558C30.852 5.97783 30.8461 5.91274 30.8639 5.84765C30.8816 5.78256 30.8698 5.6938 30.8343 5.65238C30.8047 5.61688 30.7574 5.38611 30.7337 5.14942C30.71 4.91865 30.6686 4.71155 30.6449 4.6938C30.6213 4.67605 30.568 4.39794 30.5207 4.0725C30.4615 3.60504 30.426 3.46303 30.3432 3.4157C30.2781 3.38611 29.7396 3.36836 29.0651 3.37428C28.071 3.39203 27.8935 3.40386 27.8935 3.48078C27.8935 3.52812 27.8757 3.59913 27.852 3.62871C27.8284 3.66422 27.7929 3.85948 27.7692 4.06067C27.7514 4.26185 27.71 4.44528 27.6804 4.45712C27.6568 4.47487 27.6154 4.6583 27.5976 4.87132C27.5739 5.08433 27.5325 5.26777 27.5088 5.28552C27.4852 5.29735 27.4793 5.38019 27.497 5.46303C27.5088 5.54587 27.497 5.64646 27.4615 5.68789C27.4319 5.72339 27.3846 5.93641 27.3609 6.15534C27.3432 6.37428 27.3017 6.56954 27.2722 6.58729C27.2485 6.59913 27.2071 6.78848 27.1834 7.00149C27.1657 7.21451 27.1242 7.39794 27.1006 7.4157C27.071 7.42753 27.0651 7.51037 27.0828 7.59321C27.0946 7.67605 27.0828 7.77664 27.0473 7.81806C27.0177 7.85357 26.9704 8.06067 26.9526 8.27368C26.929 8.4867 26.8875 8.68197 26.8639 8.71747C26.8343 8.74706 26.781 9.037 26.7396 9.35652C26.6982 9.67013 26.6449 9.94824 26.6213 9.96007C26.5917 9.97783 26.5562 10.1908 26.5325 10.4334C26.5088 10.6761 26.4674 10.8772 26.4438 10.8772C26.4201 10.8772 26.3668 11.1435 26.3254 11.469C26.284 11.7944 26.2307 12.0725 26.2071 12.0903C26.1834 12.108 26.142 12.3151 26.1183 12.5459C26.0946 12.7826 26.0473 13.0133 26.0177 13.0488C25.9822 13.0903 25.9704 13.179 25.9881 13.2441C26.0059 13.3092 26 13.3743 25.9704 13.392C25.9467 13.4098 25.9053 13.605 25.8816 13.8358C25.858 14.0607 25.8165 14.25 25.787 14.25C25.7574 14.25 25.7337 14.2974 25.7278 14.3506C25.7278 14.4275 25.71 14.4157 25.6627 14.3092C25.6272 14.2263 25.6035 14.1258 25.6094 14.0843C25.6154 14.0488 25.5976 14.0133 25.568 14.0133C25.5325 14.0133 25.4911 13.9423 25.4733 13.8476C25.4497 13.7589 25.3964 13.605 25.355 13.5104C25.3077 13.4098 25.2189 13.2086 25.1479 13.0607C25.0769 12.9127 25.0236 12.7411 25.0236 12.6879C25.0236 12.6346 25 12.5932 24.9704 12.5932C24.9408 12.5932 24.8935 12.5045 24.8757 12.3979C24.852 12.2974 24.781 12.1139 24.7219 12.0015C24.5858 11.7352 24.4319 11.3743 24.4319 11.321C24.4319 11.2737 24.2603 10.8832 24.1065 10.5814C24.0651 10.4985 24.0118 10.3447 23.9881 10.2382C23.9704 10.1376 23.929 10.0488 23.8994 10.0488C23.8698 10.0488 23.8284 9.96007 23.8106 9.85357C23.787 9.75297 23.7337 9.59913 23.6923 9.51629C23.1834 8.51037 23.1716 8.61688 24.0059 6.97191C24.3964 6.2086 24.9526 5.11392 25.2426 4.54587C25.5266 3.97783 25.781 3.49854 25.8106 3.49262C25.8343 3.48078 25.8402 3.44528 25.8165 3.4157C25.7751 3.33877 23.2722 3.34469 23.1242 3.42161C23.0651 3.45712 23.0118 3.52812 23.0118 3.58138C23.0118 3.64055 22.71 4.28552 22.3491 5.01925L21.6804 6.35061L21.6509 4.87132L21.6213 3.39203L20.4319 3.37428C19.781 3.36836 19.2307 3.38019 19.2071 3.39794ZM29.2544 8.83581C29.2781 9.14351 29.3254 9.4157 29.355 9.43345C29.3846 9.4512 29.4023 9.58138 29.3964 9.71747C29.3846 9.85357 29.3964 9.98966 29.4142 10.0192C29.4319 10.0547 29.4674 10.3151 29.4911 10.611C29.5148 10.9009 29.5621 11.179 29.5917 11.2145C29.639 11.2737 29.5562 11.2914 29.2012 11.2914C28.8343 11.2914 28.7396 11.2737 28.71 11.1968C28.6923 11.1435 28.7041 11.0547 28.7337 10.9956C28.7692 10.9423 28.8165 10.6583 28.8402 10.3684C28.8639 10.0784 28.9112 9.81215 28.9408 9.77073C28.9704 9.72931 28.9881 9.60504 28.9822 9.49262C28.9704 9.38019 28.9822 9.26777 29.0059 9.2441C29.0296 9.22043 29.0473 9.11392 29.0473 9.01333C29.0473 8.71155 29.1183 8.27368 29.1657 8.27368C29.1952 8.27368 29.2307 8.52812 29.2544 8.83581Z" fill="#50535E"/>
<path id="Vector_8" d="M32.8758 3.39803C32.8521 3.4217 32.8344 5.96608 32.8344 9.05484V14.6643L34.0651 14.6525L35.29 14.6347L35.3196 12.83C35.3373 11.8359 35.361 11.0193 35.3669 11.0075C35.4261 10.9424 35.503 11.0371 35.5562 11.2442C35.5917 11.3862 35.6568 11.5637 35.6983 11.6466C35.7456 11.7294 35.7988 11.8892 35.8225 12.0016C35.8462 12.114 35.8876 12.2442 35.9113 12.2974C36.0059 12.4809 36.1125 12.7412 36.1243 12.8004C36.1361 12.8832 36.2012 13.0667 36.2959 13.2738C36.3432 13.3684 36.3965 13.5282 36.4201 13.6288C36.4438 13.7235 36.4734 13.83 36.4971 13.8655C36.5148 13.8951 36.5326 13.9365 36.5385 13.9542C36.5385 13.972 36.574 14.0608 36.6095 14.1495C36.6509 14.2442 36.6805 14.3507 36.6805 14.3862C36.6805 14.4276 36.7219 14.5045 36.7633 14.5578C36.8344 14.6525 36.9764 14.6643 38.1775 14.6643H39.5089L39.3787 14.4099C39.3018 14.2738 39.213 14.0548 39.1716 13.9247C39.1302 13.7945 39.0592 13.6051 39.0178 13.5105C38.9704 13.4099 38.8876 13.2146 38.8225 13.0667C38.7574 12.9187 38.6628 12.7057 38.6095 12.5815C38.5562 12.4631 38.5148 12.327 38.5148 12.2738C38.5148 12.2205 38.4852 12.1791 38.4557 12.1791C38.4201 12.1791 38.4024 12.1613 38.4083 12.1318C38.4142 12.1081 38.3846 12.0075 38.3373 11.9128C38.2959 11.8122 38.2308 11.6525 38.1835 11.5578C38.1184 11.404 38.0415 11.2087 38.0119 11.114C38.0059 11.0963 37.9704 11.0016 37.9231 10.9069C37.8817 10.8063 37.8166 10.6466 37.7752 10.5519C37.7338 10.4513 37.645 10.2501 37.574 10.1022C37.503 9.95425 37.4497 9.78265 37.4497 9.7294C37.4497 9.67614 37.4261 9.63472 37.3965 9.63472C37.3669 9.63472 37.3196 9.54596 37.3018 9.43945C37.2781 9.33886 37.2012 9.1436 37.1361 9.01342C36.9349 8.61697 36.9172 8.57555 36.9172 8.45721C36.9172 8.39212 36.9349 8.33295 36.9645 8.32111C37.0119 8.29744 37.3314 7.65839 37.3314 7.56963C37.3314 7.54005 37.3491 7.50454 37.3787 7.49271C37.4261 7.46904 37.7456 6.82999 37.7456 6.74123C37.7456 6.71164 37.7633 6.67614 37.7929 6.66431C37.8462 6.64064 38.1598 5.99567 38.1598 5.91283C38.1598 5.87732 38.1775 5.84774 38.2071 5.84774C38.2308 5.84774 38.2781 5.78857 38.3136 5.71164C38.3491 5.64064 38.6273 5.10218 38.9231 4.51638C39.219 3.93058 39.4616 3.43354 39.4616 3.40395C39.4616 3.38028 38.858 3.36845 38.1243 3.37437C37 3.39212 36.7752 3.40395 36.7397 3.48088C36.6983 3.56371 36.5562 3.88324 36.5326 3.95425C36.4438 4.19093 36.3491 4.36845 36.3136 4.36845C36.29 4.36845 36.2663 4.39803 36.2663 4.43354C36.2663 4.51638 35.9527 5.16135 35.8994 5.18502C35.8699 5.19685 35.8521 5.23235 35.8521 5.26194C35.8521 5.33295 35.5444 5.98383 35.4912 6.02525C35.4734 6.043 35.432 6.11993 35.4024 6.20277C35.3669 6.29744 35.3373 5.8359 35.3196 4.87141L35.29 3.39212L34.1006 3.37437C33.4497 3.36845 32.8994 3.38028 32.8758 3.39803Z" fill="#50535E"/>
<path id="Vector_9" d="M40.0177 3.43945C40.0059 3.48088 39.9999 3.96608 40.0059 4.51638L40.0236 5.52229L40.9881 5.54005L41.9467 5.55188V10.1081V14.6643H43.1893H44.4319V10.1081V5.55188L45.4556 5.54005L46.4733 5.52229V4.45721V3.39212L43.2603 3.37437C40.6745 3.36253 40.0414 3.37437 40.0177 3.43945Z" fill="#50535E"/>
<path id="Vector_10" d="M47.2544 3.39801C47.1952 3.4631 47.2012 12.5933 47.2663 12.5933C47.2899 12.5933 47.3313 12.7057 47.3491 12.8477C47.4615 13.6465 48.3728 14.5755 49.1716 14.6998C49.3018 14.7235 49.4201 14.7649 49.4379 14.7885C49.4793 14.8595 51.3964 14.8595 51.4379 14.7885C51.4556 14.7649 51.5739 14.7235 51.7041 14.6998C52.0947 14.6406 52.645 14.3093 52.9881 13.9306C53.1657 13.7353 53.3077 13.5459 53.3077 13.4986C53.3077 13.4572 53.3313 13.4217 53.355 13.4217C53.3846 13.4217 53.4438 13.2678 53.4852 13.0785C53.5266 12.8951 53.5858 12.7057 53.6272 12.6584C53.6745 12.5992 53.6982 11.3033 53.71 7.96606L53.7278 3.36251L52.4674 3.37434L51.2071 3.39209L51.1775 7.86546C51.1479 12.7294 51.1657 12.4394 50.8047 12.6229C50.5799 12.7353 50.2958 12.7353 50.071 12.6229C49.71 12.4394 49.7278 12.7294 49.6982 7.86546L49.6686 3.39209L48.4793 3.37434C47.8284 3.36842 47.2781 3.38026 47.2544 3.39801Z" fill="#50535E"/>
<path id="Vector_11" d="M18.9882 16.6998C18.9882 16.7827 19.0118 16.8596 19.0355 16.8773C19.0651 16.8951 19.1183 17.0549 19.1598 17.2324C19.2012 17.4158 19.2544 17.5756 19.284 17.5933C19.3077 17.6111 19.3491 17.7235 19.3728 17.8418C19.3964 17.9661 19.4319 18.0904 19.4556 18.1259C19.4793 18.1554 19.5325 18.3389 19.574 18.5282C19.6154 18.7176 19.6864 18.9424 19.7337 19.0312C19.7811 19.1199 19.8166 19.2383 19.8166 19.2915C19.8166 19.3448 19.8461 19.4099 19.8817 19.4276C19.9172 19.4513 19.929 19.5046 19.9112 19.5519C19.8935 19.5933 19.9053 19.6466 19.9349 19.6643C19.9586 19.6821 20 19.8004 20.0237 19.9306C20.0473 20.0608 20.0828 20.1673 20.1124 20.1673C20.1361 20.1673 20.1716 20.2975 20.1953 20.4631C20.2189 20.6229 20.2663 20.759 20.2959 20.759C20.3314 20.759 20.3491 20.8004 20.3314 20.8478C20.3077 20.8951 20.3195 20.9483 20.3491 20.9661C20.3728 20.9838 20.4142 21.1022 20.4379 21.2324C20.4615 21.3625 20.503 21.4809 20.5325 21.5046C20.5621 21.5223 20.5858 21.5696 20.5858 21.617C20.5858 21.6643 20.6154 21.7708 20.6568 21.8655C20.6923 21.9543 20.716 22.0549 20.7101 22.0844C20.7041 22.1081 20.7219 22.1614 20.7515 22.2028C20.7811 22.2383 20.8284 22.3744 20.8521 22.5046C20.8757 22.6347 20.9112 22.7649 20.9349 22.8004C21.0828 22.9898 21.1183 23.5341 21.1183 25.6051V27.8004H22.3609H23.6035V25.5578C23.6035 24.2915 23.6272 23.2975 23.6568 23.2797C23.6864 23.262 23.7456 23.1022 23.7811 22.9365C23.8225 22.7649 23.8757 22.5933 23.8994 22.5637C23.929 22.5282 23.9645 22.404 23.9882 22.2797C24.0118 22.1614 24.0532 22.043 24.0828 22.0253C24.1124 22.0075 24.1243 21.972 24.1065 21.9424C24.0888 21.9128 24.1006 21.8773 24.1361 21.8537C24.1657 21.8359 24.1953 21.7472 24.1953 21.6584C24.1953 21.5696 24.2367 21.4217 24.284 21.333C24.3314 21.2442 24.3846 21.0785 24.4083 20.9602C24.426 20.8478 24.4674 20.7412 24.497 20.7235C24.5266 20.7057 24.5385 20.6702 24.5207 20.6407C24.503 20.617 24.5325 20.5164 24.5799 20.4276C24.6272 20.333 24.6686 20.2087 24.6686 20.1554C24.6686 20.1022 24.6923 20.043 24.7219 20.0253C24.7515 20.0075 24.8047 19.8182 24.8461 19.6051C24.8876 19.3921 24.9408 19.2087 24.9645 19.1909C24.9941 19.1732 25.0296 19.0549 25.0532 18.9247C25.0769 18.7945 25.1124 18.688 25.1361 18.688C25.1598 18.688 25.2189 18.5341 25.2603 18.3448C25.3018 18.1614 25.355 17.9779 25.3787 17.9483C25.4083 17.9128 25.4438 17.7827 25.4674 17.6525C25.4911 17.5223 25.5385 17.3862 25.568 17.3507C25.5976 17.3093 25.6154 17.256 25.6095 17.2324C25.6035 17.2028 25.6272 17.1022 25.6627 17.0134C25.7041 16.9188 25.7337 16.8122 25.7337 16.7708C25.7337 16.7353 25.7633 16.6702 25.8047 16.6288C25.858 16.5756 25.5917 16.5578 24.5917 16.5578C23.3491 16.5578 23.3077 16.5637 23.3077 16.6762C23.3077 16.7412 23.284 16.7945 23.2544 16.7945C23.2248 16.7945 23.1834 16.9069 23.1598 17.043C23.1361 17.1791 23.0947 17.333 23.071 17.3862C23.0118 17.5105 22.8935 18.0134 22.8935 18.1554C22.8935 18.2205 22.8698 18.2738 22.8402 18.2738C22.8106 18.2738 22.7751 18.404 22.7515 18.5696C22.7278 18.7294 22.6805 18.8655 22.645 18.8655C22.6095 18.8655 22.5976 18.9306 22.6095 19.0134C22.6272 19.0963 22.6213 19.1791 22.5976 19.1909C22.574 19.2087 22.5325 19.3389 22.5148 19.4868C22.4674 19.7767 22.3018 19.8714 22.3018 19.6111C22.3018 19.5282 22.2722 19.4454 22.2426 19.4276C22.2071 19.404 22.1953 19.3625 22.2189 19.333C22.2367 19.3034 22.2248 19.2442 22.1953 19.2028C22.1598 19.1614 22.1183 19.0075 22.0947 18.8478C22.071 18.6939 22.0296 18.5519 22 18.5401C21.9763 18.5223 21.9349 18.3862 21.9112 18.2442C21.8935 18.0963 21.8521 17.9602 21.8225 17.9483C21.7988 17.9306 21.787 17.8773 21.8106 17.83C21.8284 17.7767 21.8166 17.7057 21.7811 17.6643C21.7456 17.6288 21.7041 17.4868 21.6805 17.3566C21.6568 17.2264 21.6154 17.0904 21.5917 17.0608C21.568 17.0253 21.5325 16.901 21.5089 16.7767L21.4674 16.5578H20.2308H18.9882V16.6998Z" fill="#50535E"/>
<path id="Vector_12" d="M27.9172 16.5874C27.9113 16.6051 27.9054 16.6347 27.8994 16.6584C27.8935 16.688 27.8758 16.7294 27.8521 16.7649C27.8344 16.7945 27.7989 17.0016 27.7752 17.2205C27.7515 17.4454 27.7101 17.6229 27.6864 17.6229C27.6628 17.6229 27.6213 17.8122 27.5977 18.0371C27.574 18.2679 27.5326 18.4631 27.5089 18.4809C27.4793 18.4986 27.4734 18.5637 27.4912 18.6288C27.5089 18.6939 27.4971 18.7827 27.4616 18.8241C27.432 18.8596 27.3847 19.0785 27.361 19.3093C27.3373 19.5341 27.3018 19.7472 27.2722 19.7827C27.2486 19.8122 27.1953 20.0785 27.1539 20.3744C27.1125 20.6643 27.0592 20.9306 27.0355 20.9661C27.0119 20.9957 26.9705 21.2205 26.9468 21.4572C26.9231 21.688 26.8817 21.8951 26.858 21.9128C26.8344 21.9306 26.7811 22.2087 26.7397 22.5341C26.6983 22.8596 26.6391 23.1259 26.6154 23.1259C26.5918 23.1259 26.5562 23.3211 26.5326 23.5519C26.5089 23.7886 26.4675 24.0075 26.4438 24.043C26.4202 24.0726 26.3669 24.3566 26.3255 24.6643C26.2841 24.972 26.2308 25.256 26.2012 25.2856C26.1776 25.3211 26.1361 25.5164 26.1125 25.7294C26.0947 25.9424 26.0474 26.1495 26.0178 26.185C25.9823 26.2265 25.9705 26.327 25.9823 26.4099C26 26.4927 25.9941 26.5756 25.9645 26.5874C25.9409 26.6051 25.8994 26.7886 25.8817 27.0016C25.858 27.2146 25.8166 27.404 25.787 27.4217C25.7574 27.4395 25.7338 27.5282 25.7338 27.6288V27.8004H26.9705H28.2071L28.2426 27.617C28.2604 27.5164 28.2781 27.3448 28.2781 27.2324C28.2781 27.1259 28.3077 27.0193 28.3373 27.0016C28.3728 26.9838 28.3965 26.901 28.3965 26.8182V26.6702L29.1539 26.688L29.9054 26.7057L29.9231 27.0016C29.9349 27.1614 29.9645 27.3211 30 27.3507C30.0296 27.3862 30.0533 27.4986 30.0533 27.6051V27.8004H31.3255C32.4793 27.8004 32.7278 27.7708 32.5444 27.6584C32.5207 27.6407 32.4616 27.3625 32.4202 27.0489C32.3787 26.7294 32.3255 26.4395 32.3018 26.4099C32.2722 26.3744 32.2367 26.1909 32.2131 25.9957C32.1894 25.8004 32.148 25.6111 32.1243 25.5815C32.1006 25.546 32.0474 25.256 32.006 24.9306C31.9645 24.6051 31.9113 24.3093 31.8876 24.2797C31.858 24.2442 31.8225 24.0608 31.7989 23.8655C31.7752 23.6702 31.7278 23.4809 31.6983 23.4395C31.6687 23.398 31.6509 23.2915 31.6568 23.2028C31.6687 23.114 31.6628 23.0075 31.6391 22.9779C31.6213 22.9424 31.5858 22.759 31.5622 22.5637C31.5385 22.3685 31.4971 22.1791 31.4734 22.1495C31.4497 22.114 31.4083 21.9306 31.3847 21.7353C31.361 21.5401 31.3196 21.3448 31.2841 21.3093C31.2486 21.2679 31.2426 21.1673 31.2604 21.0904C31.2781 21.0075 31.2722 20.9306 31.2426 20.9128C31.219 20.8951 31.1776 20.6939 31.1539 20.4631C31.1302 20.2383 31.0888 20.0371 31.0651 20.0194C31.0355 20.0075 30.9941 19.8182 30.9705 19.6051C30.9527 19.3921 30.9113 19.2087 30.8876 19.1909C30.858 19.1791 30.8521 19.0963 30.8699 19.0134C30.8817 18.9306 30.8699 18.83 30.8344 18.7886C30.8048 18.7531 30.7574 18.5223 30.7338 18.2856C30.7101 18.0549 30.6746 17.8596 30.6509 17.8596C30.6273 17.8596 30.574 17.5992 30.5326 17.2797C30.4912 16.9661 30.4261 16.6702 30.3965 16.6288C30.3491 16.5756 30.0237 16.5578 29.1302 16.5578C28.4675 16.5578 27.9172 16.5696 27.9172 16.5874ZM29.2545 21.972C29.2781 22.2797 29.3196 22.5519 29.3551 22.5696C29.3847 22.5874 29.4024 22.7294 29.3965 22.8833C29.3906 23.0371 29.3965 23.185 29.4142 23.2205C29.432 23.2501 29.4675 23.5105 29.4912 23.8063C29.5148 24.0963 29.5681 24.3566 29.6036 24.3803C29.6391 24.404 29.4497 24.4276 29.1835 24.4276C28.6983 24.4276 28.6923 24.4276 28.6923 24.2797C28.6923 24.1969 28.716 24.1318 28.7456 24.1318C28.7752 24.1318 28.8166 23.8773 28.8403 23.5696C28.8639 23.262 28.9054 22.9957 28.9349 22.972C28.9645 22.9543 28.9882 22.8655 28.9882 22.7708C28.9882 22.4395 29.1243 21.4099 29.1657 21.4099C29.1894 21.4099 29.2308 21.6643 29.2545 21.972Z" fill="#50535E"/>
<path id="Vector_13" d="M32.8345 17.6229V18.688H34.4084C35.6629 18.688 35.9706 18.7057 35.9291 18.759C35.8936 18.8004 35.8345 18.9661 35.799 19.1318C35.7575 19.2915 35.7043 19.4513 35.6747 19.4868C35.651 19.5164 35.6096 19.6407 35.5859 19.7531C35.5623 19.8655 35.509 20.0134 35.4617 20.0785C35.4203 20.1436 35.367 20.2975 35.3493 20.4217C35.3256 20.5401 35.2842 20.6525 35.2605 20.6702C35.2309 20.688 35.1954 20.8063 35.1717 20.9365C35.1481 21.0667 35.1067 21.1732 35.0712 21.1732C35.0356 21.1732 35.0238 21.2146 35.0416 21.262C35.0652 21.3093 35.0534 21.3625 35.0297 21.3744C35.0001 21.3921 34.9646 21.4927 34.941 21.5992C34.9232 21.7057 34.8641 21.8714 34.8226 21.972C34.6984 22.2324 34.651 22.3744 34.6629 22.4572C34.6688 22.4927 34.6451 22.5401 34.6096 22.5637C34.58 22.5815 34.5504 22.6466 34.5504 22.6998C34.5504 22.7531 34.5149 22.8714 34.4676 22.9602C34.4203 23.0489 34.367 23.2087 34.3433 23.3152C34.3197 23.4217 34.2842 23.5341 34.2664 23.5696C34.2428 23.5992 34.225 23.6525 34.225 23.688C34.2191 23.7176 34.1836 23.8241 34.1422 23.9247C33.9942 24.2501 33.9646 24.3389 33.8936 24.6051C33.8522 24.7531 33.799 24.8951 33.7753 24.9306C33.7575 24.9602 33.7161 25.0844 33.6925 25.1969C33.6688 25.3093 33.6274 25.4276 33.6037 25.4631C33.58 25.4927 33.5268 25.6288 33.4854 25.759C33.4499 25.8892 33.3788 26.0785 33.3315 26.185C33.2842 26.2856 33.2487 26.4099 33.2487 26.4572C33.2487 26.5105 33.2191 26.5696 33.1836 26.5874C33.1481 26.6111 33.1362 26.6643 33.154 26.7117C33.1717 26.7531 33.1599 26.8063 33.1362 26.8241C33.1067 26.8359 33.0652 26.9543 33.0416 27.0726C33.0179 27.1969 32.9765 27.3093 32.9528 27.327C32.9291 27.3448 32.8877 27.4572 32.8641 27.5815L32.8226 27.8004H36.083H39.3433L39.3315 26.7472L39.3138 25.6998L37.7516 25.6821L36.1954 25.6702L36.2368 25.4454C36.2605 25.327 36.296 25.2146 36.3256 25.1969C36.3493 25.1791 36.3907 25.0726 36.4143 24.9602C36.438 24.8478 36.4854 24.7235 36.5149 24.6821C36.5445 24.6407 36.5564 24.5815 36.5386 24.5519C36.5149 24.5223 36.5268 24.4809 36.5564 24.4631C36.5859 24.4395 36.6274 24.3211 36.651 24.1909C36.6747 24.0608 36.7102 23.9543 36.7398 23.9543C36.7635 23.9543 36.8167 23.83 36.8581 23.6762C36.8936 23.5223 36.9469 23.3685 36.9765 23.333C37.0001 23.3034 37.0416 23.1791 37.0652 23.0667C37.0889 22.9543 37.1303 22.83 37.154 22.8004C37.1777 22.7649 37.2309 22.6111 37.2664 22.4454C37.3078 22.2856 37.3611 22.1259 37.3907 22.0904C37.4143 22.0608 37.4558 21.9424 37.4794 21.8359C37.4972 21.7353 37.5386 21.6466 37.5623 21.6466C37.5919 21.6466 37.6451 21.4868 37.6865 21.2915C37.728 21.0963 37.7871 20.9188 37.8108 20.901C37.8404 20.8833 37.8641 20.8359 37.8641 20.7886C37.8641 20.7412 37.8936 20.6347 37.9351 20.5401C37.9765 20.4513 38.012 20.3448 38.012 20.3152C38.0297 20.2265 38.1007 20.043 38.1954 19.8418C38.2368 19.7412 38.296 19.5756 38.3138 19.4691C38.3374 19.3625 38.3729 19.262 38.4025 19.2442C38.4262 19.2324 38.438 19.1791 38.4203 19.1377C38.4025 19.0904 38.4143 19.0371 38.4499 19.0134C38.4854 18.9957 38.5149 18.9306 38.5149 18.8773C38.5149 18.8241 38.5504 18.7057 38.5978 18.617C38.6451 18.5282 38.6984 18.3685 38.722 18.262C38.7457 18.1554 38.799 18.0134 38.8404 17.9483C38.8818 17.8833 38.9351 17.7353 38.9587 17.6229C38.9824 17.5105 39.0238 17.3862 39.0475 17.3566C39.0712 17.3211 39.1244 17.1614 39.1658 17.0016C39.2072 16.8359 39.2664 16.6702 39.3019 16.6288C39.3433 16.5756 38.6984 16.5578 36.0948 16.5578H32.8345V17.6229Z" fill="#50535E"/>
<path id="Vector_14" d="M39.9941 22.1791V27.8004H41.2367H42.4793V22.1791V16.5578H41.2367H39.9941V22.1791Z" fill="#50535E"/>
<path id="Vector_15" d="M43.1895 22.1791V27.8004H45.6155H48.0415V26.7353V25.6702H46.8581H45.6747V21.114V16.5578H44.4321H43.1895V22.1791Z" fill="#50535E"/>
<path id="Vector_16" d="M48.8698 22.1791V27.8004H50.1124H51.355V22.1791V16.5578H50.1124H48.8698V22.1791Z" fill="#50535E"/>
<path id="Vector_17" d="M52.0651 22.1791V27.8004H53.3077H54.5503V25.5223C54.5503 23.8951 54.568 23.2442 54.6154 23.2442C54.6509 23.2442 54.6686 23.2856 54.6509 23.333C54.6272 23.3803 54.639 23.4336 54.6627 23.4454C54.6923 23.4631 54.7278 23.5933 54.7515 23.7294C54.7751 23.8655 54.8165 24.0075 54.8402 24.043C54.8639 24.0726 54.9231 24.2324 54.9586 24.398C55 24.5578 55.0532 24.7176 55.0828 24.7531C55.1065 24.7827 55.1479 24.9069 55.1716 25.0193C55.1952 25.1318 55.2367 25.2501 55.2603 25.2856C55.2781 25.3152 55.3313 25.5046 55.3787 25.6998C55.497 26.262 55.5029 26.262 56.1302 26.262C56.6213 26.262 56.6804 26.2501 56.6804 26.1554C56.6804 26.0963 56.71 26.0193 56.7396 25.9898C56.7751 25.9543 56.8284 25.7649 56.8639 25.5637C56.8994 25.3625 56.9526 25.1969 56.9763 25.1969C57 25.1969 57.0414 25.0963 57.0651 24.972C57.0887 24.8537 57.1242 24.7235 57.1538 24.6939C57.1775 24.6584 57.2307 24.4927 57.2722 24.3211C57.3077 24.1554 57.3668 24.0016 57.3905 23.9838C57.4201 23.9661 57.4615 23.83 57.4852 23.688C57.5029 23.5401 57.5444 23.404 57.5739 23.3921C57.5976 23.3744 57.6094 23.3211 57.5917 23.2797C57.5739 23.2324 57.5858 23.1791 57.6213 23.1554C57.6686 23.1318 57.6864 23.8122 57.6864 25.4572V27.8004H58.929H60.1716V22.1791V16.5578H58.9349C57.9763 16.5578 57.6864 16.5756 57.6331 16.6347C57.5976 16.6821 57.5858 16.7353 57.6094 16.7531C57.6272 16.7767 57.6154 16.8241 57.5858 16.8655C57.5503 16.9069 57.5029 17.0489 57.4793 17.1791C57.4556 17.3093 57.4142 17.4454 57.3846 17.4809C57.355 17.5223 57.3017 17.7117 57.2662 17.9128C57.2307 18.114 57.1775 18.2738 57.1479 18.2738C57.1242 18.2738 57.0828 18.404 57.0591 18.5696C57.0355 18.7294 57 18.8655 56.9763 18.8655C56.9526 18.8655 56.8994 19.0312 56.858 19.2324C56.8165 19.4395 56.7633 19.6288 56.7337 19.6643C56.71 19.6939 56.6745 19.83 56.6509 19.9602C56.6272 20.0904 56.5799 20.2265 56.5503 20.2679C56.5207 20.3093 56.5089 20.3685 56.5266 20.398C56.5503 20.4276 56.5384 20.4691 56.5089 20.4868C56.4793 20.5105 56.4378 20.6347 56.4142 20.7708C56.3905 20.9069 56.3491 21.0608 56.3195 21.114C56.2899 21.1614 56.2485 21.2915 56.2189 21.404C56.1538 21.688 56.0532 21.6939 56 21.4276C55.9763 21.3034 55.9408 21.1732 55.9171 21.1436C55.8875 21.1081 55.8343 20.9188 55.7929 20.7117C55.7515 20.5105 55.6982 20.3448 55.6745 20.3448C55.6509 20.3448 55.6154 20.2087 55.5917 20.0489C55.568 19.8833 55.5266 19.7531 55.5029 19.7531C55.4733 19.7531 55.4201 19.5815 55.3787 19.3685C55.3373 19.1554 55.284 18.972 55.2603 18.9543C55.2307 18.9365 55.1952 18.8122 55.1716 18.6702C55.1479 18.5341 55.1006 18.3921 55.071 18.3507C55.0414 18.3093 55.0296 18.2501 55.0473 18.2205C55.071 18.1909 55.0591 18.1495 55.0296 18.1259C54.9941 18.1081 54.9526 17.972 54.929 17.83C54.9112 17.6821 54.8698 17.5519 54.8461 17.5341C54.8165 17.5164 54.781 17.3921 54.7574 17.2501C54.7337 17.114 54.6923 16.972 54.6627 16.9365C54.6272 16.8951 54.6094 16.8418 54.6154 16.8182C54.6213 16.7886 54.6094 16.7176 54.5858 16.6584C54.5444 16.5696 54.4201 16.5578 53.3017 16.5578H52.0651V22.1791Z" fill="#50535E"/>
</g>
</g>
</svg>
