<svg width="56" height="57" viewBox="0 0 56 57" fill="none" xmlns="http://www.w3.org/2000/svg">
<g id="tabler:square-rounded-minus-filled">
<rect id="Rectangle 2296" x="14.5" y="14.5742" width="28" height="28" fill="#002947"/>
<path id="Vector" d="M27.9994 5.2417L28.7554 5.24403L29.4974 5.25337L30.9347 5.29303L31.6324 5.32337L32.9834 5.4027L34.2737 5.51003C45.4387 6.5927 49.9817 11.1357 51.0644 22.3007L51.1717 23.591L51.251 24.942C51.2635 25.1707 51.2736 25.4033 51.2814 25.6397L51.321 27.077L51.3327 28.575L51.321 30.073L51.2814 31.5104L51.251 32.208L51.1717 33.559L51.0644 34.8494C49.9817 46.0144 45.4387 50.5574 34.2737 51.64L32.9834 51.7474L31.6324 51.8267C31.4037 51.8391 31.1711 51.8493 30.9347 51.857L29.4974 51.8967L27.9994 51.9084L26.5014 51.8967L25.064 51.857L24.3664 51.8267L23.0154 51.7474L21.725 51.64C10.56 50.5574 6.01702 46.0144 4.93435 34.8494L4.82702 33.559L4.74768 32.208L4.71735 31.5104L4.67768 30.073C4.6699 29.583 4.66602 29.0837 4.66602 28.575L4.66835 27.819L4.67768 27.077L4.71735 25.6397L4.74768 24.942L4.82702 23.591L4.93435 22.3007C6.01702 11.1357 10.56 6.5927 21.725 5.51003L23.0154 5.4027L24.3664 5.32337C24.595 5.31092 24.8276 5.30081 25.064 5.29303L26.5014 5.25337C26.9914 5.24559 27.4907 5.2417 27.9994 5.2417ZM34.9994 26.2417H20.9993L20.7264 26.258C20.1358 26.3283 19.5943 26.6214 19.2126 27.0774C18.8309 27.5335 18.6378 28.1181 18.6726 28.7118C18.7075 29.3055 18.9677 29.8635 19.4002 30.2717C19.8326 30.68 20.4046 30.9077 20.9993 30.9084H34.9994L35.2724 30.892C35.8629 30.8218 36.4044 30.5287 36.7861 30.0726C37.1678 29.6166 37.3609 29.032 37.3261 28.4383C37.2912 27.8446 37.031 27.2866 36.5985 26.8783C36.1661 26.4701 35.5941 26.2424 34.9994 26.2417Z" fill="#F7F6F4"/>
</g>
</svg>
