<svg width="56" height="57" viewBox="0 0 56 57" fill="none" xmlns="http://www.w3.org/2000/svg">
<g id="tabler:square-rounded-plus-filled">
<rect id="Rectangle 2296" x="14" y="14.5742" width="28" height="28" fill="#002947"/>
<path id="Vector" d="M28.0052 5.24219L28.7612 5.24452L29.5032 5.25385L30.9405 5.29352L31.6382 5.32385L32.9892 5.40319L34.2795 5.51052C45.4445 6.59319 49.9875 11.1362 51.0702 22.3012L51.1775 23.5915L51.2569 24.9425C51.2693 25.1712 51.2794 25.4037 51.2872 25.6402L51.3269 27.0775L51.3385 28.5755L51.3269 30.0735L51.2872 31.5108L51.2569 32.2085L51.1775 33.5595L51.0702 34.8498C49.9875 46.0148 45.4445 50.5578 34.2795 51.6405L32.9892 51.7478L31.6382 51.8272C31.4095 51.8396 31.177 51.8497 30.9405 51.8575L29.5032 51.8972L28.0052 51.9088L26.5072 51.8972L25.0699 51.8575L24.3722 51.8272L23.0212 51.7478L21.7309 51.6405C10.5659 50.5578 6.02287 46.0148 4.94021 34.8498L4.83287 33.5595L4.75354 32.2085L4.72321 31.5108L4.68354 30.0735C4.67576 29.5835 4.67188 29.0842 4.67188 28.5755L4.67421 27.8195L4.68354 27.0775L4.72321 25.6402L4.75354 24.9425L4.83287 23.5915L4.94021 22.3012C6.02287 11.1362 10.5659 6.59319 21.7309 5.51052L23.0212 5.40319L24.3722 5.32385C24.6009 5.31141 24.8334 5.3013 25.0699 5.29352L26.5072 5.25385C26.9972 5.24608 27.4965 5.24219 28.0052 5.24219ZM28.0052 19.2422C27.3864 19.2422 26.7929 19.488 26.3553 19.9256C25.9177 20.3632 25.6719 20.9567 25.6719 21.5755V26.2422H21.0052L20.7322 26.2585C20.1416 26.3288 19.6002 26.6219 19.2185 27.0779C18.8368 27.534 18.6436 28.1186 18.6785 28.7123C18.7133 29.306 18.9736 29.8639 19.406 30.2722C19.8385 30.6805 20.4105 30.9082 21.0052 30.9088H25.6719V35.5755L25.6882 35.8485C25.7584 36.4391 26.0515 36.9805 26.5076 37.3622C26.9637 37.7439 27.5483 37.9371 28.1419 37.9022C28.7356 37.8674 29.2936 37.6072 29.7019 37.1747C30.1102 36.7423 30.3379 36.1702 30.3385 35.5755V30.9088H35.0052L35.2782 30.8925C35.8688 30.8223 36.4102 30.5292 36.7919 30.0731C37.1736 29.6171 37.3668 29.0325 37.3319 28.4388C37.2971 27.8451 37.0368 27.2871 36.6044 26.8788C36.1719 26.4706 35.5999 26.2428 35.0052 26.2422H30.3385V21.5755L30.3222 21.3025C30.2553 20.7349 29.9825 20.2116 29.5554 19.8319C29.1283 19.4521 28.5767 19.2423 28.0052 19.2422Z" fill="#F7F6F4"/>
</g>
</svg>
