<svg width="69" height="70" viewBox="0 0 69 70" fill="none" xmlns="http://www.w3.org/2000/svg">
<g id="icon-park:quote">
<g id="Group">
<path id="Vector" d="M29.9622 19.2172L29.9353 19.2373C27.3823 21.1402 24.6928 24.0588 22.6045 26.8514C21.562 28.2456 20.677 29.5981 20.0381 30.7647C19.3888 31.9503 19.0267 32.8856 18.9685 33.4638C18.9068 34.0782 19.0173 34.3798 19.1736 34.5654C19.3485 34.7731 19.6639 34.9398 20.2384 35.1025C20.5989 35.2047 21.0056 35.2919 21.4813 35.394C21.768 35.4556 22.0798 35.5225 22.4217 35.6013C23.3095 35.8059 24.342 36.0794 25.4973 36.5215C27.9003 37.4411 30.1627 39.7861 31.0997 42.713C32.0468 45.6712 31.6383 49.2165 28.7102 52.4851C25.7017 55.8433 20.9274 55.9543 17.0851 53.5448C13.228 51.1261 10.2674 46.1702 10.6785 39.2957C11.2057 30.4791 16.3643 22.4821 26.0017 15.2963M29.9622 19.2172L26.0017 15.2963M29.9622 19.2172L29.9861 19.1938C30.4891 18.7016 30.6484 17.7925 30.0667 17.1366L30.0666 17.1365L28.5958 15.4785L28.2218 15.8102L28.5958 15.4784C28.2265 15.0621 27.8054 14.7906 27.302 14.7814C26.8227 14.7726 26.3898 15.0068 26.0017 15.2963M29.9622 19.2172L26.3005 15.6971L26.0017 15.2963" fill="#005694" stroke="#005694"/>
<path id="Vector_2" d="M52.3727 13.4523L52.3727 13.4523C42.7355 20.6381 37.5769 28.6351 37.0496 37.4517L37.5484 37.4815L37.0496 37.4517C36.6385 44.3262 39.5991 49.2821 43.4562 51.7008C47.2985 54.1103 52.0729 53.9993 55.0813 50.6411C58.0095 47.3725 58.4179 43.8272 57.4709 40.869C56.5338 37.9421 54.2714 35.5971 51.8684 34.6775C50.7131 34.2354 49.6807 33.9619 48.7928 33.7573C48.451 33.6785 48.1392 33.6116 47.8524 33.55C47.3767 33.4479 46.97 33.3607 46.6095 33.2586C46.035 33.0958 45.7196 32.9291 45.5447 32.7215C45.3884 32.5358 45.2779 32.2343 45.3397 31.6198L45.3397 31.6198C45.3978 31.0416 45.76 30.1063 46.4093 28.9207C47.0482 27.7541 47.9332 26.4016 48.9757 25.0074C51.064 22.2148 53.7535 19.2962 56.3064 17.3933L56.3333 17.3732L56.3573 17.3498C56.8603 16.8576 57.0196 15.9485 56.4377 15.2925L54.967 13.6345L54.5929 13.9662L54.967 13.6345C54.5976 13.2181 54.1766 12.9466 53.6731 12.9374C53.1938 12.9287 52.761 13.1628 52.3727 13.4523Z" fill="#005694" stroke="#005694"/>
</g>
</g>
</svg>
