<svg width="27" height="26" viewBox="0 0 27 26" fill="none" xmlns="http://www.w3.org/2000/svg">
<g id="tabler:star-filled">
<path id="Vector" d="M9.78913 8.17986L3.36014 8.65756L3.24582 8.67262C3.072 8.70599 2.91016 8.78489 2.77682 8.90126C2.64347 9.01764 2.5434 9.16731 2.48682 9.33501C2.43024 9.50271 2.41919 9.68242 2.45478 9.85579C2.49037 10.0292 2.57134 10.19 2.68942 10.3218L6.98632 15.1323L5.45568 21.3958L5.43503 21.5046C5.41225 21.6803 5.43658 21.859 5.50554 22.0223C5.57451 22.1855 5.68562 22.3275 5.82751 22.4337C5.9694 22.5399 6.13697 22.6065 6.31305 22.6267C6.48913 22.6468 6.66741 22.6198 6.82962 22.5484L12.731 19.9537L18.2009 23.3436L18.2974 23.3964C18.4575 23.4728 18.6351 23.5052 18.8119 23.4903C18.9886 23.4754 19.1583 23.4138 19.3034 23.3117C19.4484 23.2096 19.5638 23.0707 19.6375 22.9094C19.7112 22.748 19.7407 22.5699 19.7228 22.3934L19.0778 15.9778L24.0044 11.8113L24.0882 11.732C24.2089 11.6028 24.2932 11.444 24.3326 11.2717C24.372 11.0994 24.3649 10.9197 24.3122 10.7509C24.2596 10.5822 24.1631 10.4304 24.0326 10.3111C23.9022 10.1918 23.7425 10.1092 23.5697 10.0718L17.2699 8.70296L14.828 2.73809C14.7574 2.56528 14.6397 2.41569 14.4885 2.30626C14.3372 2.19684 14.1583 2.13194 13.9721 2.11891C13.7859 2.10589 13.5997 2.14526 13.4347 2.23257C13.2697 2.31989 13.1324 2.45165 13.0384 2.61295L9.78913 8.17986Z" fill="#005694"/>
</g>
</svg>
