<svg width="24" height="25" viewBox="0 0 24 25" fill="none" xmlns="http://www.w3.org/2000/svg">
<g id="tabler:brand-twitter">
<path id="Vector" d="M22 4.65058C21 5.14058 20.02 5.33958 19 5.64058C17.879 4.37558 16.217 4.30558 14.62 4.90358C13.023 5.50158 11.977 6.96358 12 8.64058V9.64058C8.755 9.72358 5.865 8.24558 4 5.64058C4 5.64058 -0.182 13.0736 8 16.6406C6.128 17.8876 4.261 18.7286 2 18.6406C5.308 20.4436 8.913 21.0636 12.034 20.1576C15.614 19.1176 18.556 16.4346 19.685 12.4156C20.0223 11.1933 20.1895 9.93047 20.182 8.66258C20.182 8.41358 21.692 5.89058 22 4.64958V4.65058Z" stroke="#50535E" stroke-width="1.5" stroke-linecap="round" stroke-linejoin="round"/>
</g>
</svg>
